<svg xmlns="http://www.w3.org/2000/svg">
<defs>
<font id="SheepSansBold" horiz-adv-x="545" >
  <font-face 
    font-family="Sheep Sans"
    font-weight="700"
    font-stretch="normal"
    units-per-em="1000"
    panose-1="2 11 5 3 2 2 3 2 2 4"
    ascent="750"
    descent="-250"
    x-height="500"
    cap-height="700"
    bbox="-397 -231 1093 970"
    underline-thickness="50"
    underline-position="-50"
    unicode-range="U+0020-U+FB02"
  />
<missing-glyph horiz-adv-x="750" 
d="M39 700h652v-700h-652v700zM549 579l-92 -104.5l-92 -102.5l-185 207l-21 -22l93.5 -104l92.5 -103l-186 -207l21 -22l92.5 104.5l92.5 102.5l184 -207l22 22l-94 104l-93 103l186 208zM151 44l-15 16l-15 -16v31h22q-3 -2 -3 -8l11 12v-35zM144 92q12 0 19 -6.5t7 -17.5
q0 -18 -7.5 -21t-18.5 -3h-23v48h23zM174 77l-1 -1l1 -2l2 2zM190 92v-48l-15 16h-1l-15 -16v48h31zM239 54q0 -23 -25 -23q-14 0 -22 8l23 4l-6 11q0 -7 1 -7q-8 2 -13 6.5t-5 16.5q0 22 24 22q5 0 8 -1t7 -2l-20 -15l9 -13q2 2 2 6q-1 -2 -3 4.5t2 4.5q7 -3 12.5 -7
t5.5 -15zM247 42q3 3 3 9zM235 59q0 -4 4 -6l4 8q-1 1 -4 1q-2 0 3 9l-13 10q2 1 5.5 2t8.5 1t6 -1l8 12.5t9 15.5l2 -67l-4 4q0 -2 -0.5 -3.5t-0.5 -3.5h-7t-10 1l-4 -11q-5 5 -6 10t-1 10v8zM242 30q-23 0 -23 23q0 13 6.5 18t17.5 5q2 0 12 -0.5t11 -0.5v-25
q-3 -11 -9.5 -15.5t-14.5 -4.5zM264 53l3 4v1l-2 2l-4 -4zM283 60l-2 -2v-14l-4 3q-2 -5 -9.5 -15.5t-18.5 -27.5l-1 66l2 -4q8 17 24 17q11 0 17.5 -6t6.5 -18v-15zM299 62l-1 -1l-1 2q0 -1 2 -1zM304 52l1 -1q-2 0 -3 1h2zM297 61l7 -9l-6 9h-1zM310 45l-6 7q7 1 7 10
q0 8 -7 10l-10 -7l3 -4q-5 0 -5 -9q0 -6 2.5 -7.5t6.5 -3.5l10 4h-1zM301 30q-8 0 -14 3l14 7q-4 1 -7 4q-5 2 -9.5 6.5t-4.5 12.5t5 14.5t16 6.5q3 0 7 -0.5t10 -3.5l-13 -8q18 -3 18 -21q0 -8 -5.5 -14.5t-16.5 -6.5zM317 59q0 33 32 33t32 -33t-32 -33t-32 33zM340 58
l4 -7l5 -2q10 0 10 10q0 8 -10 8q-3 0 -7 -4zM345 50q2 -1 4 -1l19 -7q-5 -5 -10 -6t-7 -1q-23 0 -23 24q0 13 4.5 17.5t21.5 4.5l-18 -17l4 -6l-2 -5l6 -2zM406 44l-15 16l-15 -16v31h22q-3 -2 -3 -8l11 12v-35zM399 92q12 0 19 -6.5t7 -17.5q0 -18 -7 -21t-18 -3h-24v48

<glyph glyph-name="uniFB01" unicode="fi" horiz-adv-x="540" 
d="M455 500v-500h-111v398h-150v-398h-111v398h-72v102h72v7q0 97 47.5 141t140.5 44q58 0 106.5 -14.5t80.5 -33.5l-40 -94q-32 21 -68 30.5t-72 9.5q-26 0 -42 -6t-25 -17.5t-12.5 -28t-4.5 -38.5h261z" />
    <glyph glyph-name="uniFB02" unicode="fl" horiz-adv-x="583" 
d="M341 590q-15 2 -35 3t-38 1q-23 0 -37 -6t-21.5 -18t-10.5 -29.5t-3 -40.5h96v-102h-96v-398h-111v398h-72v102h72v7q0 97 42 143t140 46q19 0 44 -1.5t51 -4t49.5 -6.5t40.5 -9v-543q0 -23 6.5 -32t17.5 -9q12 0 28.5 3t46.5 14l10 -95q-11 -6 -25 -10.5t-28.5 -7.5
t-28.5 -4.5t-24 -1.5q-50 0 -82 28t-32 94v479z" />
    <glyph glyph-name=".notdef" horiz-adv-x="750" 
d="M39 700h652v-700h-652v700zM549 579l-92 -104.5l-92 -102.5l-185 207l-21 -22l93.5 -104l92.5 -103l-186 -207l21 -22l92.5 104.5l92.5 102.5l184 -207l22 22l-94 104l-93 103l186 208zM151 44l-15 16l-15 -16v31h22q-3 -2 -3 -8l11 12v-35zM144 92q12 0 19 -6.5t7 -17.5
q0 -18 -7.5 -21t-18.5 -3h-23v48h23zM174 77l-1 -1l1 -2l2 2zM190 92v-48l-15 16h-1l-15 -16v48h31zM239 54q0 -23 -25 -23q-14 0 -22 8l23 4l-6 11q0 -7 1 -7q-8 2 -13 6.5t-5 16.5q0 22 24 22q5 0 8 -1t7 -2l-20 -15l9 -13q2 2 2 6q-1 -2 -3 4.5t2 4.5q7 -3 12.5 -7
t5.5 -15zM247 42q3 3 3 9zM235 59q0 -4 4 -6l4 8q-1 1 -4 1q-2 0 3 9l-13 10q2 1 5.5 2t8.5 1t6 -1l8 12.5t9 15.5l2 -67l-4 4q0 -2 -0.5 -3.5t-0.5 -3.5h-7t-10 1l-4 -11q-5 5 -6 10t-1 10v8zM242 30q-23 0 -23 23q0 13 6.5 18t17.5 5q2 0 12 -0.5t11 -0.5v-25
q-3 -11 -9.5 -15.5t-14.5 -4.5zM264 53l3 4v1l-2 2l-4 -4zM283 60l-2 -2v-14l-4 3q-2 -5 -9.5 -15.5t-18.5 -27.5l-1 66l2 -4q8 17 24 17q11 0 17.5 -6t6.5 -18v-15zM299 62l-1 -1l-1 2q0 -1 2 -1zM304 52l1 -1q-2 0 -3 1h2zM297 61l7 -9l-6 9h-1zM310 45l-6 7q7 1 7 10
q0 8 -7 10l-10 -7l3 -4q-5 0 -5 -9q0 -6 2.5 -7.5t6.5 -3.5l10 4h-1zM301 30q-8 0 -14 3l14 7q-4 1 -7 4q-5 2 -9.5 6.5t-4.5 12.5t5 14.5t16 6.5q3 0 7 -0.5t10 -3.5l-13 -8q18 -3 18 -21q0 -8 -5.5 -14.5t-16.5 -6.5zM317 59q0 33 32 33t32 -33t-32 -33t-32 33zM340 58
l4 -7l5 -2q10 0 10 10q0 8 -10 8q-3 0 -7 -4zM345 50q2 -1 4 -1l19 -7q-5 -5 -10 -6t-7 -1q-23 0 -23 24q0 13 4.5 17.5t21.5 4.5l-18 -17l4 -6l-2 -5l6 -2zM406 44l-15 16l-15 -16v31h22q-3 -2 -3 -8l11 12v-35zM399 92q12 0 19 -6.5t7 -17.5q0 -18 -7 -21t-18 -3h-24v48
h23zM431 42q3 1 3 7zM420 59q0 -4 4 -6l3 8q-1 0 -1.5 0.5t-1.5 0.5q-2 0 2 9l-13 10q3 1 6.5 2t7.5 1q5 0 7 -1q4 6 7.5 12.5t9.5 15.5l2 -67l-5 4q0 -2 -0.5 -3.5t-0.5 -3.5h-6t-10 1l-5 -11q-5 5 -5.5 10t-0.5 10v8zM426 30q-13 0 -17.5 5t-4.5 18q0 23 23 23
q2 0 12 -0.5t11 -0.5l1 -25q-7 -20 -25 -20zM449 57q0 -1 1 -1l1 1l-2 3l-1 -1zM444 67l2 -4h7l-4 -3l-3 1l2 -2l-3 -3l3 -2l2 2q4 -4 7 -4l-6 5l13 13v-26l-5 5q-1 -5 -8 -16.5l-18 -28.5l-1 66l2 -3q4 16 25 16l2 -1zM479 42q3 1 3 7zM468 59q0 -6 6 -7l4 9q-2 0 -3 0.5
t-3 0.5t4 11l-9 9q1 0 1.5 0.5t1.5 0.5l-6 -1q5 2 7.5 2h4.5q4 0 6 -1l8.5 12.5t9.5 15.5l1 -67l-5 4q0 -2 -0.5 -3.5t-0.5 -3.5h-6.5t-10.5 1l-3 -11q-5 5 -6 10t-1 10v8zM475 30q-23 0 -23 23t24 23q1 0 11 -0.5t11 -0.5l1 -25q-7 -20 -24 -20zM499 77l-1 -1l1 -2l2 2z
M484 92h30v-48l-15 16l-15 -16v48zM504 63l11 -8l9 22l4 -6l3 7q4 -11 10 -22l12 10q-1 -4 -2.5 -7t-2.5 -6v2q-1 -2 -1 -4h-4q1 -2 1.5 -3.5t1.5 -2.5q-5 -13 -10 -20t-21 -2l20 15l-4 10q-2 1 -2 1.5t-1 1.5h-18l-1 5l1 -7zM556 62q-5 -1 -5 -4zM564 34l-12 11
q-4 -2 -8.5 -6t-12.5 -10l-1 41l3 -3v24l16 -16.5t9 -10.5l6 6v-36zM558 84q23 0 23 -26q0 -28 -25 -28q-4 0 -11 4.5t-12 9.5v17q0 23 25 23zM593 57q0 4 -3 4l-4 -9h1q6 0 6 5zM590 61q-1 1 -3 1l-7 -7q1 -3 6 -3l-5 -14h27q-3 -3 -8.5 -5.5t-11.5 -2.5q-21 0 -31 44h42
l-11 -11h1q1 0 2 1zM587 84q29 0 19 -43h-43q0 43 24 43z" />
    <glyph glyph-name="NULL" horiz-adv-x="0" 
 />
    <glyph glyph-name="nonmarkingreturn" horiz-adv-x="267" 
 />
    <glyph glyph-name="space" unicode=" " horiz-adv-x="267" 
 />
    <glyph glyph-name="exclam" unicode="!" horiz-adv-x="305" 
d="M105 685h114v-341l-17 -180h-79l-18 180v341zM90 61q0 34 19 53t52 19t53 -19t20 -53q0 -32 -20 -52t-53 -20t-52 20t-19 52z" />
    <glyph glyph-name="quotedbl" unicode="&#x22;" horiz-adv-x="335" 
d="M187 685h113l-36 -216h-77v216zM70 685h113l-36 -216h-77v216z" />
    <glyph glyph-name="numbersign" unicode="#" 
d="M246 208h-61l-18 -77.5l-18 -76.5h-101l37 154h-73l21 97h74q5 21 10.5 40t10.5 44h-69l20 96h71l17.5 74.5l17.5 71.5h100l-35 -146h61q8 35 18 74.5l18 71.5h100l-36 -146h73l-24 -96h-70q-5 -22 -10.5 -40.5t-10.5 -43.5h68l-24 -97h-66l-18.5 -77.5t-18.5 -76.5h-100
zM208 305h60q5 21 10.5 40t10.5 44h-60z" />
    <glyph glyph-name="dollar" unicode="$" 
d="M216 -11q-98 5 -159 39l39 104q23 -14 53 -25.5t67 -13.5v219q-29 15 -56 31.5t-48 40t-34 54.5t-13 75q0 72 36.5 118t114.5 60v87h100v-83q43 -2 73.5 -11t62.5 -24l-34 -99q-23 10 -47.5 19t-54.5 12v-198q30 -15 58.5 -33t51 -42t36 -55.5t13.5 -73.5
q0 -76 -40.5 -126.5t-118.5 -67.5v-89h-100v82zM361 183q0 32 -16.5 51.5t-43.5 35.5v-171q26 9 43 30t17 54zM179 518q0 -25 15 -44.5t37 -33.5v147q-29 -8 -40.5 -27t-11.5 -42z" />
    <glyph glyph-name="percent" unicode="%" horiz-adv-x="773" 
d="M56 520q0 46 12.5 79.5t34 55t51 31.5t64.5 10q34 0 63.5 -9t51.5 -30t34.5 -54.5t12.5 -82.5q0 -48 -12.5 -81.5t-34.5 -54.5t-51.5 -30.5t-63.5 -9.5q-35 0 -64.5 9.5t-51 30.5t-34 54.5t-12.5 81.5zM161 520q0 -46 15 -65.5t42 -19.5q26 0 41 18t15 67q0 50 -15 68
t-41 18q-27 0 -42 -18t-15 -68zM413 150q0 46 12.5 79.5t34 55t51 31.5t64.5 10q34 0 63.5 -9t51.5 -30t34.5 -54.5t12.5 -82.5q0 -48 -12.5 -81.5t-34.5 -54.5t-51.5 -30.5t-63.5 -9.5q-35 0 -64.5 9.5t-51 30.5t-34 54.5t-12.5 81.5zM518 150q0 -46 15 -65.5t42 -19.5
q26 0 41 18t15 67q0 50 -15 68t-41 18q-27 0 -42 -18t-15 -68zM613 705l75 -58l-498 -666l-75 59z" />
    <glyph glyph-name="ampersand" unicode="&#x26;" horiz-adv-x="814" 
d="M107 192q0 37 12.5 71t33 63.5t47.5 54.5t57 45q-21 32 -34 63.5t-13 69.5q0 26 8.5 50.5t26.5 44t47 31t70 11.5q43 0 72.5 -11t47.5 -29t26 -41t8 -47q0 -42 -27.5 -84.5t-90.5 -81.5q27 -45 65.5 -94t75.5 -89q17 26 33.5 65t29.5 75l92 -42q-7 -18 -17 -40.5
t-22 -45.5t-24.5 -44.5l-22.5 -37.5q32 -30 59.5 -48.5t59.5 -36.5l-70 -80q-29 14 -58.5 35t-58.5 49q-34 -32 -83 -55.5t-120 -23.5q-47 0 -88.5 13.5t-73 39t-50 63.5t-18.5 87zM484 127q-4 3 -7 6l-6 6q2 3 5 6l6 6zM348 91q35 0 69 14t54 34q-24 25 -46.5 52.5l-43 55
l-38.5 53l-32 46.5q-40 -32 -66.5 -68.5t-26.5 -83.5q0 -24 10.5 -43.5t28.5 -32.5t41.5 -20t49.5 -7zM319 559q0 -21 7.5 -42.5t20.5 -41.5q36 25 49.5 44.5t13.5 33.5q0 21 -10 34.5t-35 13.5q-23 0 -34.5 -11.5t-11.5 -30.5z" />
    <glyph glyph-name="quotesingle" unicode="'" horiz-adv-x="218" 
d="M70 685h113l-36 -216h-77v216z" />
    <glyph glyph-name="parenleft" unicode="(" horiz-adv-x="280" 
d="M215 -209q-47 49 -80 106t-53.5 116t-29.5 118t-9 113q0 52 9 111t29.5 119t53.5 118t81 110l75 -53q-39 -50 -65.5 -102t-42 -104t-22 -102.5t-6.5 -96.5q0 -44 7.5 -95.5t24 -104.5t42 -104t62.5 -95z" />
    <glyph glyph-name="parenright" unicode=")" horiz-adv-x="280" 
d="M55 702q47 -50 79.5 -106.5t53 -116t29.5 -118t9 -112.5q0 -53 -9 -111.5t-29.5 -118.5t-53 -118t-80.5 -110l-74 53q39 50 65 102t41.5 104t22 102t6.5 97q0 43 -8 94.5t-24.5 104.5t-42 104t-61.5 95z" />
    <glyph glyph-name="asterisk" unicode="*" horiz-adv-x="351" 
d="M133 706l34 -57l1 -3q0 1 0.5 1t0.5 1l33 56l77 -40l-37 -62l-2 -2q2 0 3 0.5t2 0.5h67v-89h-66l3 -3l32 -54l-75 -45l-35 56l-3 9q-1 -2 -0.5 -2.5t-0.5 -2.5l-35 -57l-78 44l34 55h-63v89h65l-34 60z" />
    <glyph glyph-name="plus" unicode="+" horiz-adv-x="505" 
d="M28 383h163v167h104v-167h162v-103h-162v-167h-104v167h-163v103z" />
    <glyph glyph-name="comma" unicode="," horiz-adv-x="195" 
d="M31 58q0 31 19.5 50t51.5 19q37 0 60 -25t23 -73q0 -37 -11.5 -65.5t-30 -49.5t-41 -35t-44.5 -21l-42 68q29 12 46.5 29.5t23.5 35.5q-24 2 -39.5 19t-15.5 48z" />
    <glyph glyph-name="hyphen" unicode="-" horiz-adv-x="360" 
d="M43 338h261v-106h-261v106z" />
    <glyph glyph-name="period" unicode="." horiz-adv-x="214" 
d="M31 61q0 34 19.5 53t51.5 19q34 0 53.5 -19t19.5 -53q0 -32 -19.5 -52t-53.5 -20q-32 0 -51.5 20t-19.5 52z" />
    <glyph glyph-name="slash" unicode="/" horiz-adv-x="354" 
d="M301 702l92 -41l-353 -796l-92 41z" />
    <glyph glyph-name="zero" unicode="0" 
d="M31 343q0 177 59 265t172 88q121 0 176 -87.5t55 -265.5q0 -177 -58 -265.5t-173 -88.5q-120 0 -175.5 93t-55.5 261zM145 343q0 -56 7 -102.5t21 -79.5t36.5 -51.5t52.5 -18.5q60 0 89 60.5t29 191.5q0 56 -6 102t-20 79t-36.5 51.5t-55.5 18.5q-60 0 -88.5 -60.5
t-28.5 -190.5z" />
    <glyph glyph-name="one" unicode="1" 
d="M91 106h130v425l-116 -84l-55 77l222 172h58v-590h127v-106h-366v106z" />
    <glyph glyph-name="two" unicode="2" 
d="M441 519q0 -51 -18 -104.5t-47.5 -106t-66 -103t-72.5 -95.5l-6 -4h223v-106h-405v53l48.5 52.5t59.5 69.5t61.5 80.5t54.5 86t39 86t15 79.5q0 38 -21 62.5t-65 24.5q-32 0 -67 -16.5t-64 -39.5l-48 84q41 35 91 54.5t104 19.5q44 0 78 -13t57.5 -36.5t36 -56
t12.5 -71.5z" />
    <glyph glyph-name="three" unicode="3" 
d="M227 91q55 0 91.5 31.5t36.5 83.5q0 57 -33 83.5t-93 26.5h-87v51l138 213h-1h-205v105h368v-52l-147 -220q37 -4 68.5 -19.5t54 -40.5t35.5 -59.5t13 -77.5q0 -55 -19 -97t-51.5 -71t-76.5 -44t-94 -15q-42 0 -81.5 8.5t-73.5 22.5l30 102q28 -14 60.5 -22.5t66.5 -8.5z
" />
    <glyph glyph-name="four" unicode="4" 
d="M514 199h-109v-199h-110v199h-285v55l317 441h78v-394h109v-102zM295 475v9l7 77l35 -9l-16 -32.5l-16 -31.5zM295 475l-123 -166l-9 -9q4 1 6 0.5t7 0.5h119v174z" />
    <glyph glyph-name="five" unicode="5" 
d="M207 91q56 0 92.5 32t36.5 94q0 58 -36 86.5t-100 28.5l-49 -2.5l-48 -2.5v358h326v-105h-219v-147q5 1 10.5 1h10.5q100 -1 158 -55.5t58 -157.5q0 -57 -19 -100t-52 -72.5t-77 -44.5t-94 -15q-45 0 -79 6t-68 19l31 100q31 -12 58 -17.5t60 -5.5z" />
    <glyph glyph-name="six" unicode="6" 
d="M484 214q0 -47 -14 -87.5t-41.5 -71.5t-67.5 -48.5t-92 -17.5q-50 0 -91 16t-70 47.5t-45 77.5t-16 106q0 96 26 176.5t72 140.5t109 97.5t137 48.5l24 -95q-91 -17 -152.5 -74.5t-86.5 -135.5q20 11 47.5 19.5t56.5 8.5q96 0 150 -54.5t54 -153.5zM370 206
q0 114 -106 114q-37 0 -65 -17.5t-41 -40.5q-1 -10 -1 -15.5v-11.5v-8q0 -26 7 -50t21 -43.5t35 -31t49 -11.5q45 0 73 32.5t28 82.5z" />
    <glyph glyph-name="seven" unicode="7" 
d="M84 0l245 571l7 10q-1 0 -1.5 -0.5t-1.5 -0.5h-285v105h424v-46l-273 -639h-115z" />
    <glyph glyph-name="eight" unicode="8" 
d="M55 173q0 59 25.5 102t82.5 79q-40 27 -67 65t-27 97q0 40 14 73t39.5 57t62.5 37t82 13q43 0 78 -12.5t59.5 -34t37.5 -52t13 -66.5q0 -53 -19.5 -93t-69.5 -79q22 -15 41 -32t33 -37.5t22 -46t8 -56.5q0 -44 -14.5 -80.5t-41.5 -62.5t-66.5 -40.5t-90.5 -14.5
q-49 0 -86.5 14.5t-63 39t-39 58t-13.5 72.5zM361 182q0 23 -9 41t-24.5 33t-35.5 27t-42 23q-49 -28 -67.5 -60.5t-18.5 -63.5q0 -38 24.5 -64.5t73.5 -26.5q39 0 69 22t30 69zM179 518q0 -20 8.5 -36.5t22.5 -30.5t32.5 -26t38.5 -22q35 28 50 54t15 58q0 38 -23.5 58.5
t-56.5 20.5q-42 0 -64.5 -23.5t-22.5 -52.5z" />
    <glyph glyph-name="nine" unicode="9" 
d="M40 470q0 48 14 89.5t41.5 72t68.5 47.5t95 17q104 0 161.5 -65.5t57.5 -186.5q0 -109 -26 -190.5t-72 -138t-109 -88t-136 -40.5l-27 95q100 16 159.5 70t82.5 133q-21 -12 -45.5 -17t-59.5 -5q-42 0 -79 13.5t-65 40t-44.5 65t-16.5 88.5zM153 478q0 -57 30 -85t78 -28
q38 0 65.5 11t39.5 30q2 9 2 14.5v11.5v9q0 30 -6.5 57.5t-20.5 49t-35.5 34t-51.5 12.5q-48 0 -74.5 -30.5t-26.5 -85.5z" />
    <glyph glyph-name="colon" unicode=":" horiz-adv-x="219" 
d="M71 434q0 34 19.5 53t52.5 19t53 -19t20 -53q0 -32 -20 -52t-53 -20t-52.5 20t-19.5 52zM71 61q0 34 19.5 53t52.5 19t53 -19t20 -53q0 -32 -20 -52t-53 -20t-52.5 20t-19.5 52z" />
    <glyph glyph-name="semicolon" unicode=";" horiz-adv-x="256" 
d="M69 58q0 31 20 50t52 19q37 0 60 -25t23 -73q0 -37 -12 -65.5t-30.5 -49.5t-41 -35t-44.5 -21l-42 68q29 12 46.5 29.5t24.5 35.5q-25 2 -40.5 19t-15.5 48zM76 434q0 34 19 53t52 19t53 -19t20 -53q0 -32 -20 -52t-53 -20t-52 20t-19 52z" />
    <glyph glyph-name="less" unicode="&#x3c;" horiz-adv-x="505" 
d="M30 291v47l375 229l54 -89l-239 -146l-39 -16q11 -5 19.5 -7.5l19.5 -5.5l243 -145l-54 -87z" />
    <glyph glyph-name="equal" unicode="=" horiz-adv-x="505" 
d="M28 460h429v-104h-429v104zM28 306h429v-103h-429v103z" />
    <glyph glyph-name="greater" unicode="&#x3e;" horiz-adv-x="505" 
d="M456 347v-47l-375 -229l-53 88l239 146l39 16q-10 4 -19.5 7l-19.5 6l-244 145l54 88z" />
    <glyph glyph-name="question" unicode="?" horiz-adv-x="436" 
d="M130 164q-2 14 -2.5 23t-0.5 16q0 33 8 60t20.5 49.5t28 41.5l31.5 37q24 27 45.5 57.5t21.5 68.5q0 34 -20 55.5t-68 21.5q-31 0 -67 -13.5t-67 -33.5l-41 92q44 27 88.5 42t105.5 15q45 0 79.5 -13t57.5 -36t34.5 -53.5t11.5 -66.5q0 -35 -8 -63t-21 -50.5t-29.5 -42
t-33.5 -37.5l-29 -32t-25 -36t-17.5 -44.5t-6.5 -57.5h-96zM110 61q0 34 19.5 53t51.5 19q34 0 53.5 -19t19.5 -53q0 -32 -19.5 -52t-53.5 -20q-32 0 -51.5 20t-19.5 52z" />
    <glyph glyph-name="at" unicode="@" horiz-adv-x="1064" 
d="M667 492h61l-51 -288q-9 -50 -9 -73q0 -26 17 -26q28 0 55.5 15t49 43t35 68t13.5 89q0 66 -23 117.5t-64 87t-97.5 53.5t-124.5 18q-72 0 -134.5 -26.5t-109 -73t-73 -111.5t-26.5 -141q0 -78 24.5 -139.5t69 -103.5t107 -64t138.5 -22q26 0 61.5 8t73.5 26l29 -96
q-26 -11 -48.5 -18.5t-43.5 -12t-41.5 -6t-41.5 -1.5q-90 0 -169 27t-137.5 80.5t-92 132t-33.5 182.5q0 105 36 190t98 145t144 92t174 32q87 0 161.5 -25.5t129.5 -74t86.5 -118.5t31.5 -158q0 -63 -22 -120.5t-59 -101t-87 -69t-105 -25.5q-45 0 -72 17t-32 63
q-29 -32 -67 -56t-82 -24q-26 0 -49.5 11t-41 32t-28 50t-10.5 65q0 63 21 123.5t56.5 108t82.5 76t100 28.5q33 0 54.5 -8.5t39.5 -20.5zM601 378q-11 12 -22.5 15t-28.5 3q-32 0 -60 -20t-48.5 -52t-32.5 -71.5t-12 -78.5q0 -29 11 -48.5t39 -19.5q16 0 33.5 11t34.5 29.5
t32.5 42t28.5 48.5z" />
    <glyph glyph-name="A" unicode="A" horiz-adv-x="585" 
d="M390 184h-217q-15 -45 -33 -93l-34 -91h-118l267 715l61 -6l265 -709h-123zM211 289h141l-32 88.5l-32 87.5l-6 17l-3.5 -9t-2.5 -9z" />
    <glyph glyph-name="B" unicode="B" horiz-adv-x="584" 
d="M507 530q0 -44 -20.5 -85.5t-64.5 -67.5q49 -17 84 -58.5t35 -111.5q0 -56 -22.5 -97t-60 -67t-85.5 -38.5t-98 -12.5q-14 0 -39 0.5t-54.5 2t-59.5 5t-52 9.5v682q42 8 94 12.5t107 4.5q40 0 81.5 -7t76 -26.5t56.5 -54.5t22 -90zM283 98q27 0 52 6t43.5 19t30 32.5
t11.5 45.5q0 33 -14 53t-36.5 31.5t-50 15.5t-55.5 4h-78v-203q7 -1 15.5 -0.5t16.5 -0.5q2 0 4.5 -0.5t4.5 -0.5q14 -1 29.5 -1.5t26.5 -0.5zM288 411l1 1h1zM217 409q15 0 36.5 0.5t35.5 2.5q39 14 68 39t29 63q0 25 -10.5 42t-27.5 27.5t-39 14.5t-45 4q-24 0 -43.5 -0.5
t-34.5 -2.5v-190h31z" />
    <glyph glyph-name="C" unicode="C" horiz-adv-x="571" 
d="M563 61q-36 -26 -65.5 -42.5t-53.5 -21.5q-22 -5 -45.5 -6.5t-50.5 -1.5q-63 0 -118.5 21t-97.5 65.5t-66 112.5t-24 162q0 97 27 165.5t70.5 112t98.5 63.5t111 20q61 0 96 -6q19 -3 46.5 -10.5t62.5 -21.5l-62 -96q-28 13 -62 20t-75 7q-36 0 -70 -13.5t-61 -43.5
t-43.5 -78.5t-16.5 -118.5q0 -63 15.5 -111t42.5 -79.5t64 -47.5t80 -16q40 0 72.5 10t58.5 26z" />
    <glyph glyph-name="D" unicode="D" horiz-adv-x="654" 
d="M58 698q42 4 68.5 6t49.5 2h5q22 1 45 1.5t40 0.5q84 0 146 -26t102.5 -72.5t60 -111.5t19.5 -143q0 -71 -18.5 -136.5t-59 -116t-104.5 -81t-155 -30.5q-17 0 -43 1l-54.5 2t-55.5 2.5t-46 3.5v698zM268 600h-27t-29 -1q-4 0 -9 -0.5t-10 -1.5q-4 -1 -9 -1h-9v-494h12.5
t11.5 -1q5 0 7.5 -0.5t6.5 -0.5q10 0 18 -0.5t15 -0.5h13q61 0 102 21.5t66 57t35.5 81.5t10.5 96q0 43 -9.5 86.5t-33 78.5t-63 57.5t-99.5 22.5z" />
    <glyph glyph-name="E" unicode="E" horiz-adv-x="536" 
d="M69 700h398v-108h-282v-179h254v-107h-254v-198h287v-108h-403v700z" />
    <glyph glyph-name="F" unicode="F" horiz-adv-x="517" 
d="M69 700h398v-108h-282v-188h259v-108h-259v-296h-116v700z" />
    <glyph glyph-name="G" unicode="G" horiz-adv-x="612" 
d="M293 368h260v-366q-14 -3 -22 -4t-13 -0.5t-8.5 1.5t-7.5 2q-11 2 -23 3.5t-22 -1.5q-26 -8 -52.5 -11t-52.5 -3q-68 0 -124.5 21.5t-98 65.5t-64.5 112.5t-23 161.5q0 97 28.5 165.5t73.5 112t101.5 63.5t112.5 20q59 0 101.5 -8t77.5 -23l-30 -106q-31 14 -66.5 22
t-75.5 8q-36 0 -72 -13t-65 -43t-47 -78.5t-18 -119.5q0 -65 15 -112.5t41.5 -79t63.5 -47t81 -15.5q47 0 84 17v153q-37 -1 -79 -1t-76 -1v104z" />
    <glyph glyph-name="H" unicode="H" horiz-adv-x="672" 
d="M467 304h-280v-304h-116v700h116v-289h280v289h116v-700h-116v304z" />
    <glyph glyph-name="I" unicode="I" horiz-adv-x="291" 
d="M83 700h117v-700h-117v700z" />
    <glyph glyph-name="J" unicode="J" horiz-adv-x="403" 
d="M50 700h264v-535q0 -86 -38 -130t-116 -44q-9 0 -22 0.5t-27 2.5q-18 1 -48 19q-31 20 -61 133l116 9q15 -57 33 -57q29 0 37.5 23t8.5 63v408q-35 0 -74.5 1t-72.5 1v106z" />
    <glyph glyph-name="K" unicode="K" horiz-adv-x="610" 
d="M203 306h-16v-306h-116v700h116v-295h14l111.5 147.5l111.5 147.5h140l-268 -336q3 -3 5.5 -6.5t5.5 -6.5l287 -351h-150z" />
    <glyph glyph-name="L" unicode="L" horiz-adv-x="517" 
d="M499 0h-430v700h117v-592h313v-108z" />
    <glyph glyph-name="M" unicode="M" horiz-adv-x="791" 
d="M581 455l-174 -301h-44l-179 294v-448h-112v700h88l214 -349l15 -34q4 9 6.5 17t5.5 16l206 350h90v-700h-116v455z" />
    <glyph glyph-name="N" unicode="N" horiz-adv-x="673" 
d="M190 446l-9 15q0 -2 0.5 -3.5t0.5 -3.5v-454h-111v710h70l324 -451l8 -14v3v452h111v-710h-70z" />
    <glyph glyph-name="O" unicode="O" horiz-adv-x="684" 
d="M43 350q0 176 74.5 268.5t214.5 92.5q75 0 129.5 -26t90 -73t53 -113.5t17.5 -148.5q0 -176 -75 -268.5t-215 -92.5q-74 0 -128.5 25.5t-90 73t-53 114t-17.5 148.5zM164 350q0 -51 10 -97t30.5 -81t52 -55.5t75.5 -20.5q80 0 124.5 62t44.5 192q0 50 -10 96t-30.5 81
t-52.5 56t-76 21q-79 0 -123.5 -62t-44.5 -192z" />
    <glyph glyph-name="P" unicode="P" horiz-adv-x="559" 
d="M70 689q48 11 93 15t85 4q47 0 95.5 -9.5t88 -34.5t64.5 -68.5t25 -110.5q0 -66 -23.5 -111.5t-62 -73t-88 -40t-102.5 -12.5q-11 0 -29.5 -0.5t-29.5 1.5v-249h-116v689zM250 602h-35t-29 -2v-243q11 -1 25.5 -1h23.5h6q29 0 57.5 5t51 19.5t36.5 39.5t14 65
q0 33 -13.5 55.5t-34.5 36t-48 19.5t-54 6z" />
    <glyph glyph-name="Q" unicode="Q" horiz-adv-x="684" 
d="M508 -69l-72.5 20.5l-49.5 13.5q-35 9 -69 9q-11 0 -25.5 -3t-37.5 -9v110q39 9 70 9q42 0 82.5 -10.5l82.5 -22.5h-1q58 -15 44 -102zM43 350q0 176 74.5 268.5t214.5 92.5q75 0 129.5 -26t90 -73t53 -113.5t17.5 -148.5q0 -176 -75 -268.5t-215 -92.5
q-74 0 -128.5 25.5t-90 73t-53 114t-17.5 148.5zM164 350q0 -51 10 -97t30.5 -81t52 -55.5t75.5 -20.5q80 0 124.5 62t44.5 192q0 50 -10 96t-30.5 81t-52.5 56t-76 21q-79 0 -123.5 -62t-44.5 -192z" />
    <glyph glyph-name="R" unicode="R" horiz-adv-x="595" 
d="M70 691q44 8 95.5 12.5t92.5 4.5q47 0 89.5 -10.5t75 -34.5t52 -62.5t19.5 -94.5q0 -37 -10.5 -68.5t-29.5 -56.5t-44 -43t-54 -27l52.5 -76l55.5 -80.5l55 -80l51 -74.5h-136l-208 298q-9 1 -18 1.5t-21 0.5v-300h-117v691zM260 602h-39.5t-33.5 -2v-210h55
q57 0 94 27.5t37 85.5q0 43 -29.5 71t-83.5 28z" />
    <glyph glyph-name="S" unicode="S" horiz-adv-x="531" 
d="M367 187q0 22 -10.5 39.5t-28.5 31.5t-41 25.5t-48 22.5l-68 33.5t-61.5 42.5t-44.5 59t-17 83q0 87 58.5 137t167.5 50q60 0 113 -11t88 -28l-35 -105q-28 14 -73.5 25.5t-96.5 11.5q-54 0 -80 -22.5t-26 -52.5q0 -21 11 -37t29 -30t41 -26l48 -24q33 -16 67 -35
t61.5 -44.5t45 -59t17.5 -79.5q0 -47 -16.5 -84.5t-48 -64.5t-77 -41.5t-102.5 -14.5q-75 0 -128 13.5t-85 30.5l40 108q28 -15 73.5 -30t96.5 -15q55 0 92.5 22t37.5 69z" />
    <glyph glyph-name="T" unicode="T" horiz-adv-x="555" 
d="M534 592h-206v-592h-116v592h-206v108h528v-108z" />
    <glyph glyph-name="U" unicode="U" horiz-adv-x="652" 
d="M451 700h113v-461q0 -65 -17 -112t-48.5 -77t-75 -44.5t-97.5 -14.5q-256 0 -256 233v476h117v-439q0 -89 34.5 -125.5t105.5 -36.5q67 0 95.5 37.5t28.5 124.5v439z" />
    <glyph glyph-name="V" unicode="V" horiz-adv-x="568" 
d="M282 217l87 242l86 241h119l-265 -710h-61l-270 710h127z" />
    <glyph glyph-name="W" unicode="W" horiz-adv-x="828" 
d="M238 246l69 227.5l68 226.5h67l141 -446l56.5 223.5l56.5 222.5h115l-194 -710h-72l-138 477l-71 -239l-70 -238h-72l-200 710h122z" />
    <glyph glyph-name="X" unicode="X" horiz-adv-x="618" 
d="M231 356l-52.5 84l-55 89l-54.5 88.5l-51 82.5h139l140 -234q4 -8 4 -7.5t6 -9.5l76 126l76 125h132l-220 -338l56 -88l59 -93l59 -93l55 -88h-137l-157 271l-7.5 -12l-8.5 -13l-159 -246h-133z" />
    <glyph glyph-name="Y" unicode="Y" horiz-adv-x="558" 
d="M215 275l-57 103.5l-60 109.5l-59.5 109l-56.5 103h137l159 -323l78 162l76 161h129l-230 -423v-277h-116v275z" />
    <glyph glyph-name="Z" unicode="Z" 
d="M24 96l338 496h-338v108h483v-96l-340 -496h340v-108h-483v96z" />
    <glyph glyph-name="bracketleft" unicode="[" horiz-adv-x="304" 
d="M67 685h204v-102h-95v-694h95v-102h-204v898z" />
    <glyph glyph-name="backslash" unicode="\" horiz-adv-x="380" 
d="M401 -94l-95 -41l-359 797l97 40z" />
    <glyph glyph-name="bracketright" unicode="]" horiz-adv-x="304" 
d="M227 -213h-206v102h97v694h-97v102h206v-898z" />
    <glyph glyph-name="asciicircum" unicode="^" horiz-adv-x="500" 
d="M215 695h48l178 -292h-118l-82 137l-6 20q-3 -6 -6 -13t-5 -13l-90 -131h-116z" />
    <glyph glyph-name="underscore" unicode="_" horiz-adv-x="408" 
d="M-11 -88h415v-102h-415v102z" />
    <glyph glyph-name="grave" unicode="`" horiz-adv-x="280" 
d="M237 529h-78l-117 130v45h119z" />
    <glyph glyph-name="a" unicode="a" horiz-adv-x="496" 
d="M50 455q45 27 97 39.5t106 12.5t86.5 -15t50 -38t23 -51.5t5.5 -56.5q0 -29 -0.5 -57.5t-1.5 -56.5l-2 -47.5t-1 -46.5q0 -32 3 -69q0 -23 42 -37l-5 -34h-114l-15 48q-16 -16 -38 -29q-19 -10 -51 -17t-64 -7q-33 0 -62 10.5t-50 30t-33 47t-12 62.5q0 48 35 95
q39 50 102 57q29 4 59.5 6t63.5 2h10q5 0 7.5 0.5t4.5 0.5h4.5t7.5 -1q1 8 1 15v14q0 41 -16 57.5t-60 16.5q-15 0 -33.5 -3t-38.5 -8t-39 -12.5t-35 -16.5zM191 94q23 0 47 6t37 15q11 8 18.5 18.5t12.5 18.5v56q-9 1 -17 1h-17q-41 0 -83 -3q-17 -1 -29 -6.5t-19 -13.5
q-13 -19 -13 -36q0 -24 17.5 -40t45.5 -16z" />
    <glyph glyph-name="b" unicode="b" horiz-adv-x="540" 
d="M63 685h111v-209q23 17 51.5 26t60.5 9q99 0 148.5 -61.5t49.5 -192.5t-63.5 -198t-181.5 -67q-54 0 -102 13t-74 30v650zM273 409q-39 0 -63 -20.5t-36 -60.5v-222q15 -6 35.5 -9t40.5 -3q55 0 87.5 39.5t32.5 124.5q0 33 -5.5 60.5t-17 47.5t-30 31.5t-44.5 11.5z" />
    <glyph glyph-name="c" unicode="c" horiz-adv-x="451" 
d="M451 76q-73 -64 -116 -75h1q-41 -12 -85 -12q-59 0 -99.5 18.5t-66.5 53t-37.5 82.5t-11.5 107q0 128 56.5 194.5t163.5 66.5q23 0 43 -2t35 -5q17 -4 44 -15.5t66 -31.5l-74 -79q-27 14 -54 22.5t-53 8.5q-113 0 -113 -159q0 -31 6 -60t20 -51t37 -35t57 -13q29 0 55 11
t46 27z" />
    <glyph glyph-name="d" unicode="d" horiz-adv-x="538" 
d="M455 163v-38.5t1.5 -38t4.5 -41t8 -47.5h-87l-13 46q-23 -25 -56.5 -40t-75.5 -15q-103 0 -151.5 62t-48.5 197q0 129 61 194.5t167 65.5q26 0 44.5 -1.5t34.5 -6.5v185h111v-522zM250 91q76 0 94 84v217q-14 8 -31 11t-45 3q-55 0 -86.5 -37.5t-31.5 -120.5q0 -34 5 -63
t17 -50t31 -32.5t47 -11.5z" />
    <glyph glyph-name="e" unicode="e" horiz-adv-x="508" 
d="M442 44q-36 -29 -84 -45.5t-99 -16.5q-57 0 -99.5 19.5t-70.5 54.5q-26 35 -41 98q-12 58 -12 88q0 128 57.5 194.5t164.5 66.5q35 0 70 -7.5t62.5 -29.5t45 -61t17.5 -103q0 -15 -2 -36t-6 -50h-293q1 -7 2.5 -16t3.5 -19q7 -39 23 -59q30 -38 100 -38q14 0 30 4
t31.5 10.5t29.5 15.5t24 18zM259 401q-42 0 -69 -20.5t-36 -69.5h189q-4 50 -25.5 70t-58.5 20z" />
    <glyph glyph-name="f" unicode="f" horiz-adv-x="319" 
d="M9 491h72v16q0 96 33.5 140t117.5 44q32 0 59.5 -5.5t62.5 -19.5l-27 -98q-31 13 -51.5 17t-36.5 4q-17 0 -26.5 -5.5t-13.5 -13.5q-5 -11 -6 -30t-1 -49h123v-102h-123v-389h-111v389h-72v102z" />
    <glyph glyph-name="g" unicode="g" horiz-adv-x="537" 
d="M454 -3q0 -100 -52.5 -146.5t-155.5 -46.5q-57 0 -96.5 9.5t-72.5 23.5l31 98q28 -11 57.5 -20t67.5 -9q33 0 54.5 6t34 19.5t17.5 35t5 52.5v2q-40 -31 -108 -31q-104 0 -152 62.5t-48 195.5q0 129 61 194.5t181 65.5q55 0 97.5 -9.5t78.5 -23.5v-478zM249 92
q75 0 94 82v221q-16 7 -34.5 9t-41.5 2q-55 0 -86 -38t-31 -119q0 -70 22.5 -113.5t76.5 -43.5z" />
    <glyph glyph-name="h" unicode="h" horiz-adv-x="547" 
d="M360 0v282q0 64 -15.5 95.5t-64.5 31.5q-36 0 -65.5 -23.5t-40.5 -59.5v-326h-111v685h111v-216q24 20 54.5 31t72.5 11q44 0 76 -9.5t53 -34t31 -65.5t10 -104v-298h-111z" />
    <glyph glyph-name="i" unicode="i" horiz-adv-x="268" 
d="M74 500h111v-500h-111v500zM58 622q0 33 65 71q20 0 39 -18t41 -53q-44 -67 -81 -67q-64 34 -64 67z" />
    <glyph glyph-name="j" unicode="j" horiz-adv-x="292" 
d="M95 500h111v-506q0 -96 -34 -143t-109 -47h-9t-8 1q-7 0 -23.5 0.5t-31.5 0.5v100q67 0 77 6q10 4 16 16q7 14 9 37.5t2 55.5v479zM79 622q0 33 65 71q37 0 81 -71q-23 -33 -41 -50t-35 -17q-33 0 -67 58z" />
    <glyph glyph-name="k" unicode="k" horiz-adv-x="479" 
d="M188 208h-14v-208h-111v685h111v-393h11l71 103.5l71 104.5h135l-194 -234l53 -64.5l56 -69l55.5 -68.5l51.5 -64h-140z" />
    <glyph glyph-name="l" unicode="l" horiz-adv-x="292" 
d="M179 132q0 -23 6.5 -32t17.5 -9t28 3t45 13l13 -93q-22 -12 -54 -18.5t-53 -6.5q-51 0 -82.5 28t-31.5 94v574h111v-553z" />
    <glyph glyph-name="m" unicode="m" horiz-adv-x="812" 
d="M339 0v281q0 64 -12.5 96t-55.5 32q-35 0 -58.5 -20.5t-33.5 -52.5v-336h-111v500h101l1 -34q23 21 54 33t75 12q43 0 72.5 -13.5t48.5 -45.5q51 59 140 59q43 0 74 -9.5t50.5 -34t28.5 -66t9 -105.5v-296h-111v297q0 57 -13.5 84.5t-56.5 27.5q-38 0 -59.5 -20.5
t-31.5 -61.5v-327h-111z" />
    <glyph glyph-name="n" unicode="n" horiz-adv-x="547" 
d="M360 0v282q0 64 -16.5 95.5t-61.5 31.5q-42 0 -69 -21t-39 -55v-333h-111v500h101l1 -33q24 20 58 32t77 12q42 0 74 -9.5t53.5 -34t32.5 -65.5t11 -104v-298h-111z" />
    <glyph glyph-name="o" unicode="o" horiz-adv-x="536" 
d="M37 250q0 128 56.5 194.5t164.5 66.5q57 0 98.5 -18.5t69 -53t40.5 -82.5t13 -107q0 -128 -56.5 -194.5t-164.5 -66.5q-57 0 -98.5 18.5t-69 53t-40.5 82.5t-13 107zM151 250q0 -32 5.5 -60.5t18.5 -50.5t33.5 -35t49.5 -13q107 -1 107 159q0 32 -6 61t-18.5 50.5
t-33 34.5t-49.5 13q-107 1 -107 -159z" />
    <glyph glyph-name="p" unicode="p" horiz-adv-x="541" 
d="M63 500h102v-30q47 41 118 41q101 0 151.5 -59t50.5 -193q0 -62 -16.5 -112t-47 -85t-73.5 -54t-95 -19q-26 0 -44 2t-35 7v-183h-111v685zM269 409q-77 0 -95 -84v-217q14 -9 30.5 -13t45.5 -4q56 0 88.5 42.5t32.5 126.5q0 68 -23 108.5t-79 40.5z" />
    <glyph glyph-name="q" unicode="q" horiz-adv-x="537" 
d="M455 -80h72v-105h-183v205q-20 -15 -45.5 -23t-60.5 -8q-103 0 -151.5 62.5t-48.5 196.5q0 129 61.5 194.5t181.5 65.5q52 0 100.5 -11t73.5 -25v-552zM251 91q39 0 61 20.5t32 62.5v222q-14 7 -32.5 8.5t-43.5 1.5q-55 0 -85.5 -38t-30.5 -119q0 -35 5 -64t17 -50
t31 -32.5t46 -11.5z" />
    <glyph glyph-name="r" unicode="r" horiz-adv-x="340" 
d="M311 385q-45 16 -66 16q-31 0 -50 -16.5t-24 -41.5v-343h-111v500h104l-1 -24q17 16 39 24.5t51 8.5q14 0 34.5 -3.5t47.5 -11.5z" />
    <glyph glyph-name="s" unicode="s" horiz-adv-x="421" 
d="M264 144q0 14 -7 24t-18.5 17.5t-26.5 13.5l-31 12q-24 9 -49 20t-45.5 28.5t-33 42.5t-12.5 62q0 77 42.5 112t119.5 35q52 0 92 -11t72 -27l-27 -97q-28 14 -61.5 23.5t-66.5 9.5q-31 0 -45.5 -10t-14.5 -33q0 -20 22.5 -32.5t53.5 -24.5q25 -9 51.5 -20.5t47.5 -29.5
t34.5 -45t13.5 -67q0 -34 -11 -63t-33.5 -50t-56 -33t-78.5 -12q-57 0 -100 13t-75 31l35 98q27 -14 64.5 -27t70.5 -13q32 0 52.5 11.5t20.5 41.5z" />
    <glyph glyph-name="t" unicode="t" horiz-adv-x="339" 
d="M-2 500h60q8 26 16 56t16 55l91 2v-113h126v-102h-126v-238q0 -38 8 -53.5t27 -15.5q21 0 41.5 7t47.5 18l27 -92q-32 -15 -67.5 -25t-72.5 -10q-67 0 -94.5 36t-27.5 121v252h-72v102z" />
    <glyph glyph-name="u" unicode="u" horiz-adv-x="539" 
d="M168 500v-282q0 -64 14.5 -95.5t57.5 -31.5q41 0 67 24.5t39 59.5v325h111v-350q0 -17 0.5 -33.5t1.5 -35.5q2 -14 17.5 -34.5t47.5 -46.5h-158l-3 45q-23 -25 -57 -40.5t-80 -15.5q-42 0 -73.5 9.5t-52.5 34t-32 65.5t-11 104v298h111z" />
    <glyph glyph-name="v" unicode="v" horiz-adv-x="482" 
d="M239 178l58.5 162l56.5 160h121l-213 -510h-56l-217 510h126z" />
    <glyph glyph-name="w" unicode="w" horiz-adv-x="735" 
d="M398 500l117 -318l44 160.5l43 157.5h111l-169 -510h-62l-128 344l-30 -84l-32 -89l-31.5 -88.5l-29.5 -82.5h-62l-174 510h120l96 -318l54 160.5l53 157.5h80z" />
    <glyph glyph-name="x" unicode="x" horiz-adv-x="515" 
d="M180 256l-41.5 59l-43 63l-43 63.5l-40.5 58.5h135l104 -164l53.5 83l53.5 81h128l-170 -241l43 -62.5l46.5 -67.5l46.5 -67l43 -62h-133l-115 181l-60 -92l-59 -89h-129z" />
    <glyph glyph-name="y" unicode="y" horiz-adv-x="466" 
d="M243 146l50 178l50 176h115l-146 -441l-32 -92.5t-36 -79.5t-46.5 -56t-62.5 -21q-41 0 -103 46l54 67q10 -3 17.5 -5t12.5 -2q19 0 37.5 23t32.5 78l-97 241.5l-97 241.5h126z" />
    <glyph glyph-name="z" unicode="z" horiz-adv-x="447" 
d="M29 89l217 300l9 9h-226v102h366v-89l-219 -303l-7 -6h226v-102h-366v89z" />
    <glyph glyph-name="braceleft" unicode="{" horiz-adv-x="346" 
d="M115 122q0 37 -19.5 50t-54.5 13v102q35 0 54.5 14t19.5 45v224q0 53 26.5 84.5t80.5 31.5h97v-102h-65q-15 0 -22 -8t-7 -28v-219q0 -35 -12 -57t-31 -35q19 -14 31 -38t12 -55v-219q0 -19 6.5 -27.5t23.5 -8.5h64v-102h-97q-51 0 -79 29t-28 86v220z" />
    <glyph glyph-name="bar" unicode="|" horiz-adv-x="238" 
d="M65 685h100v-805h-100v805z" />
    <glyph glyph-name="braceright" unicode="}" horiz-adv-x="346" 
d="M243 351q0 -37 19.5 -50t54.5 -13v-102q-35 0 -54.5 -13.5t-19.5 -45.5v-224q0 -53 -26.5 -84.5t-80.5 -31.5h-97v102h65q15 0 22.5 8t7.5 28v219q0 35 11 57t30 34q-18 14 -29.5 38.5t-11.5 56.5v218q0 36 -30 36h-65v102h98q51 0 78.5 -29t27.5 -86v-220z" />
    <glyph glyph-name="asciitilde" unicode="~" horiz-adv-x="505" 
d="M14 357q51 38 88.5 53.5t67.5 15.5q29 0 53.5 -9.5t47.5 -20.5q18 -8 35.5 -14.5t34.5 -6.5q14 0 33 9.5t48 34.5l50 -90q-47 -32 -80.5 -45t-58.5 -13q-29 0 -52 9t-44 20q-17 8 -33.5 15t-34.5 7t-42.5 -12t-61.5 -41z" />
    <glyph glyph-name="uni00A0" unicode="&#xa0;" horiz-adv-x="267" 
 />
    <glyph glyph-name="exclamdown" unicode="&#xa1;" horiz-adv-x="304" 
d="M186 -185h-114v341l18 180h79l17 -180v-341zM55 438q0 33 19.5 52.5t51.5 19.5q34 0 53.5 -19.5t19.5 -52.5t-19.5 -52.5t-53.5 -19.5q-32 0 -51.5 19.5t-19.5 52.5z" />
    <glyph glyph-name="cent" unicode="&#xa2;" 
d="M460 43q-29 -20 -57 -32.5t-59 -16.5v-87h-102v86q-47 7 -79 28t-52.5 54t-29.5 77t-9 98q0 109 44 174t126 82v87h102v-85q29 -3 56 -11.5t51 -21.5l-32 -98q-22 10 -43 18t-38 11v-312q21 5 43 16.5t39 23.5zM186 250q0 -24 3 -47t10.5 -42.5t20 -34.5t31.5 -24v298
q-65 -29 -65 -150z" />
    <glyph glyph-name="sterling" unicode="&#xa3;" 
d="M30 392h52q-8 22 -12.5 46t-4.5 56q0 100 57 151t155 51q60 0 107.5 -10.5t82.5 -28.5l-36 -101q-27 14 -66.5 24.5t-88.5 10.5q-47 0 -72 -25t-25 -68q0 -32 6.5 -57.5t17.5 -48.5h157v-102h-114q5 -17 7 -35.5t2 -41.5q0 -28 -7.5 -56.5t-23.5 -50.5h256v-106h-450v104
q29 0 50 9t34.5 23.5t20 32.5t6.5 37q0 25 -4 45t-11 39h-96v102z" />
    <glyph glyph-name="currency" unicode="&#xa4;" 
d="M75 596l88 -87l9 -15q39 22 90 22q24 0 47.5 -6t42.5 -16q3 7 10 15l88 87l71 -71l-87 -88l-17 -10q23 -40 23 -89t-22 -89q6 -3 8.5 -5t7.5 -5l87 -88l-71 -70l-88 87l-9 14q-39 -21 -91 -21q-53 0 -90 21l-4.5 -7l-4.5 -7l-88 -87l-71 70l87 88l15 10q-21 39 -21 89
t21 89q-4 3 -7.5 5t-7.5 5l-87 88zM186 338q0 -34 21 -56.5t55 -22.5q33 0 55 22.5t22 56.5t-22 57t-55 23q-34 0 -55 -23t-21 -57z" />
    <glyph glyph-name="yen" unicode="&#xa5;" 
d="M94 341h74l-46 85l-48.5 88.5l-48 88l-45.5 82.5h133l156 -292l1 1l151 291h125l-188 -344h74v-93h-112v-21h112v-93h-112v-134h-114v134h-112v93h112v21h-112v93z" />
    <glyph glyph-name="brokenbar" unicode="&#xa6;" horiz-adv-x="238" 
d="M65 228h100v-348h-100v348zM165 337h-100v348h100v-348z" />
    <glyph glyph-name="section" unicode="&#xa7;" horiz-adv-x="497" 
d="M43 345q0 33 17 64.5t45 57.5l9 2q-16 15 -26 38t-10 54q0 61 43 98t121 37q52 0 92.5 -10.5t72.5 -26.5l-27 -98q-28 14 -62.5 23.5t-65.5 9.5q-63 0 -63 -36q0 -10 7 -17.5t19 -13.5t27 -11.5l31 -11.5q27 -9 55.5 -21t52 -31t39 -46t15.5 -66q0 -33 -15.5 -63
t-42.5 -55l-13 -5q18 -17 27.5 -38.5t9.5 -54.5t-12.5 -58.5t-35 -42.5t-52.5 -25.5t-65 -8.5q-55 0 -94 11t-72 28l29 96q28 -14 61 -23.5t67 -9.5q30 0 46.5 8t16.5 28q0 11 -7 19t-19 14.5t-27.5 12t-31.5 10.5q-27 9 -55.5 21t-52 31t-39 45.5t-15.5 64.5zM324 338
q0 14 -7.5 24.5t-20.5 19t-30 14.5t-36 12q-6 2 -11.5 4.5t-13.5 5.5q-20 -11 -35 -29t-15 -42q0 -14 7.5 -24t20 -18t28.5 -14l33 -12q7 -2 14 -5t13 -5q20 11 36.5 29.5t16.5 39.5z" />
    <glyph glyph-name="dieresis" unicode="&#xa8;" horiz-adv-x="411" 
d="M45 623q0 30 17.5 48t46.5 18q28 0 45.5 -18t17.5 -48q0 -27 -17.5 -45.5t-45.5 -18.5q-29 0 -46.5 18.5t-17.5 45.5zM222 623q0 30 17.5 48t46.5 18q30 0 47.5 -18t17.5 -48q0 -27 -17.5 -45.5t-47.5 -18.5q-29 0 -46.5 18.5t-17.5 45.5z" />
    <glyph glyph-name="copyright" unicode="&#xa9;" horiz-adv-x="806" 
d="M44 287q0 81 27.5 145t74 108.5t109 67.5t133.5 23q70 0 133 -23t110 -67.5t74.5 -108.5t27.5 -145t-27.5 -145t-74.5 -108.5t-110 -67.5t-133 -23q-78 0 -141.5 23t-108.5 67.5t-69.5 108.5t-24.5 145zM145 287q0 -59 19 -105t52 -77.5t77 -47.5t95 -16t95 16t77 47.5
t52 77.5t19 105t-19 105t-52 77.5t-77 47.5t-95 16t-95 -16t-77 -47.5t-52 -77.5t-19 -105zM519 127q-29 -16 -61.5 -25t-71.5 -9q-85 0 -128.5 52t-43.5 142q0 94 47 144t125 50q35 0 56 -6.5t47 -17.5l-2 1l27 -9l-39 -93q-29 14 -49 19.5t-31 5.5q-31 0 -50.5 -20.5
t-19.5 -73.5q0 -92 77 -94q40 0 84 25z" />
    <glyph glyph-name="ordfeminine" unicode="&#xaa;" horiz-adv-x="386" 
d="M48 655q31 16 75 27t93 11q67 0 92.5 -29t25.5 -83q0 -19 -0.5 -37t-1.5 -35q-1 -15 -1 -29.5v-28.5q0 -22 2.5 -45.5t10.5 -53.5h-89l-7 27q-14 -13 -36.5 -22t-54.5 -9q-57 0 -90.5 28.5t-33.5 78.5q0 33 15 56.5t41.5 37.5t62 20.5t76.5 6.5q1 0 3 -0.5t4 -0.5v2
q0 14 -7.5 20.5t-27.5 6.5q-35 0 -69.5 -9.5t-57.5 -22.5zM167 437q29 0 44.5 11.5t22.5 23.5v19h-20q-32 0 -55.5 -6t-23.5 -26q0 -22 32 -22z" />
    <glyph glyph-name="guillemotleft" unicode="&#xab;" horiz-adv-x="478" 
d="M191 258l166 238l78 -62l-102 -151l-27 -24q6 -5 13.5 -10t13.5 -10l107 -146l-76 -64zM23 257l166 240l79 -62l-103 -152l-26 -24q6 -5 13 -10t13 -10l110 -148l-80 -63z" />
    <glyph glyph-name="logicalnot" unicode="&#xac;" horiz-adv-x="505" 
d="M29 400h429v-215h-103v111h-326v104z" />
    <glyph glyph-name="uni00AD" unicode="&#xad;" horiz-adv-x="360" 
d="M43 338h261v-106h-261v106z" />
    <glyph glyph-name="registered" unicode="&#xae;" horiz-adv-x="700" 
d="M73 436q0 64 21 113t57 82.5t84 51t102 17.5q55 0 103 -17.5t84 -51t56.5 -82.5t20.5 -113t-21 -113t-57 -82.5t-84 -51t-102 -17.5q-55 0 -103 17.5t-84 51t-56.5 82.5t-20.5 113zM169 436q0 -44 13.5 -76t36 -53.5t53 -32t65.5 -10.5q36 0 67 10.5t53.5 31.5t35.5 53.5
t13 76.5q0 43 -13.5 75.5t-36.5 54t-53.5 32t-65.5 10.5q-36 0 -67 -10.5t-53.5 -32t-35 -54t-12.5 -75.5zM223 569q24 8 55 11.5t56 3.5q23 0 43.5 -5t36 -15.5t24.5 -27.5t9 -42q0 -26 -11 -43t-30 -27l87 -126h-101l-69 98q-5 2 -5 2.5t-10 3.5v-104h-85v271zM324 506
q-5 0 -7 0.5t-3 0.5h-2t-4 -1v-33h13q38 0 38 19q0 14 -35 14z" />
    <glyph glyph-name="macron" unicode="&#xaf;" horiz-adv-x="416" 
d="M45 632h311v-94h-311v94z" />
    <glyph glyph-name="degree" unicode="&#xb0;" horiz-adv-x="425" 
d="M69 547q0 33 11.5 60.5t32 47t47.5 30.5t58 11t58 -10t47 -29.5t32 -47t12 -62.5t-12 -62.5t-32 -46.5t-47 -29.5t-58 -10.5t-58 10.5t-47.5 29.5t-32 46.5t-11.5 62.5zM164 547q0 -26 16.5 -41t37.5 -15q20 0 36.5 15t16.5 41t-16.5 41.5t-36.5 15.5q-21 0 -37.5 -15.5
t-16.5 -41.5z" />
    <glyph glyph-name="plusminus" unicode="&#xb1;" horiz-adv-x="505" 
d="M28 494h163v167h104v-167h162v-103h-162v-112h-104v112h-163v103zM28 269h429v-104h-429v104z" />
    <glyph glyph-name="uni00B2" unicode="&#xb2;" horiz-adv-x="394" 
d="M321 693q0 -58 -33 -108.5t-81 -101.5h133v-96h-307v58l53 47t61.5 62.5t50.5 68t21 62.5q0 20 -12.5 29.5t-32.5 9.5q-21 0 -48.5 -12t-50.5 -27l-34 88q33 22 71 34.5t73 12.5q68 0 102 -33.5t34 -93.5z" />
    <glyph glyph-name="uni00B3" unicode="&#xb3;" horiz-adv-x="395" 
d="M164 474q73 0 73 50q0 22 -16.5 35.5t-54.5 13.5h-70v46l85 102h-129v92h274v-55l-91 -108q48 -8 76 -41.5t28 -84.5q0 -65 -46 -104t-124 -39q-35 0 -65.5 8t-56.5 16l24 94q24 -11 47.5 -18t45.5 -7z" />
    <glyph glyph-name="acute" unicode="&#xb4;" horiz-adv-x="268" 
d="M102 704h114v-45l-103 -130h-80z" />
    <glyph glyph-name="mu" unicode="&#xb5;" horiz-adv-x="552" 
d="M183 500v-279q0 -50 13 -75t45 -25t55.5 18t34.5 49v312h139v-325q0 -35 4.5 -76.5t18.5 -98.5h-116l-14 33q-23 -20 -56 -31.5t-74 -11.5q-17 0 -29 1t-23 4q1 -2 1 -5t1 -5v-156h-140v671h140z" />
    <glyph glyph-name="mu" unicode="&#x3bc;" horiz-adv-x="552" 
d="M183 500v-279q0 -50 13 -75t45 -25t55.5 18t34.5 49v312h139v-325q0 -35 4.5 -76.5t18.5 -98.5h-116l-14 33q-23 -20 -56 -31.5t-74 -11.5q-17 0 -29 1t-23 4q1 -2 1 -5t1 -5v-156h-140v671h140z" />
    <glyph glyph-name="paragraph" unicode="&#xb6;" horiz-adv-x="494" 
d="M305 685h100v-805h-100v805zM161 289q-30 4 -55 22.5t-43.5 45.5t-28.5 60.5t-10 69.5q0 38 12 73.5t34.5 63.5t55.5 44.5t75 16.5h60v-805h-100v409z" />
    <glyph glyph-name="periodcentered" unicode="&#xb7;" horiz-adv-x="267" 
d="M58 311q0 34 19.5 53t51.5 19q34 0 53.5 -19t19.5 -53q0 -32 -19.5 -52t-53.5 -20q-32 0 -51.5 20t-19.5 52z" />
    <glyph glyph-name="cedilla" unicode="&#xb8;" horiz-adv-x="287" 
d="M170 -8q64 -20 64 -83q0 -47 -35.5 -74.5t-96.5 -27.5q-13 0 -27.5 1.5t-34.5 5.5l11 80q1 0 12.5 -0.5t12.5 -0.5q4 -2 8.5 -1.5t15.5 -0.5q14 -2 21.5 1t6.5 6q2 13 -90 21l63 118h95z" />
    <glyph glyph-name="uni00B9" unicode="&#xb9;" horiz-adv-x="394" 
d="M55 481h99v203l-79 -48l-43 77l160 107h63v-339h88v-94h-288v94z" />
    <glyph glyph-name="ordmasculine" unicode="&#xba;" horiz-adv-x="398" 
d="M30 520q0 46 12.5 79.5t34 55t51 31.5t64.5 10q34 0 63.5 -9t51.5 -30t34.5 -54.5t12.5 -82.5q0 -48 -12.5 -81.5t-34.5 -54.5t-51.5 -30.5t-63.5 -9.5q-35 0 -64.5 9.5t-51 30.5t-34 54.5t-12.5 81.5zM135 520q0 -46 15 -65.5t42 -19.5q26 0 41 18t15 67q0 50 -15 68
t-41 18q-27 0 -42 -18t-15 -68z" />
    <glyph glyph-name="guillemotright" unicode="&#xbb;" horiz-adv-x="478" 
d="M269 268l-167 -239l-77 62l101 151l28 24l-14 10l-14 10l-106 146l76 64zM437 268l-166 -240l-79 62l103 152l27 24l-14 10t-13 10l-108 147l76 65z" />
    <glyph glyph-name="onequarter" unicode="&#xbc;" horiz-adv-x="837" 
d="M624 704l79 -52l-473 -671l-78 55zM795 96h-77v-89h-99v89h-189v60l219 291h69v-259h77v-92zM517 183q11 1 23 2.5t23 2.5h4l-4 -7l-33 -30zM619 257v31l4 46l35 -8q-5 -11 -11 -23t-11 -23zM619 257l-52 -69h52v69zM153 556l-80 -48l-43 77l161 107h64v-433h-102v297z
" />
    <glyph glyph-name="onehalf" unicode="&#xbd;" horiz-adv-x="850" 
d="M624 704l79 -52l-473 -671l-78 55zM792 313q0 -58 -33 -108.5t-81 -101.5h133v-96h-307v58l53 47t61.5 62.5t50.5 68t21 62.5q0 20 -12.5 29.5t-32.5 9.5q-21 0 -48.5 -12t-50.5 -27l-34 88q33 22 71 34.5t73 12.5q68 0 102 -33.5t34 -93.5zM153 556l-80 -48l-43 77
l161 107h64v-433h-102v297z" />
    <glyph glyph-name="threequarters" unicode="&#xbe;" horiz-adv-x="876" 
d="M663 704l79 -52l-473 -671l-78 55zM834 96h-77v-89h-99v89h-189v60l219 291h69v-259h77v-92zM556 183q11 1 23 2.5t23 2.5h4l-4 -7l-33 -30zM658 257v31l4 46l35 -8q-5 -11 -11 -23t-11 -23zM658 257l-52 -69h52v69zM173 374q73 0 73 50q0 22 -16.5 35.5t-54.5 13.5h-70
v46l85 102h-129v92h274v-55l-91 -108q48 -8 76 -41.5t28 -84.5q0 -65 -46 -104t-124 -39q-35 0 -65.5 8t-56.5 16l24 94q24 -11 47.5 -18t45.5 -7z" />
    <glyph glyph-name="questiondown" unicode="&#xbf;" horiz-adv-x="436" 
d="M290 336q2 -14 2 -23v-16q0 -33 -7.5 -60t-20 -49.5t-28.5 -41.5l-32 -37q-23 -27 -44.5 -57.5t-21.5 -68.5q0 -34 20 -55.5t68 -21.5q30 0 66.5 13.5t67.5 33.5l41 -92q-44 -27 -88.5 -42t-105.5 -15q-45 0 -79.5 13t-57.5 36t-34.5 53.5t-11.5 66.5q0 35 8 62.5
t20.5 50.5t29 42l34.5 38l28 32t25 36t17.5 44.5t6.5 57.5h97zM166 439q0 33 19.5 52.5t52.5 19.5t53 -19.5t20 -52.5t-20 -52.5t-53 -19.5t-52.5 19.5t-19.5 52.5z" />
    <glyph glyph-name="Agrave" unicode="&#xc0;" horiz-adv-x="585" 
d="M390 184h-217q-15 -45 -33 -93l-34 -91h-118l267 715l61 -6l265 -709h-123zM211 289h141l-32 88.5l-32 87.5l-6 17l-3.5 -9t-2.5 -9zM397 696h-118l-160 98v49h132z" />
    <glyph glyph-name="Aacute" unicode="&#xc1;" horiz-adv-x="585" 
d="M390 184h-217q-15 -45 -33 -93l-34 -91h-118l267 715l61 -6l265 -709h-123zM211 289h141l-32 88.5l-32 87.5l-6 17l-3.5 -9t-2.5 -9zM316 843h132v-49l-165 -98h-113z" />
    <glyph glyph-name="Acircumflex" unicode="&#xc2;" horiz-adv-x="585" 
d="M390 184h-217q-15 -45 -33 -93l-34 -91h-118l267 715l61 -6l265 -709h-123zM211 289h141l-32 88.5l-32 87.5l-6 17l-3.5 -9t-2.5 -9zM252 843h70l129 -104v-47h-100l-64 52l-2 3l-1 -2l-69 -53h-98v48z" />
    <glyph glyph-name="Atilde" unicode="&#xc3;" horiz-adv-x="585" 
d="M390 184h-217q-15 -45 -33 -93l-34 -91h-118l267 715l61 -6l265 -709h-123zM211 289h141l-32 88.5l-32 87.5l-6 17l-3.5 -9t-2.5 -9zM116 748q38 40 67.5 53.5t55.5 13.5q20 0 39.5 -5.5t36.5 -12.5q14 -5 26.5 -9t22.5 -4q15 0 51 30l41 -73q-33 -31 -61 -43t-51 -12
q-20 0 -38 5t-35 12l-27 9.5t-24 4.5t-25.5 -8.5t-37.5 -30.5z" />
    <glyph glyph-name="Adieresis" unicode="&#xc4;" horiz-adv-x="585" 
d="M390 184h-217q-15 -45 -33 -93l-34 -91h-118l267 715l61 -6l265 -709h-123zM211 289h141l-32 88.5l-32 87.5l-6 17l-3.5 -9t-2.5 -9zM129 754q0 28 19 45t49 17t48.5 -17t18.5 -45q0 -27 -18.5 -44t-48.5 -17t-49 17t-19 44zM307 754q0 28 18 45t48 17q31 0 50 -17
t19 -45q0 -27 -19 -44t-50 -17q-30 0 -48 17t-18 44z" />
    <glyph glyph-name="Aring" unicode="&#xc5;" horiz-adv-x="585" 
d="M167 745q0 44 28 72t90 28q57 0 88 -25t31 -75q0 -32 -17 -55.5t-51 -34.5l123.5 -328l121.5 -327h-123l-68 184h-217q-15 -45 -33 -93l-34 -91h-118l244 655q-33 11 -49 34t-16 56zM211 289h141l-30.5 85l-31.5 86l-8 32q-2 -8 -3 -13.5t-2 -13.5zM262 745q0 -19 23 -19
q24 0 24 19q0 21 -24 21q-23 0 -23 -21z" />
    <glyph glyph-name="AE" unicode="&#xc6;" horiz-adv-x="846" 
d="M365 586l17 -17l16 12q-17 -49 -32 -99l-1 -1v105zM365 291v190l-111 -190h111zM365 187h-172l-54 -93.5l-53 -93.5h-130l415 700h392v-108h-282v-179h258v-107h-258v-198h287v-108h-403v187z" />
    <glyph glyph-name="Ccedilla" unicode="&#xc7;" horiz-adv-x="571" 
d="M534 39q-31 -23 -67.5 -34t-77.5 -14q62 -22 62 -84q0 -45 -35 -74.5t-100 -29.5q-11 0 -26.5 1.5t-38.5 6.5l17 73q17 -2 23.5 -2.5t10.5 -0.5q28 0 34.5 6t6.5 12q0 8 -93 19l40 75q-54 8 -99.5 33.5t-78.5 69.5t-51.5 107t-18.5 147q0 97 27 165.5t70.5 112t98.5 63.5
t111 20q59 0 100 -8t75 -22l-28 -107q-31 14 -66.5 22t-75.5 8q-35 0 -69.5 -13.5t-61.5 -43.5t-43.5 -78.5t-16.5 -118.5q0 -63 15.5 -111t43 -79.5t64.5 -47.5t80 -16q40 0 75 11.5t64 28.5z" />
    <glyph glyph-name="Egrave" unicode="&#xc8;" horiz-adv-x="536" 
d="M69 700h398v-108h-282v-179h254v-107h-254v-198h287v-108h-403v700zM356 696h-118l-160 98v49h132z" />
    <glyph glyph-name="Eacute" unicode="&#xc9;" horiz-adv-x="536" 
d="M69 700h398v-108h-282v-179h254v-107h-254v-198h287v-108h-403v700zM315 843h132v-49l-165 -98h-113z" />
    <glyph glyph-name="Ecircumflex" unicode="&#xca;" horiz-adv-x="536" 
d="M69 700h398v-108h-282v-179h254v-107h-254v-198h287v-108h-403v700zM229 843h70l129 -104v-47h-100l-64 52l-2 3l-1 -2l-69 -53h-98v48z" />
    <glyph glyph-name="Edieresis" unicode="&#xcb;" horiz-adv-x="536" 
d="M69 700h398v-108h-282v-179h254v-107h-254v-198h287v-108h-403v700zM105 754q0 28 19 45t49 17t48.5 -17t18.5 -45q0 -27 -18.5 -44t-48.5 -17t-49 17t-19 44zM283 754q0 28 18 45t48 17q31 0 50 -17t19 -45q0 -27 -19 -44t-50 -17q-30 0 -48 17t-18 44z" />
    <glyph glyph-name="Igrave" unicode="&#xcc;" horiz-adv-x="291" 
d="M83 700h117v-700h-117v700zM226 696h-118l-160 98v49h132z" />
    <glyph glyph-name="Iacute" unicode="&#xcd;" horiz-adv-x="291" 
d="M83 700h117v-700h-117v700zM165 843h132v-49l-165 -98h-113z" />
    <glyph glyph-name="Icircumflex" unicode="&#xce;" horiz-adv-x="291" 
d="M83 700h117v-700h-117v700zM106 843h70l129 -104v-47h-100l-64 52l-2 3l-1 -2l-69 -53h-98v48z" />
    <glyph glyph-name="Idieresis" unicode="&#xcf;" horiz-adv-x="291" 
d="M83 700h117v-700h-117v700zM-16 754q0 28 19 45t49 17t48.5 -17t18.5 -45q0 -27 -18.5 -44t-48.5 -17t-49 17t-19 44zM162 754q0 28 18 45t48 17q31 0 50 -17t19 -45q0 -27 -19 -44t-50 -17q-30 0 -48 17t-18 44z" />
    <glyph glyph-name="Eth" unicode="&#xd0;" horiz-adv-x="658" 
d="M-12 409h85v288q50 8 103.5 9.5t92.5 1.5q84 0 146 -26t102 -72.5t59.5 -111.5t19.5 -143q0 -71 -18.5 -136.5t-58.5 -116t-104 -81t-155 -30.5q-15 0 -41.5 0.5t-55 2t-53.5 3.5t-37 5v312h-85v95zM271 600q-19 0 -41.5 -0.5t-39.5 -2.5v-188h139v-95h-139v-213
q17 -2 40.5 -2h31.5q61 0 102 21.5t65.5 57t35 81.5t10.5 96q0 43 -9.5 86.5t-33 78.5t-62.5 57.5t-99 22.5z" />
    <glyph glyph-name="Ntilde" unicode="&#xd1;" horiz-adv-x="673" 
d="M190 446l-9 15q0 -2 0.5 -3.5t0.5 -3.5v-454h-111v710h70l324 -451l8 -14v3v452h111v-710h-70zM160 748q38 40 67.5 53.5t55.5 13.5q20 0 39.5 -5.5t36.5 -12.5q14 -5 26.5 -9t22.5 -4q15 0 51 30l41 -73q-33 -31 -61 -43t-51 -12q-20 0 -38 5t-35 12l-27 9.5t-24 4.5
t-25.5 -8.5t-37.5 -30.5z" />
    <glyph glyph-name="Ograve" unicode="&#xd2;" horiz-adv-x="684" 
d="M43 350q0 176 74.5 268.5t214.5 92.5q75 0 129.5 -26t90 -73t53 -113.5t17.5 -148.5q0 -176 -75 -268.5t-215 -92.5q-74 0 -128.5 25.5t-90 73t-53 114t-17.5 148.5zM164 350q0 -51 10 -97t30.5 -81t52 -55.5t75.5 -20.5q80 0 124.5 62t44.5 192q0 50 -10 96t-30.5 81
t-52.5 56t-76 21q-79 0 -123.5 -62t-44.5 -192zM440 696h-118l-160 98v49h132z" />
    <glyph glyph-name="Oacute" unicode="&#xd3;" horiz-adv-x="684" 
d="M43 350q0 176 74.5 268.5t214.5 92.5q75 0 129.5 -26t90 -73t53 -113.5t17.5 -148.5q0 -176 -75 -268.5t-215 -92.5q-74 0 -128.5 25.5t-90 73t-53 114t-17.5 148.5zM164 350q0 -51 10 -97t30.5 -81t52 -55.5t75.5 -20.5q80 0 124.5 62t44.5 192q0 50 -10 96t-30.5 81
t-52.5 56t-76 21q-79 0 -123.5 -62t-44.5 -192zM400 843h132v-49l-165 -98h-113z" />
    <glyph glyph-name="Ocircumflex" unicode="&#xd4;" horiz-adv-x="684" 
d="M43 350q0 176 74.5 268.5t214.5 92.5q75 0 129.5 -26t90 -73t53 -113.5t17.5 -148.5q0 -176 -75 -268.5t-215 -92.5q-74 0 -128.5 25.5t-90 73t-53 114t-17.5 148.5zM164 350q0 -51 10 -97t30.5 -81t52 -55.5t75.5 -20.5q80 0 124.5 62t44.5 192q0 50 -10 96t-30.5 81
t-52.5 56t-76 21q-79 0 -123.5 -62t-44.5 -192zM299 843h70l129 -104v-47h-100l-64 52l-2 3l-1 -2l-69 -53h-98v48z" />
    <glyph glyph-name="Otilde" unicode="&#xd5;" horiz-adv-x="684" 
d="M43 350q0 176 74.5 268.5t214.5 92.5q75 0 129.5 -26t90 -73t53 -113.5t17.5 -148.5q0 -176 -75 -268.5t-215 -92.5q-74 0 -128.5 25.5t-90 73t-53 114t-17.5 148.5zM164 350q0 -51 10 -97t30.5 -81t52 -55.5t75.5 -20.5q80 0 124.5 62t44.5 192q0 50 -10 96t-30.5 81
t-52.5 56t-76 21q-79 0 -123.5 -62t-44.5 -192zM163 748q38 40 67.5 53.5t55.5 13.5q20 0 39.5 -5.5t36.5 -12.5q14 -5 26.5 -9t22.5 -4q15 0 51 30l41 -73q-33 -31 -61 -43t-51 -12q-20 0 -38 5t-35 12l-27 9.5t-24 4.5t-25.5 -8.5t-37.5 -30.5z" />
    <glyph glyph-name="Odieresis" unicode="&#xd6;" horiz-adv-x="684" 
d="M43 350q0 176 74.5 268.5t214.5 92.5q75 0 129.5 -26t90 -73t53 -113.5t17.5 -148.5q0 -176 -75 -268.5t-215 -92.5q-74 0 -128.5 25.5t-90 73t-53 114t-17.5 148.5zM164 350q0 -51 10 -97t30.5 -81t52 -55.5t75.5 -20.5q80 0 124.5 62t44.5 192q0 50 -10 96t-30.5 81
t-52.5 56t-76 21q-79 0 -123.5 -62t-44.5 -192zM175 754q0 28 19 45t49 17t48.5 -17t18.5 -45q0 -27 -18.5 -44t-48.5 -17t-49 17t-19 44zM353 754q0 28 18 45t48 17q31 0 50 -17t19 -45q0 -27 -19 -44t-50 -17q-30 0 -48 17t-18 44z" />
    <glyph glyph-name="multiply" unicode="&#xd7;" horiz-adv-x="505" 
d="M127 523l117 -117l117 117l73 -75l-116 -117l59 -59.5l57 -57.5l-73 -74l-117 118l-60 -60.5l-58 -57.5l-74 73l118 118l-59 60l-57 57z" />
    <glyph glyph-name="Oslash" unicode="&#xd8;" horiz-adv-x="684" 
d="M102 105q-32 48 -45.5 108.5t-13.5 136.5q0 176 74.5 268.5t214.5 92.5q100 0 165 -48q11 14 21.5 29.5l17.5 26.5l81 -53l-52 -75q29 -47 43 -107.5t14 -133.5q0 -176 -75 -268.5t-215 -92.5q-48 0 -88.5 12t-73.5 33q-9 -13 -18.5 -28.5t-17.5 -24.5l-79 56zM164 350
q0 -74 19 -131l63 89l60 85l60 85l63 90q-38 36 -97 36q-79 0 -123.5 -62t-44.5 -192zM501 350q0 33 -4.5 66t-13.5 61l-63 -89l-59.5 -84l-59.5 -84.5l-63 -88.5q18 -16 41.5 -25.5t52.5 -9.5q80 0 124.5 62t44.5 192z" />
    <glyph glyph-name="Ugrave" unicode="&#xd9;" horiz-adv-x="652" 
d="M451 700h113v-461q0 -65 -17 -112t-48.5 -77t-75 -44.5t-97.5 -14.5q-256 0 -256 233v476h117v-439q0 -89 34.5 -125.5t105.5 -36.5q67 0 95.5 37.5t28.5 124.5v439zM437 696h-118l-160 98v49h132z" />
    <glyph glyph-name="Uacute" unicode="&#xda;" horiz-adv-x="652" 
d="M451 700h113v-461q0 -65 -17 -112t-48.5 -77t-75 -44.5t-97.5 -14.5q-256 0 -256 233v476h117v-439q0 -89 34.5 -125.5t105.5 -36.5q67 0 95.5 37.5t28.5 124.5v439zM375 843h132v-49l-165 -98h-113z" />
    <glyph glyph-name="Ucircumflex" unicode="&#xdb;" horiz-adv-x="652" 
d="M451 700h113v-461q0 -65 -17 -112t-48.5 -77t-75 -44.5t-97.5 -14.5q-256 0 -256 233v476h117v-439q0 -89 34.5 -125.5t105.5 -36.5q67 0 95.5 37.5t28.5 124.5v439zM288 843h70l129 -104v-47h-100l-64 52l-2 3l-1 -2l-69 -53h-98v48z" />
    <glyph glyph-name="Udieresis" unicode="&#xdc;" horiz-adv-x="652" 
d="M451 700h113v-461q0 -65 -17 -112t-48.5 -77t-75 -44.5t-97.5 -14.5q-256 0 -256 233v476h117v-439q0 -89 34.5 -125.5t105.5 -36.5q67 0 95.5 37.5t28.5 124.5v439zM163 754q0 28 19 45t49 17t48.5 -17t18.5 -45q0 -27 -18.5 -44t-48.5 -17t-49 17t-19 44zM341 754
q0 28 18 45t48 17q31 0 50 -17t19 -45q0 -27 -19 -44t-50 -17q-30 0 -48 17t-18 44z" />
    <glyph glyph-name="Yacute" unicode="&#xdd;" horiz-adv-x="558" 
d="M215 275l-57 103.5l-60 109.5l-59.5 109l-56.5 103h137l159 -323l78 162l76 161h129l-230 -423v-277h-116v275zM340 843h132v-49l-165 -98h-113z" />
    <glyph glyph-name="Thorn" unicode="&#xde;" horiz-adv-x="559" 
d="M70 795h116v-164q16 1 31.5 1h30.5q47 0 95.5 -9.5t88 -34.5t64.5 -68t25 -110q0 -66 -23.5 -111.5t-62 -73.5t-88 -40.5t-102.5 -12.5q-11 0 -29.5 -0.5t-29.5 1.5v-173h-116v795zM250 526h-35t-29 -2v-243q11 -1 25.5 -1h23.5h6q29 0 57.5 5.5t51 19.5t36.5 39.5
t14 65.5q0 33 -13.5 55.5t-34.5 36t-48 19t-54 5.5z" />
    <glyph glyph-name="germandbls" unicode="&#xdf;" horiz-adv-x="592" 
d="M348 536q0 12 -7 21.5t-18.5 16.5t-25 11t-25.5 4q-42 0 -59 -23.5t-17 -85.5v-480h-111v398h-73v102h73v3q0 99 48.5 143.5t135.5 44.5q42 0 77 -11t60 -31.5t39 -49t14 -62.5q0 -23 -6.5 -40t-17 -30.5t-23.5 -24.5l-26 -21q-16 -11 -27.5 -23t-11.5 -27
q0 -17 17.5 -26t41.5 -20l-1 1l45.5 -19.5t42.5 -28.5t31 -45t12 -67q0 -33 -12 -64.5t-36 -56.5t-58.5 -40.5t-79.5 -15.5q-44 0 -74.5 8t-64.5 28l34 100l18 -12.5t9 -5.5q16 -8 29.5 -12t42.5 -4q32 0 56 20t24 52q0 29 -23.5 44.5t-51.5 26.5q-19 8 -39 18.5t-36.5 26
t-27 37t-10.5 51.5q0 23 6.5 40.5t16.5 31t23 24.5l26 21q16 12 28 24.5t12 27.5z" />
    <glyph glyph-name="agrave" unicode="&#xe0;" horiz-adv-x="496" 
d="M50 455q45 27 97 39.5t106 12.5t86.5 -15t50 -38t23 -51.5t5.5 -56.5q0 -29 -0.5 -57.5t-1.5 -56.5l-2 -47.5t-1 -46.5q0 -32 3 -69q0 -23 42 -37l-5 -34h-114l-15 48q-16 -16 -38 -29q-19 -10 -51 -17t-64 -7q-33 0 -62 10.5t-50 30t-33 47t-12 62.5q0 48 35 95
q39 50 102 57q29 4 59.5 6t63.5 2h10q5 0 7.5 0.5t4.5 0.5h4.5t7.5 -1q1 8 1 15v14q0 41 -16 57.5t-60 16.5q-15 0 -33.5 -3t-38.5 -8t-39 -12.5t-35 -16.5zM191 94q23 0 47 6t37 15q11 8 18.5 18.5t12.5 18.5v56q-9 1 -17 1h-17q-41 0 -83 -3q-17 -1 -29 -6.5t-19 -13.5
q-13 -19 -13 -36q0 -24 17.5 -40t45.5 -16zM322 529h-78l-117 130v45h119z" />
    <glyph glyph-name="aacute" unicode="&#xe1;" horiz-adv-x="496" 
d="M50 455q45 27 97 39.5t106 12.5t86.5 -15t50 -38t23 -51.5t5.5 -56.5q0 -29 -0.5 -57.5t-1.5 -56.5l-2 -47.5t-1 -46.5q0 -32 3 -69q0 -23 42 -37l-5 -34h-114l-15 48q-16 -16 -38 -29q-19 -10 -51 -17t-64 -7q-33 0 -62 10.5t-50 30t-33 47t-12 62.5q0 48 35 95
q39 50 102 57q29 4 59.5 6t63.5 2h10q5 0 7.5 0.5t4.5 0.5h4.5t7.5 -1q1 8 1 15v14q0 41 -16 57.5t-60 16.5q-15 0 -33.5 -3t-38.5 -8t-39 -12.5t-35 -16.5zM191 94q23 0 47 6t37 15q11 8 18.5 18.5t12.5 18.5v56q-9 1 -17 1h-17q-41 0 -83 -3q-17 -1 -29 -6.5t-19 -13.5
q-13 -19 -13 -36q0 -24 17.5 -40t45.5 -16zM221 704h114v-45l-103 -130h-80z" />
    <glyph glyph-name="acircumflex" unicode="&#xe2;" horiz-adv-x="496" 
d="M50 455q45 27 97 39.5t106 12.5t86.5 -15t50 -38t23 -51.5t5.5 -56.5q0 -29 -0.5 -57.5t-1.5 -56.5l-2 -47.5t-1 -46.5q0 -32 3 -69q0 -23 42 -37l-5 -34h-114l-15 48q-16 -16 -38 -29q-19 -10 -51 -17t-64 -7q-33 0 -62 10.5t-50 30t-33 47t-12 62.5q0 48 35 95
q39 50 102 57q29 4 59.5 6t63.5 2h10q5 0 7.5 0.5t4.5 0.5h4.5t7.5 -1q1 8 1 15v14q0 41 -16 57.5t-60 16.5q-15 0 -33.5 -3t-38.5 -8t-39 -12.5t-35 -16.5zM191 94q23 0 47 6t37 15q11 8 18.5 18.5t12.5 18.5v56q-9 1 -17 1h-17q-41 0 -83 -3q-17 -1 -29 -6.5t-19 -13.5
q-13 -19 -13 -36q0 -24 17.5 -40t45.5 -16zM222 715h50l125 -206h-109l-43 72l-3 8l-3 -8l-48 -72h-108z" />
    <glyph glyph-name="atilde" unicode="&#xe3;" horiz-adv-x="496" 
d="M50 455q45 27 97 39.5t106 12.5t86.5 -15t50 -38t23 -51.5t5.5 -56.5q0 -29 -0.5 -57.5t-1.5 -56.5l-2 -47.5t-1 -46.5q0 -32 3 -69q0 -23 42 -37l-5 -34h-114l-15 48q-16 -16 -38 -29q-19 -10 -51 -17t-64 -7q-33 0 -62 10.5t-50 30t-33 47t-12 62.5q0 48 35 95
q39 50 102 57q29 4 59.5 6t63.5 2h10q5 0 7.5 0.5t4.5 0.5h4.5t7.5 -1q1 8 1 15v14q0 41 -16 57.5t-60 16.5q-15 0 -33.5 -3t-38.5 -8t-39 -12.5t-35 -16.5zM191 94q23 0 47 6t37 15q11 8 18.5 18.5t12.5 18.5v56q-9 1 -17 1h-17q-41 0 -83 -3q-17 -1 -29 -6.5t-19 -13.5
q-13 -19 -13 -36q0 -24 17.5 -40t45.5 -16zM90 629q35 39 62 54t50 15q20 0 35.5 -7.5l30.5 -15.5l-1 1q11 -5 20.5 -10t17.5 -5q14 0 47 33l40 -72q-32 -36 -57 -49t-45 -13q-19 0 -34.5 7t-29.5 15q-11 6 -20.5 10.5t-19.5 4.5q-8 0 -21 -9t-36 -32z" />
    <glyph glyph-name="adieresis" unicode="&#xe4;" horiz-adv-x="496" 
d="M50 455q45 27 97 39.5t106 12.5t86.5 -15t50 -38t23 -51.5t5.5 -56.5q0 -29 -0.5 -57.5t-1.5 -56.5l-2 -47.5t-1 -46.5q0 -32 3 -69q0 -23 42 -37l-5 -34h-114l-15 48q-16 -16 -38 -29q-19 -10 -51 -17t-64 -7q-33 0 -62 10.5t-50 30t-33 47t-12 62.5q0 48 35 95
q39 50 102 57q29 4 59.5 6t63.5 2h10q5 0 7.5 0.5t4.5 0.5h4.5t7.5 -1q1 8 1 15v14q0 41 -16 57.5t-60 16.5q-15 0 -33.5 -3t-38.5 -8t-39 -12.5t-35 -16.5zM191 94q23 0 47 6t37 15q11 8 18.5 18.5t12.5 18.5v56q-9 1 -17 1h-17q-41 0 -83 -3q-17 -1 -29 -6.5t-19 -13.5
q-13 -19 -13 -36q0 -24 17.5 -40t45.5 -16zM90 623q0 30 17.5 48t46.5 18q28 0 45.5 -18t17.5 -48q0 -27 -17.5 -45.5t-45.5 -18.5q-29 0 -46.5 18.5t-17.5 45.5zM267 623q0 30 17.5 48t46.5 18q30 0 47.5 -18t17.5 -48q0 -27 -17.5 -45.5t-47.5 -18.5q-29 0 -46.5 18.5
t-17.5 45.5z" />
    <glyph glyph-name="aring" unicode="&#xe5;" horiz-adv-x="496" 
d="M50 455q45 27 97 39.5t106 12.5t86.5 -15t50 -38t23 -51.5t5.5 -56.5q0 -29 -0.5 -57.5t-1.5 -56.5l-2 -47.5t-1 -46.5q0 -32 3 -69q0 -23 42 -37l-5 -34h-114l-15 48q-16 -16 -38 -29q-19 -10 -51 -17t-64 -7q-33 0 -62 10.5t-50 30t-33 47t-12 62.5q0 48 35 95
q39 50 102 57q29 4 59.5 6t63.5 2h10q5 0 7.5 0.5t4.5 0.5h4.5t7.5 -1q1 8 1 15v14q0 41 -16 57.5t-60 16.5q-15 0 -33.5 -3t-38.5 -8t-39 -12.5t-35 -16.5zM191 94q23 0 47 6t37 15q11 8 18.5 18.5t12.5 18.5v56q-9 1 -17 1h-17q-41 0 -83 -3q-17 -1 -29 -6.5t-19 -13.5
q-13 -19 -13 -36q0 -24 17.5 -40t45.5 -16zM135 614q0 48 29 75.5t79 27.5q47 0 78 -24.5t31 -78.5q0 -45 -31 -73.5t-78 -28.5q-48 0 -78 26.5t-30 75.5zM222 614q0 -10 6.5 -15t14.5 -5q22 0 22 20q0 11 -6.5 16t-15.5 5q-8 0 -14.5 -4.5t-6.5 -16.5z" />
    <glyph glyph-name="ae" unicode="&#xe6;" horiz-adv-x="796" 
d="M210 94q43 0 68.5 20t33.5 40v54q-9 1 -17 1h-17q-26 0 -50 -2.5t-42 -9t-29 -18t-11 -29.5q0 -24 18 -40t46 -16zM531 -11q-55 0 -101 21t-74 59q-26 -31 -66 -53.5t-100 -22.5q-33 0 -62 10.5t-50.5 30t-33.5 47t-12 62.5q0 46 18 76.5t50.5 49t78 26.5t100.5 8h11
q5 0 7 0.5t3.5 0.5h4t7.5 -1q0 2 1 2q1 8 1.5 15t0.5 12q0 41 -16.5 57.5t-59.5 16.5q-14 0 -32.5 -3t-38.5 -8.5t-40 -13t-36 -16.5l-37 90q45 27 97.5 39.5t105.5 12.5q44 0 76.5 -12t52.5 -35q29 27 67 39t76 12q35 0 70 -7.5t62.5 -29.5t45 -62t17.5 -104q0 -16 -2 -37
t-5 -47h-297q4 -63 34.5 -98t96.5 -35q29 0 62 14.5t54 32.5l46 -87q-37 -29 -84.5 -45.5t-98.5 -16.5zM615 319h19l-19 -18v11v7zM531 409q-42 0 -69.5 -20.5t-35.5 -69.5h189q-2 49 -24.5 69.5t-59.5 20.5z" />
    <glyph glyph-name="ccedilla" unicode="&#xe7;" horiz-adv-x="451" 
d="M418 43q-29 -21 -59.5 -34t-63.5 -17v-1q64 -20 64 -82q0 -45 -34.5 -73.5t-97.5 -28.5q-11 0 -26 1.5t-38 6.5l17 71q17 -2 23 -2.5t10 -0.5q28 0 34 6.5t6 11.5q0 9 -90 18l38 75q-45 7 -76 28.5t-51 54.5t-29 77t-9 96q0 128 56 194.5t163 66.5q48 0 84 -9t70 -27
l-33 -101q-29 16 -57.5 25.5t-56.5 9.5q-113 0 -113 -159q0 -31 6 -59.5t20 -50.5t37 -35t57 -13q30 0 58.5 12.5t51.5 30.5z" />
    <glyph glyph-name="egrave" unicode="&#xe8;" horiz-adv-x="508" 
d="M442 44q-36 -29 -84 -45.5t-99 -16.5q-57 0 -99.5 19.5t-70.5 54.5q-26 35 -41 98q-12 58 -12 88q0 128 57.5 194.5t164.5 66.5q35 0 70 -7.5t62.5 -29.5t45 -61t17.5 -103q0 -15 -2 -36t-6 -50h-293q1 -7 2.5 -16t3.5 -19q7 -39 23 -59q30 -38 100 -38q14 0 30 4
t31.5 10.5t29.5 15.5t24 18zM259 401q-42 0 -69 -20.5t-36 -69.5h189q-4 50 -25.5 70t-58.5 20zM347 529h-78l-117 130v45h119z" />
    <glyph glyph-name="eacute" unicode="&#xe9;" horiz-adv-x="508" 
d="M442 44q-36 -29 -84 -45.5t-99 -16.5q-57 0 -99.5 19.5t-70.5 54.5q-26 35 -41 98q-12 58 -12 88q0 128 57.5 194.5t164.5 66.5q35 0 70 -7.5t62.5 -29.5t45 -61t17.5 -103q0 -15 -2 -36t-6 -50h-293q1 -7 2.5 -16t3.5 -19q7 -39 23 -59q30 -38 100 -38q14 0 30 4
t31.5 10.5t29.5 15.5t24 18zM259 401q-42 0 -69 -20.5t-36 -69.5h189q-4 50 -25.5 70t-58.5 20zM274 704h114v-45l-103 -130h-80z" />
    <glyph glyph-name="ecircumflex" unicode="&#xea;" horiz-adv-x="508" 
d="M442 44q-36 -29 -84 -45.5t-99 -16.5q-57 0 -99.5 19.5t-70.5 54.5q-26 35 -41 98q-12 58 -12 88q0 128 57.5 194.5t164.5 66.5q35 0 70 -7.5t62.5 -29.5t45 -61t17.5 -103q0 -15 -2 -36t-6 -50h-293q1 -7 2.5 -16t3.5 -19q7 -39 23 -59q30 -38 100 -38q14 0 30 4
t31.5 10.5t29.5 15.5t24 18zM259 401q-42 0 -69 -20.5t-36 -69.5h189q-4 50 -25.5 70t-58.5 20zM228 715h50l125 -206h-109l-43 72l-3 8l-3 -8l-48 -72h-108z" />
    <glyph glyph-name="edieresis" unicode="&#xeb;" horiz-adv-x="508" 
d="M442 44q-36 -29 -84 -45.5t-99 -16.5q-57 0 -99.5 19.5t-70.5 54.5q-26 35 -41 98q-12 58 -12 88q0 128 57.5 194.5t164.5 66.5q35 0 70 -7.5t62.5 -29.5t45 -61t17.5 -103q0 -15 -2 -36t-6 -50h-293q1 -7 2.5 -16t3.5 -19q7 -39 23 -59q30 -38 100 -38q14 0 30 4
t31.5 10.5t29.5 15.5t24 18zM259 401q-42 0 -69 -20.5t-36 -69.5h189q-4 50 -25.5 70t-58.5 20zM104 623q0 30 17.5 48t46.5 18q28 0 45.5 -18t17.5 -48q0 -27 -17.5 -45.5t-45.5 -18.5q-29 0 -46.5 18.5t-17.5 45.5zM281 623q0 30 17.5 48t46.5 18q30 0 47.5 -18t17.5 -48
q0 -27 -17.5 -45.5t-47.5 -18.5q-29 0 -46.5 18.5t-17.5 45.5z" />
    <glyph glyph-name="igrave" unicode="&#xec;" horiz-adv-x="268" 
d="M73 500h112v-500h-112v500zM190 529h-78l-117 130v45h119z" />
    <glyph glyph-name="iacute" unicode="&#xed;" horiz-adv-x="268" 
d="M73 500h112v-500h-112v500zM137 704h114v-45l-103 -130h-80z" />
    <glyph glyph-name="icircumflex" unicode="&#xee;" horiz-adv-x="268" 
d="M73 500h112v-500h-112v500zM105 715h50l125 -206h-109l-43 72l-3 8l-3 -8l-48 -72h-108z" />
    <glyph glyph-name="idieresis" unicode="&#xef;" horiz-adv-x="268" 
d="M73 500h112v-500h-112v500zM-26 623q0 30 17.5 48t46.5 18q28 0 45.5 -18t17.5 -48q0 -27 -17.5 -45.5t-45.5 -18.5q-29 0 -46.5 18.5t-17.5 45.5zM151 623q0 30 17.5 48t46.5 18q30 0 47.5 -18t17.5 -48q0 -27 -17.5 -45.5t-47.5 -18.5q-29 0 -46.5 18.5t-17.5 45.5z
" />
    <glyph glyph-name="eth" unicode="&#xf0;" horiz-adv-x="561" 
d="M307 545l-37.5 -20l-34.5 -19q18 3 35 3q20 0 39.5 -3.5t36.5 -9.5q-9 14 -18.5 26t-20.5 23zM44 251q0 47 12 90.5t36 77.5t59 57t81 30l-45 72l40 20q-13 5 -28 9.5l-31 9.5l54 85q19 -7 46.5 -19t56.5 -31l37 20l34 19l40 -74l-39 -23q22 -23 40 -51.5t31.5 -65
t21 -82t7.5 -103.5q0 -80 -18 -137.5t-48.5 -94t-71.5 -54t-87 -17.5q-62 0 -105 21t-70.5 56.5t-40 83t-12.5 101.5zM157 250q0 -81 33.5 -120t84.5 -39q24 0 44.5 11t35.5 34.5t23.5 60.5t8.5 90q0 18 -1 40.5t-3 36.5q-14 20 -45 31t-61 11q-32 0 -54.5 -12t-37 -33
t-21.5 -49.5t-7 -61.5z" />
    <glyph glyph-name="ntilde" unicode="&#xf1;" horiz-adv-x="547" 
d="M360 0v282q0 64 -16.5 95.5t-61.5 31.5q-42 0 -69 -21t-39 -55v-333h-111v500h101l1 -33q24 20 58 32t77 12q42 0 74 -9.5t53.5 -34t32.5 -65.5t11 -104v-298h-111zM115 629q35 39 62 54t50 15q20 0 35.5 -7.5l30.5 -15.5l-1 1q11 -5 20.5 -10t17.5 -5q14 0 47 33l40 -72
q-32 -36 -57 -49t-45 -13q-19 0 -34.5 7t-29.5 15q-11 6 -20.5 10.5t-19.5 4.5q-8 0 -21 -9t-36 -32z" />
    <glyph glyph-name="ograve" unicode="&#xf2;" horiz-adv-x="536" 
d="M37 250q0 128 56.5 194.5t164.5 66.5q57 0 98.5 -18.5t69 -53t40.5 -82.5t13 -107q0 -128 -56.5 -194.5t-164.5 -66.5q-57 0 -98.5 18.5t-69 53t-40.5 82.5t-13 107zM151 250q0 -32 5.5 -60.5t18.5 -50.5t33.5 -35t49.5 -13q107 -1 107 159q0 32 -6 61t-18.5 50.5
t-33 34.5t-49.5 13q-107 1 -107 -159zM334 529h-78l-117 130v45h119z" />
    <glyph glyph-name="oacute" unicode="&#xf3;" horiz-adv-x="536" 
d="M37 250q0 128 56.5 194.5t164.5 66.5q57 0 98.5 -18.5t69 -53t40.5 -82.5t13 -107q0 -128 -56.5 -194.5t-164.5 -66.5q-57 0 -98.5 18.5t-69 53t-40.5 82.5t-13 107zM151 250q0 -32 5.5 -60.5t18.5 -50.5t33.5 -35t49.5 -13q107 -1 107 159q0 32 -6 61t-18.5 50.5
t-33 34.5t-49.5 13q-107 1 -107 -159zM269 704h114v-45l-103 -130h-80z" />
    <glyph glyph-name="ocircumflex" unicode="&#xf4;" horiz-adv-x="536" 
d="M37 250q0 128 56.5 194.5t164.5 66.5q57 0 98.5 -18.5t69 -53t40.5 -82.5t13 -107q0 -128 -56.5 -194.5t-164.5 -66.5q-57 0 -98.5 18.5t-69 53t-40.5 82.5t-13 107zM151 250q0 -32 5.5 -60.5t18.5 -50.5t33.5 -35t49.5 -13q107 -1 107 159q0 32 -6 61t-18.5 50.5
t-33 34.5t-49.5 13q-107 1 -107 -159zM241 715h50l125 -206h-109l-43 72l-3 8l-3 -8l-48 -72h-108z" />
    <glyph glyph-name="otilde" unicode="&#xf5;" horiz-adv-x="536" 
d="M37 250q0 128 56.5 194.5t164.5 66.5q57 0 98.5 -18.5t69 -53t40.5 -82.5t13 -107q0 -128 -56.5 -194.5t-164.5 -66.5q-57 0 -98.5 18.5t-69 53t-40.5 82.5t-13 107zM151 250q0 -32 5.5 -60.5t18.5 -50.5t33.5 -35t49.5 -13q107 -1 107 159q0 32 -6 61t-18.5 50.5
t-33 34.5t-49.5 13q-107 1 -107 -159zM110 629q35 39 62 54t50 15q20 0 35.5 -7.5l30.5 -15.5l-1 1q11 -5 20.5 -10t17.5 -5q14 0 47 33l40 -72q-32 -36 -57 -49t-45 -13q-19 0 -34.5 7t-29.5 15q-11 6 -20.5 10.5t-19.5 4.5q-8 0 -21 -9t-36 -32z" />
    <glyph glyph-name="odieresis" unicode="&#xf6;" horiz-adv-x="536" 
d="M37 250q0 128 56.5 194.5t164.5 66.5q57 0 98.5 -18.5t69 -53t40.5 -82.5t13 -107q0 -128 -56.5 -194.5t-164.5 -66.5q-57 0 -98.5 18.5t-69 53t-40.5 82.5t-13 107zM151 250q0 -32 5.5 -60.5t18.5 -50.5t33.5 -35t49.5 -13q107 -1 107 159q0 32 -6 61t-18.5 50.5
t-33 34.5t-49.5 13q-107 1 -107 -159zM109 623q0 30 17.5 48t46.5 18q28 0 45.5 -18t17.5 -48q0 -27 -17.5 -45.5t-45.5 -18.5q-29 0 -46.5 18.5t-17.5 45.5zM286 623q0 30 17.5 48t46.5 18q30 0 47.5 -18t17.5 -48q0 -27 -17.5 -45.5t-47.5 -18.5q-29 0 -46.5 18.5
t-17.5 45.5z" />
    <glyph glyph-name="divide" unicode="&#xf7;" horiz-adv-x="505" 
d="M28 383h429v-103h-429v103zM170 505q0 33 19.5 52.5t52.5 19.5t53 -19.5t20 -52.5t-20 -53t-53 -20t-52.5 20t-19.5 53zM170 157q0 34 19.5 53.5t52.5 19.5t53 -19.5t20 -53.5q0 -32 -20 -52t-53 -20t-52.5 20t-19.5 52z" />
    <glyph glyph-name="oslash" unicode="&#xf8;" horiz-adv-x="536" 
d="M37 250q0 128 56.5 194.5t164.5 66.5q32 0 58.5 -5t49.5 -18q8 9 14.5 18.5t10.5 14.5l76 -56l-29 -42q21 -32 31 -76.5t10 -96.5q0 -128 -56.5 -194.5t-164.5 -66.5q-34 0 -61.5 6.5t-52.5 20.5q-7 -9 -14 -20t-12 -16l-77 56l34 48q-20 33 -29 75.5t-9 90.5zM365 250
q0 18 -1 34.5t-5 32.5l-75.5 -105l-77.5 -107q10 -5 24 -9.5t28 -4.5q107 -1 107 159zM151 250q0 -30 5 -58l74 102l75 104q-18 11 -47 11q-107 1 -107 -159z" />
    <glyph glyph-name="ugrave" unicode="&#xf9;" horiz-adv-x="539" 
d="M168 500v-282q0 -64 14.5 -95.5t57.5 -31.5q41 0 67 24.5t39 59.5v325h111v-350q0 -17 0.5 -33.5t1.5 -35.5q2 -14 17.5 -34.5t47.5 -46.5h-158l-3 45q-23 -25 -57 -40.5t-80 -15.5q-42 0 -73.5 9.5t-52.5 34t-32 65.5t-11 104v298h111zM325 529h-78l-117 130v45h119z
" />
    <glyph glyph-name="uacute" unicode="&#xfa;" horiz-adv-x="539" 
d="M168 500v-282q0 -64 14.5 -95.5t57.5 -31.5q41 0 67 24.5t39 59.5v325h111v-350q0 -17 0.5 -33.5t1.5 -35.5q2 -14 17.5 -34.5t47.5 -46.5h-158l-3 45q-23 -25 -57 -40.5t-80 -15.5q-42 0 -73.5 9.5t-52.5 34t-32 65.5t-11 104v298h111zM268 704h114v-45l-103 -130h-80z
" />
    <glyph glyph-name="ucircumflex" unicode="&#xfb;" horiz-adv-x="539" 
d="M168 500v-282q0 -64 14.5 -95.5t57.5 -31.5q41 0 67 24.5t39 59.5v325h111v-350q0 -17 0.5 -33.5t1.5 -35.5q2 -14 17.5 -34.5t47.5 -46.5h-158l-3 45q-23 -25 -57 -40.5t-80 -15.5q-42 0 -73.5 9.5t-52.5 34t-32 65.5t-11 104v298h111zM243 715h50l125 -206h-109l-43 72
l-3 8l-3 -8l-48 -72h-108z" />
    <glyph glyph-name="udieresis" unicode="&#xfc;" horiz-adv-x="539" 
d="M168 500v-282q0 -64 14.5 -95.5t57.5 -31.5q41 0 67 24.5t39 59.5v325h111v-350q0 -17 0.5 -33.5t1.5 -35.5q2 -14 17.5 -34.5t47.5 -46.5h-158l-3 45q-23 -25 -57 -40.5t-80 -15.5q-42 0 -73.5 9.5t-52.5 34t-32 65.5t-11 104v298h111zM110 623q0 30 17.5 48t46.5 18
q28 0 45.5 -18t17.5 -48q0 -27 -17.5 -45.5t-45.5 -18.5q-29 0 -46.5 18.5t-17.5 45.5zM287 623q0 30 17.5 48t46.5 18q30 0 47.5 -18t17.5 -48q0 -27 -17.5 -45.5t-47.5 -18.5q-29 0 -46.5 18.5t-17.5 45.5z" />
    <glyph glyph-name="yacute" unicode="&#xfd;" horiz-adv-x="466" 
d="M243 146l50 178l50 176h115l-146 -441l-32 -92.5t-36 -79.5t-46.5 -56t-62.5 -21q-41 0 -103 46l54 67q10 -3 17.5 -5t12.5 -2q19 0 37.5 23t32.5 78l-97 241.5l-97 241.5h126zM260 704h114v-45l-103 -130h-80z" />
    <glyph glyph-name="thorn" unicode="&#xfe;" horiz-adv-x="541" 
d="M63 685h111v-208q20 17 47 25.5t62 8.5q101 0 151.5 -59t50.5 -193q0 -62 -16.5 -112t-47 -85t-73.5 -54t-95 -19q-26 0 -44 2t-35 7v-183h-111v870zM269 409q-37 1 -61 -20.5t-34 -63.5v-218q14 -8 31 -12t45 -4q56 0 88.5 42.5t32.5 126.5q0 68 -23 108.5t-79 40.5z
" />
    <glyph glyph-name="ydieresis" unicode="&#xff;" horiz-adv-x="466" 
d="M243 146l50 178l50 176h115l-146 -441l-32 -92.5t-36 -79.5t-46.5 -56t-62.5 -21q-41 0 -103 46l54 67q10 -3 17.5 -5t12.5 -2q19 0 37.5 23t32.5 78l-97 241.5l-97 241.5h126zM74 623q0 30 17.5 48t46.5 18q28 0 45.5 -18t17.5 -48q0 -27 -17.5 -45.5t-45.5 -18.5
q-29 0 -46.5 18.5t-17.5 45.5zM251 623q0 30 17.5 48t46.5 18q30 0 47.5 -18t17.5 -48q0 -27 -17.5 -45.5t-47.5 -18.5q-29 0 -46.5 18.5t-17.5 45.5z" />
    <glyph glyph-name="Amacron" unicode="&#x100;" horiz-adv-x="585" 
d="M390 184h-217q-15 -45 -33 -93l-34 -91h-118l267 715l61 -6l265 -709h-123zM211 289h141l-32 88.5l-32 87.5l-6 17l-3.5 -9t-2.5 -9zM118 818h330v-95h-330v95z" />
    <glyph glyph-name="amacron" unicode="&#x101;" horiz-adv-x="496" 
d="M50 455q45 27 97 39.5t106 12.5t86.5 -15t50 -38t23 -51.5t5.5 -56.5q0 -29 -0.5 -57.5t-1.5 -56.5l-2 -47.5t-1 -46.5q0 -32 3 -69q0 -23 42 -37l-5 -34h-114l-15 48q-16 -16 -38 -29q-19 -10 -51 -17t-64 -7q-33 0 -62 10.5t-50 30t-33 47t-12 62.5q0 48 35 95
q39 50 102 57q29 4 59.5 6t63.5 2h10q5 0 7.5 0.5t4.5 0.5h4.5t7.5 -1q1 8 1 15v14q0 41 -16 57.5t-60 16.5q-15 0 -33.5 -3t-38.5 -8t-39 -12.5t-35 -16.5zM191 94q23 0 47 6t37 15q11 8 18.5 18.5t12.5 18.5v56q-9 1 -17 1h-17q-41 0 -83 -3q-17 -1 -29 -6.5t-19 -13.5
q-13 -19 -13 -36q0 -24 17.5 -40t45.5 -16zM86 632h311v-94h-311v94z" />
    <glyph glyph-name="Abreve" unicode="&#x102;" horiz-adv-x="585" 
d="M390 184h-217q-15 -45 -33 -93l-34 -91h-118l267 715l61 -6l265 -709h-123zM211 289h141l-32 88.5l-32 87.5l-6 17l-3.5 -9t-2.5 -9zM173 851q17 -35 47.5 -54t68.5 -19t66.5 21t42.5 50l69 -31q-21 -68 -70 -105t-109 -37q-55 0 -106.5 32.5t-79.5 102.5z" />
    <glyph glyph-name="abreve" unicode="&#x103;" horiz-adv-x="496" 
d="M50 455q45 27 97 39.5t106 12.5t86.5 -15t50 -38t23 -51.5t5.5 -56.5q0 -29 -0.5 -57.5t-1.5 -56.5l-2 -47.5t-1 -46.5q0 -32 3 -69q0 -23 42 -37l-5 -34h-114l-15 48q-16 -16 -38 -29q-19 -10 -51 -17t-64 -7q-33 0 -62 10.5t-50 30t-33 47t-12 62.5q0 48 35 95
q39 50 102 57q29 4 59.5 6t63.5 2h10q5 0 7.5 0.5t4.5 0.5h4.5t7.5 -1q1 8 1 15v14q0 41 -16 57.5t-60 16.5q-15 0 -33.5 -3t-38.5 -8t-39 -12.5t-35 -16.5zM191 94q23 0 47 6t37 15q11 8 18.5 18.5t12.5 18.5v56q-9 1 -17 1h-17q-41 0 -83 -3q-17 -1 -29 -6.5t-19 -13.5
q-13 -19 -13 -36q0 -24 17.5 -40t45.5 -16zM149 709q18 -36 44 -56.5t52 -20.5t49 20t40 57l68 -29q-3 -28 -16.5 -55t-34.5 -48t-48.5 -33.5t-58.5 -12.5q-29 0 -55.5 10t-48.5 28.5t-38 45t-24 59.5z" />
    <glyph glyph-name="Aogonek" unicode="&#x104;" horiz-adv-x="585" 
d="M383 -82q0 34 17 61t49 46l-59 159h-216l-34 -93l-33 -91h-119l265 710h63l265 -710h-43q-20 -12 -30 -27.5t-10 -36.5q0 -11 8 -20t22 -9q8 0 20.5 4t31.5 12l17 -73q-21 -17 -50 -25.5t-52 -8.5q-51 0 -81.5 26.5t-30.5 75.5zM212 289h140l-30 85l-32 86l-8 32
q-1 -8 -2 -13.5t-3 -13.5z" />
    <glyph glyph-name="aogonek" unicode="&#x105;" horiz-adv-x="496" 
d="M50 455q45 27 97 39.5t106 12.5t86.5 -15t50 -38t23 -51.5t5.5 -56.5v-57.5t-2 -56.5l-2 -47.5t-1 -46.5q0 -33 4 -67t15 -73h-40q-37 -25 -37 -60q0 -11 7.5 -20t21.5 -9q12 0 50 19l18 -75q-21 -17 -50 -25.5t-50 -8.5q-51 0 -80.5 27t-29.5 74q0 40 22.5 68.5
t63.5 47.5q-1 2 -2 5t-2 5q-21 -21 -55 -37t-85 -16q-33 0 -62 10.5t-50 30t-33 47t-12 62.5q0 46 18 76.5t50.5 49t78 26.5t100.5 8h10q5 0 7.5 0.5t4.5 0.5h4.5t7.5 -1q1 8 1 15v14q0 41 -16 57.5t-60 16.5q-15 0 -33.5 -2.5t-38 -7.5t-38.5 -12t-35 -16zM205 94
q43 0 68 20t33 40v54q-9 1 -17 1h-17q-26 0 -49.5 -2.5t-41.5 -9t-29 -18t-11 -29.5q0 -24 18 -40t46 -16z" />
    <glyph glyph-name="Cacute" unicode="&#x106;" horiz-adv-x="571" 
d="M563 61q-36 -26 -65.5 -42.5t-53.5 -21.5q-22 -5 -45.5 -6.5t-50.5 -1.5q-63 0 -118.5 21t-97.5 65.5t-66 112.5t-24 162q0 97 27 165.5t70.5 112t98.5 63.5t111 20q61 0 96 -6q19 -3 46.5 -10.5t62.5 -21.5l-62 -96q-28 13 -62 20t-75 7q-36 0 -70 -13.5t-61 -43.5
t-43.5 -78.5t-16.5 -118.5q0 -63 15.5 -111t42.5 -79.5t64 -47.5t80 -16q40 0 72.5 10t58.5 26zM402 843h132v-49l-165 -98h-113z" />
    <glyph glyph-name="cacute" unicode="&#x107;" horiz-adv-x="451" 
d="M451 76q-73 -64 -116 -75h1q-41 -12 -85 -12q-59 0 -99.5 18.5t-66.5 53t-37.5 82.5t-11.5 107q0 128 56.5 194.5t163.5 66.5q23 0 43 -2t35 -5q17 -4 44 -15.5t66 -31.5l-74 -79q-27 14 -54 22.5t-53 8.5q-113 0 -113 -159q0 -31 6 -60t20 -51t37 -35t57 -13q29 0 55 11
t46 27zM273 704h114v-45l-103 -130h-80z" />
    <glyph glyph-name="Ccircumflex" unicode="&#x108;" horiz-adv-x="571" 
d="M563 61q-36 -26 -65.5 -42.5t-53.5 -21.5q-22 -5 -45.5 -6.5t-50.5 -1.5q-63 0 -118.5 21t-97.5 65.5t-66 112.5t-24 162q0 97 27 165.5t70.5 112t98.5 63.5t111 20q61 0 96 -6q19 -3 46.5 -10.5t62.5 -21.5l-62 -96q-28 13 -62 20t-75 7q-36 0 -70 -13.5t-61 -43.5
t-43.5 -78.5t-16.5 -118.5q0 -63 15.5 -111t42.5 -79.5t64 -47.5t80 -16q40 0 72.5 10t58.5 26zM307 843h70l129 -104v-47h-100l-64 52l-2 3l-1 -2l-69 -53h-98v48z" />
    <glyph glyph-name="ccircumflex" unicode="&#x109;" horiz-adv-x="451" 
d="M451 76q-73 -64 -116 -75h1q-41 -12 -85 -12q-59 0 -99.5 18.5t-66.5 53t-37.5 82.5t-11.5 107q0 128 56.5 194.5t163.5 66.5q23 0 43 -2t35 -5q17 -4 44 -15.5t66 -31.5l-74 -79q-27 14 -54 22.5t-53 8.5q-113 0 -113 -159q0 -31 6 -60t20 -51t37 -35t57 -13q29 0 55 11
t46 27zM220 715h50l125 -206h-109l-43 72l-3 8l-3 -8l-48 -72h-108z" />
    <glyph glyph-name="Ccaron" unicode="&#x10c;" horiz-adv-x="571" 
d="M563 61q-36 -26 -65.5 -42.5t-53.5 -21.5q-22 -5 -45.5 -6.5t-50.5 -1.5q-63 0 -118.5 21t-97.5 65.5t-66 112.5t-24 162q0 97 27 165.5t70.5 112t98.5 63.5t111 20q61 0 96 -6q19 -3 46.5 -10.5t62.5 -21.5l-62 -96q-28 13 -62 20t-75 7q-36 0 -70 -13.5t-61 -43.5
t-43.5 -78.5t-16.5 -118.5q0 -63 15.5 -111t42.5 -79.5t64 -47.5t80 -16q40 0 72.5 10t58.5 26zM378 691h-67l-129 104v48h101l64 -54l1 -4l2 4l65 54h99v-49z" />
    <glyph glyph-name="ccaron" unicode="&#x10d;" horiz-adv-x="451" 
d="M451 76q-73 -64 -116 -75h1q-41 -12 -85 -12q-59 0 -99.5 18.5t-66.5 53t-37.5 82.5t-11.5 107q0 128 56.5 194.5t163.5 66.5q23 0 43 -2t35 -5q17 -4 44 -15.5t66 -31.5l-74 -79q-27 14 -54 22.5t-53 8.5q-113 0 -113 -159q0 -31 6 -60t20 -51t37 -35t57 -13q29 0 55 11
t46 27zM272 509h-55l-130 206h116l43 -72l4 -8l2 9l49 71h110z" />
    <glyph glyph-name="Dcaron" unicode="&#x10e;" horiz-adv-x="654" 
d="M58 698q42 4 68.5 6t49.5 2h5q22 1 45 1.5t40 0.5q84 0 146 -26t102.5 -72.5t60 -111.5t19.5 -143q0 -71 -18.5 -136.5t-59 -116t-104.5 -81t-155 -30.5q-17 0 -43 1l-54.5 2t-55.5 2.5t-46 3.5v698zM268 600h-27t-29 -1q-4 0 -9 -0.5t-10 -1.5q-4 -1 -9 -1h-9v-494h12.5
t11.5 -1q5 0 7.5 -0.5t6.5 -0.5q10 0 18 -0.5t15 -0.5h13q61 0 102 21.5t66 57t35.5 81.5t10.5 96q0 43 -9.5 86.5t-33 78.5t-63 57.5t-99.5 22.5zM302 691h-67l-129 104v48h101l64 -54l1 -4l2 4l65 54h99v-49z" />
    <glyph glyph-name="dcaron" unicode="&#x10f;" horiz-adv-x="589" 
d="M455 163v-38.5t1.5 -38t4.5 -41t8 -47.5h-87l-13 46q-23 -25 -56.5 -40t-75.5 -15q-103 0 -151.5 62t-48.5 197q0 129 61 194.5t167 65.5q26 0 44.5 -1.5t34.5 -6.5v185h111v-522zM250 91q76 0 94 84v217q-14 8 -31 11t-45 3q-55 0 -86.5 -37.5t-31.5 -120.5q0 -34 5 -63
t17 -50t31 -32.5t47 -11.5zM619 685q-2 -34 -13 -68.5t-25 -64.5t-29 -52.5t-25 -32.5l-59 31q20 41 29.5 89.5t9.5 97.5h112z" />
    <glyph glyph-name="Dcroat" unicode="&#x110;" horiz-adv-x="658" 
d="M-12 409h85v288q50 8 103.5 9.5t92.5 1.5q84 0 146 -26t102 -72.5t59.5 -111.5t19.5 -143q0 -71 -18.5 -136.5t-58.5 -116t-104 -81t-155 -30.5q-15 0 -41.5 0.5t-55 2t-53.5 3.5t-37 5v312h-85v95zM271 600q-19 0 -41.5 -0.5t-39.5 -2.5v-188h139v-95h-139v-213
q17 -2 40.5 -2h31.5q61 0 102 21.5t65.5 57t35 81.5t10.5 96q0 43 -9.5 86.5t-33 78.5t-62.5 57.5t-99 22.5z" />
    <glyph glyph-name="dcroat" unicode="&#x111;" horiz-adv-x="540" 
d="M456 622h75v-92h-75v-367v-38.5t1.5 -38t4.5 -41t8 -47.5h-87l-13 46q-23 -25 -56 -40t-75 -15q-103 0 -152 62t-49 197q0 129 61 194.5t167 65.5q26 0 44.5 -1.5t34.5 -6.5v30h-145v92h145v63h111v-63zM251 91q76 0 94 84v217q-13 8 -30.5 11t-45.5 3q-55 0 -86 -37.5
t-31 -120.5q0 -34 5 -63t17 -50t31 -32.5t46 -11.5z" />
    <glyph glyph-name="Emacron" unicode="&#x112;" horiz-adv-x="536" 
d="M69 700h398v-108h-282v-179h254v-107h-254v-198h287v-108h-403v700zM94 818h330v-95h-330v95z" />
    <glyph glyph-name="emacron" unicode="&#x113;" horiz-adv-x="508" 
d="M442 44q-36 -29 -84 -45.5t-99 -16.5q-57 0 -99.5 19.5t-70.5 54.5q-26 35 -41 98q-12 58 -12 88q0 128 57.5 194.5t164.5 66.5q35 0 70 -7.5t62.5 -29.5t45 -61t17.5 -103q0 -15 -2 -36t-6 -50h-293q1 -7 2.5 -16t3.5 -19q7 -39 23 -59q30 -38 100 -38q14 0 30 4
t31.5 10.5t29.5 15.5t24 18zM259 401q-42 0 -69 -20.5t-36 -69.5h189q-4 50 -25.5 70t-58.5 20zM92 632h311v-94h-311v94z" />
    <glyph glyph-name="Edotaccent" unicode="&#x116;" horiz-adv-x="536" 
d="M69 700h398v-108h-282v-179h254v-107h-254v-198h287v-108h-403v700zM194 756q0 28 19.5 47.5t56.5 19.5q35 0 56 -19.5t21 -47.5q0 -29 -21 -48t-56 -19q-37 0 -56.5 19t-19.5 48z" />
    <glyph glyph-name="edotaccent" unicode="&#x117;" horiz-adv-x="508" 
d="M442 44q-36 -29 -84 -45.5t-99 -16.5q-57 0 -99.5 19.5t-70.5 54.5q-26 35 -41 98q-12 58 -12 88q0 128 57.5 194.5t164.5 66.5q35 0 70 -7.5t62.5 -29.5t45 -61t17.5 -103q0 -15 -2 -36t-6 -50h-293q1 -7 2.5 -16t3.5 -19q7 -39 23 -59q30 -38 100 -38q14 0 30 4
t31.5 10.5t29.5 15.5t24 18zM259 401q-42 0 -69 -20.5t-36 -69.5h189q-4 50 -25.5 70t-58.5 20zM197 622q0 29 19.5 50t50.5 21q30 0 51 -21t21 -50q0 -30 -21 -48.5t-51 -18.5q-31 0 -50.5 18.5t-19.5 48.5z" />
    <glyph glyph-name="Eogonek" unicode="&#x118;" horiz-adv-x="536" 
d="M69 700h398v-108h-282v-179h259v-107h-259v-198h287v-108h-48q-20 -12 -30 -27t-10 -36q0 -12 7.5 -21t21.5 -9q13 0 52 19l18 -76q-22 -17 -51 -25.5t-52 -8.5q-51 0 -81.5 27.5t-30.5 75.5t33 81h-232v700z" />
    <glyph glyph-name="eogonek" unicode="&#x119;" horiz-adv-x="508" 
d="M442 51q-18 -15 -33.5 -24t-29.5 -15h1q-26 -14 -41.5 -32t-16.5 -42q1 -12 9 -20.5t23 -9.5h-1q16 3 51 17l17 -73q-21 -17 -50.5 -25t-50.5 -8q-51 1 -80.5 27t-30.5 74q0 39 24 71q-51 4 -88.5 24t-61.5 53.5t-35.5 79.5t-11.5 102q0 128 57.5 194.5t164.5 66.5
q35 0 70 -7.5t62.5 -29t45 -61t17.5 -103.5q0 -14 -2 -35.5t-6 -50.5h-295q4 -63 34.5 -98t96.5 -35q14 0 30 4t31.5 10.5t29.5 15.5t24 18zM259 409q-42 0 -69 -20.5t-36 -69.5h189q-4 50 -25.5 70t-58.5 20z" />
    <glyph glyph-name="Ecaron" unicode="&#x11a;" horiz-adv-x="536" 
d="M69 700h398v-108h-282v-179h254v-107h-254v-198h287v-108h-403v700zM290 691h-67l-129 104v48h101l64 -54l1 -4l2 4l65 54h99v-49z" />
    <glyph glyph-name="ecaron" unicode="&#x11b;" horiz-adv-x="508" 
d="M442 44q-36 -29 -84 -45.5t-99 -16.5q-57 0 -99.5 19.5t-70.5 54.5q-26 35 -41 98q-12 58 -12 88q0 128 57.5 194.5t164.5 66.5q35 0 70 -7.5t62.5 -29.5t45 -61t17.5 -103q0 -15 -2 -36t-6 -50h-293q1 -7 2.5 -16t3.5 -19q7 -39 23 -59q30 -38 100 -38q14 0 30 4
t31.5 10.5t29.5 15.5t24 18zM259 401q-42 0 -69 -20.5t-36 -69.5h189q-4 50 -25.5 70t-58.5 20zM281 509h-55l-130 206h116l43 -72l4 -8l2 9l49 71h110z" />
    <glyph glyph-name="Gcircumflex" unicode="&#x11c;" horiz-adv-x="612" 
d="M293 368h260v-366q-14 -3 -22 -4t-13 -0.5t-8.5 1.5t-7.5 2q-11 2 -23 3.5t-22 -1.5q-26 -8 -52.5 -11t-52.5 -3q-68 0 -124.5 21.5t-98 65.5t-64.5 112.5t-23 161.5q0 97 28.5 165.5t73.5 112t101.5 63.5t112.5 20q59 0 101.5 -8t77.5 -23l-30 -106q-31 14 -66.5 22
t-75.5 8q-36 0 -72 -13t-65 -43t-47 -78.5t-18 -119.5q0 -65 15 -112.5t41.5 -79t63.5 -47t81 -15.5q47 0 84 17v153q-37 -1 -79 -1t-76 -1v104zM318 843h70l129 -104v-47h-100l-64 52l-2 3l-1 -2l-69 -53h-98v48z" />
    <glyph glyph-name="gcircumflex" unicode="&#x11d;" horiz-adv-x="537" 
d="M454 -3q0 -100 -52.5 -146.5t-155.5 -46.5q-57 0 -96.5 9.5t-72.5 23.5l31 98q28 -11 57.5 -20t67.5 -9q33 0 54.5 6t34 19.5t17.5 35t5 52.5v2q-40 -31 -108 -31q-104 0 -152 62.5t-48 195.5q0 129 61 194.5t181 65.5q55 0 97.5 -9.5t78.5 -23.5v-478zM249 92
q75 0 94 82v221q-16 7 -34.5 9t-41.5 2q-55 0 -86 -38t-31 -119q0 -70 22.5 -113.5t76.5 -43.5zM243 715h50l125 -206h-109l-43 72l-3 8l-3 -8l-48 -72h-108z" />
    <glyph glyph-name="Gbreve" unicode="&#x11e;" horiz-adv-x="612" 
d="M293 368h260v-366q-14 -3 -22 -4t-13 -0.5t-8.5 1.5t-7.5 2q-11 2 -23 3.5t-22 -1.5q-26 -8 -52.5 -11t-52.5 -3q-68 0 -124.5 21.5t-98 65.5t-64.5 112.5t-23 161.5q0 97 28.5 165.5t73.5 112t101.5 63.5t112.5 20q59 0 101.5 -8t77.5 -23l-30 -106q-31 14 -66.5 22
t-75.5 8q-36 0 -72 -13t-65 -43t-47 -78.5t-18 -119.5q0 -65 15 -112.5t41.5 -79t63.5 -47t81 -15.5q47 0 84 17v153q-37 -1 -79 -1t-76 -1v104zM232 851q17 -35 47.5 -54t68.5 -19t66.5 21t42.5 50l69 -31q-21 -68 -70 -105t-109 -37q-55 0 -106.5 32.5t-79.5 102.5z" />
    <glyph glyph-name="gbreve" unicode="&#x11f;" horiz-adv-x="537" 
d="M454 -3q0 -100 -52.5 -146.5t-155.5 -46.5q-57 0 -96.5 9.5t-72.5 23.5l31 98q28 -11 57.5 -20t67.5 -9q33 0 54.5 6t34 19.5t17.5 35t5 52.5v2q-40 -31 -108 -31q-104 0 -152 62.5t-48 195.5q0 129 61 194.5t181 65.5q55 0 97.5 -9.5t78.5 -23.5v-478zM249 92
q75 0 94 82v221q-16 7 -34.5 9t-41.5 2q-55 0 -86 -38t-31 -119q0 -70 22.5 -113.5t76.5 -43.5zM169 709q18 -36 44 -56.5t52 -20.5t49 20t40 57l68 -29q-3 -28 -16.5 -55t-34.5 -48t-48.5 -33.5t-58.5 -12.5q-29 0 -55.5 10t-48.5 28.5t-38 45t-24 59.5z" />
    <glyph glyph-name="Gcommaaccent" unicode="&#x122;" horiz-adv-x="612" 
d="M293 368h260v-366q-14 -3 -22 -4t-13 -0.5t-8.5 1.5t-7.5 2q-11 2 -23 3.5t-22 -1.5q-26 -8 -52.5 -11t-52.5 -3q-68 0 -124.5 21.5t-98 65.5t-64.5 112.5t-23 161.5q0 97 28.5 165.5t73.5 112t101.5 63.5t112.5 20q59 0 101.5 -8t77.5 -23l-30 -106q-31 14 -66.5 22
t-75.5 8q-36 0 -72 -13t-65 -43t-47 -78.5t-18 -119.5q0 -65 15 -112.5t41.5 -79t63.5 -47t81 -15.5q47 0 84 17v153q-37 -1 -79 -1t-76 -1v104zM275 -76q0 28 20 45t46 17q30 0 54 -20.5t24 -67.5q0 -28 -11 -50t-26 -38t-31.5 -26.5t-28.5 -14.5l-50 57q34 20 46 42
q-20 4 -31.5 19t-11.5 37z" />
    <glyph glyph-name="gcommaaccent" unicode="&#x123;" horiz-adv-x="537" 
d="M454 -3q0 -100 -52.5 -146.5t-155.5 -46.5q-57 0 -96.5 9.5t-72.5 23.5l31 98q28 -11 57.5 -20t67.5 -9q33 0 54.5 6t34 19.5t17.5 35t5 52.5v2q-40 -31 -108 -31q-104 0 -152 62.5t-48 195.5q0 129 61 194.5t181 65.5q55 0 97.5 -9.5t78.5 -23.5v-478zM249 92
q75 0 94 82v221q-16 7 -34.5 9t-41.5 2q-55 0 -86 -38t-31 -119q0 -70 22.5 -113.5t76.5 -43.5zM364.005 582.99q0 -27.9961 -19.9971 -44.9941q-19.998 -16.998 -45.9951 -16.998q-29.9961 0 -53.9932 20.498q-23.9971 20.4971 -23.9971 67.4912q0 27.9971 10.999 49.9941
q10.998 21.9971 25.9961 37.9951q14.999 15.998 31.4971 26.4971q16.4971 10.499 28.4961 14.498l49.9941 -56.9932q-33.9961 -19.9971 -45.9951 -41.9941q19.998 -4 31.4971 -18.998q11.498 -14.998 11.498 -36.9961z" />
    <glyph glyph-name="Hcircumflex" unicode="&#x124;" horiz-adv-x="672" 
d="M467 304h-280v-304h-116v700h116v-289h280v289h116v-700h-116v304zM294 843h70l129 -104v-47h-100l-64 52l-2 3l-1 -2l-69 -53h-98v48z" />
    <glyph glyph-name="hcircumflex" unicode="&#x125;" horiz-adv-x="547" 
d="M360 0v282q0 64 -15.5 95.5t-64.5 31.5q-36 0 -65.5 -23.5t-40.5 -59.5v-326h-111v685h111v-216q24 20 54.5 31t72.5 11q44 0 76 -9.5t53 -34t31 -65.5t10 -104v-298h-111zM249 843h70l129 -104v-47h-100l-64 52l-2 3l-1 -2l-69 -53h-98v48z" />
    <glyph glyph-name="Hbar" unicode="&#x126;" horiz-adv-x="677" 
d="M-1 593h74v107h117v-107h280v107h116v-107h75v-98h-75v-495h-116v304h-280v-304h-117v495h-74v98zM470 411v84h-280v-84h280z" />
    <glyph glyph-name="hbar" unicode="&#x127;" horiz-adv-x="549" 
d="M-11 622h74v63h112v-63h148v-92h-148v-61q23 20 53.5 31t72.5 11q44 0 76.5 -9.5t53.5 -34t31 -65.5t10 -104v-298h-111v282q0 64 -16 95.5t-65 31.5q-36 0 -65.5 -23.5t-39.5 -59.5v-326h-112v530h-74v92z" />
    <glyph glyph-name="Imacron" unicode="&#x12a;" horiz-adv-x="291" 
d="M83 700h117v-700h-117v700zM-25 818h330v-95h-330v95z" />
    <glyph glyph-name="imacron" unicode="&#x12b;" horiz-adv-x="268" 
d="M73 500h112v-500h-112v500zM-27 632h311v-94h-311v94z" />
    <glyph glyph-name="Iogonek" unicode="&#x12e;" horiz-adv-x="291" 
d="M17 -82q0 70 66 108v674h116v-700h-27q-39 -24 -39 -64q0 -11 7.5 -20.5t21.5 -9.5q13 0 51 19l18 -76q-21 -17 -50 -25t-52 -8q-51 0 -81.5 26.5t-30.5 75.5z" />
    <glyph glyph-name="iogonek" unicode="&#x12f;" horiz-adv-x="269" 
d="M3 -81q0 71 70 108v473h111v-500h-30q-37 -26 -37 -63q0 -11 7.5 -20t21.5 -9q12 0 50 19l17 -75q-20 -17 -49 -25t-52 -8q-50 0 -79.5 26t-29.5 74zM57 622q0 29 19.5 50t49.5 21t51.5 -21t21.5 -50q0 -30 -21.5 -48.5t-51.5 -18.5t-49.5 18.5t-19.5 48.5z" />
    <glyph glyph-name="Idotaccent" unicode="&#x130;" horiz-adv-x="291" 
d="M83 700h117v-700h-117v700zM66 756q0 28 19.5 47.5t56.5 19.5q35 0 56 -19.5t21 -47.5q0 -29 -21 -48t-56 -19q-37 0 -56.5 19t-19.5 48z" />
    <glyph glyph-name="dotlessi" unicode="&#x131;" horiz-adv-x="268" 
d="M73 500h112v-500h-112v500z" />
    <glyph glyph-name="Jcircumflex" unicode="&#x134;" horiz-adv-x="291" 
d="M-61 700h264v-535q0 -86 -38 -130t-116 -44q-9 0 -22 0.5t-27 2.5q-18 1 -48 19q-31 20 -61 133l116 9q15 -57 33 -57q29 0 37.5 23t8.5 63v408q-35 0 -74.5 1t-72.5 1v106zM113 843h70l129 -104v-47h-100l-64 52l-2 3l-1 -2l-69 -53h-98v48z" />
    <glyph glyph-name="jcircumflex" unicode="&#x135;" horiz-adv-x="267" 
d="M71 500h111v-506q0 -96 -34 -143t-109 -47h-12.5t-11.5 1q-2 0 -11 0.5t-11 0.5v100q26 0 41.5 7t23.5 21t10.5 35.5t2.5 51.5v479zM108 715h50l125 -206h-109l-43 72l-3 8l-3 -8l-48 -72h-108z" />
    <glyph glyph-name="Kcommaaccent" unicode="&#x136;" horiz-adv-x="610" 
d="M203 306h-16v-306h-116v700h116v-295h14l111.5 147.5l111.5 147.5h140l-268 -336q3 -3 5.5 -6.5t5.5 -6.5l287 -351h-150zM213 -76q0 28 20 45t46 17q30 0 54 -20.5t24 -67.5q0 -28 -11 -50t-26 -38t-31.5 -26.5t-28.5 -14.5l-50 57q34 20 46 42q-20 4 -31.5 19t-11.5 37
z" />
    <glyph glyph-name="kcommaaccent" unicode="&#x137;" horiz-adv-x="479" 
d="M188 208h-14v-208h-111v685h111v-393h11l71 103.5l71 104.5h135l-194 -234l53 -64.5l56 -69l55.5 -68.5l51.5 -64h-140zM164 -76q0 28 20 45t46 17q30 0 54 -20.5t24 -67.5q0 -28 -11 -50t-26 -38t-31.5 -26.5t-28.5 -14.5l-50 57q34 20 46 42q-20 4 -31.5 19t-11.5 37z
" />
    <glyph glyph-name="Lacute" unicode="&#x139;" horiz-adv-x="517" 
d="M499 0h-430v700h117v-592h313v-108zM216 843h132v-49l-165 -98h-113z" />
    <glyph glyph-name="lacute" unicode="&#x13a;" horiz-adv-x="292" 
d="M179 132q0 -23 6.5 -32t17.5 -9t28 3t45 13l13 -93q-22 -12 -54 -18.5t-53 -6.5q-51 0 -82.5 28t-31.5 94v574h111v-553zM193 843h132v-49l-165 -98h-113z" />
    <glyph glyph-name="Lcommaaccent" unicode="&#x13b;" horiz-adv-x="517" 
d="M499 0h-430v700h117v-592h313v-108zM173 -76q0 28 20 45t46 17q30 0 54 -20.5t24 -67.5q0 -28 -11 -50t-26 -38t-31.5 -26.5t-28.5 -14.5l-50 57q34 20 46 42q-20 4 -31.5 19t-11.5 37z" />
    <glyph glyph-name="lcommaaccent" unicode="&#x13c;" horiz-adv-x="292" 
d="M179 132q0 -23 6.5 -32t17.5 -9t28 3t45 13l13 -93q-22 -12 -54 -18.5t-53 -6.5q-51 0 -82.5 28t-31.5 94v574h111v-553zM98 -76q0 28 20 45t46 17q30 0 54 -20.5t24 -67.5q0 -28 -11 -50t-26 -38t-31.5 -26.5t-28.5 -14.5l-50 57q34 20 46 42q-20 4 -31.5 19t-11.5 37z
" />
    <glyph glyph-name="Lcaron" unicode="&#x13d;" horiz-adv-x="517" 
d="M499 0h-430v700h117v-592h313v-108zM434 685q-2 -34 -13 -68.5t-25 -64.5t-29 -52.5t-25 -32.5l-59 31q20 41 29.5 89.5t9.5 97.5h112z" />
    <glyph glyph-name="lcaron" unicode="&#x13e;" horiz-adv-x="292" 
d="M179 132q0 -23 6.5 -32t17.5 -9t28 3t45 13l13 -93q-22 -12 -54 -18.5t-53 -6.5q-51 0 -82.5 28t-31.5 94v574h111v-553zM326 685q-2 -34 -13 -68.5t-25 -64.5t-29 -52.5t-25 -32.5l-59 31q20 41 29.5 89.5t9.5 97.5h112z" />
    <glyph glyph-name="Lslash" unicode="&#x141;" horiz-adv-x="517" 
d="M2 300l66 52v348h117v-256l54 42l47 37v-125l-101 -77v-213h313v-108h-430v231l-36 -28.5l-30 -22.5v120z" />
    <glyph glyph-name="lslash" unicode="&#x142;" horiz-adv-x="292" 
d="M-4 292l71 54v339h111v-251l51.5 40l44.5 35v-121l-96 -74v-182q0 -23 6.5 -32t17.5 -9t28 3t45 13l13 -93q-11 -6 -25.5 -10.5t-29.5 -8t-29 -5t-24 -1.5q-50 0 -81.5 28t-31.5 94v118l-39 -29.5l-32 -24.5v117z" />
    <glyph glyph-name="Nacute" unicode="&#x143;" horiz-adv-x="673" 
d="M190 446l-9 15q0 -2 0.5 -3.5t0.5 -3.5v-454h-111v710h70l324 -451l8 -14v3v452h111v-710h-70zM392 843h132v-49l-165 -98h-113z" />
    <glyph glyph-name="nacute" unicode="&#x144;" horiz-adv-x="547" 
d="M360 0v282q0 64 -16.5 95.5t-61.5 31.5q-42 0 -69 -21t-39 -55v-333h-111v500h101l1 -33q24 20 58 32t77 12q42 0 74 -9.5t53.5 -34t32.5 -65.5t11 -104v-298h-111zM283 704h114v-45l-103 -130h-80z" />
    <glyph glyph-name="Ncommaaccent" unicode="&#x145;" horiz-adv-x="673" 
d="M190 446l-9 15q0 -2 0.5 -3.5t0.5 -3.5v-454h-111v710h70l324 -451l8 -14v3v452h111v-710h-70zM260 -76q0 28 20 45t46 17q30 0 54 -20.5t24 -67.5q0 -28 -11 -50t-26 -38t-31.5 -26.5t-28.5 -14.5l-50 57q34 20 46 42q-20 4 -31.5 19t-11.5 37z" />
    <glyph glyph-name="ncommaaccent" unicode="&#x146;" horiz-adv-x="547" 
d="M360 0v282q0 64 -16.5 95.5t-61.5 31.5q-42 0 -69 -21t-39 -55v-333h-111v500h101l1 -33q24 20 58 32t77 12q42 0 74 -9.5t53.5 -34t32.5 -65.5t11 -104v-298h-111zM197 -76q0 28 20 45t46 17q30 0 54 -20.5t24 -67.5q0 -28 -11 -50t-26 -38t-31.5 -26.5t-28.5 -14.5
l-50 57q34 20 46 42q-20 4 -31.5 19t-11.5 37z" />
    <glyph glyph-name="Ncaron" unicode="&#x147;" horiz-adv-x="673" 
d="M190 446l-9 15q0 -2 0.5 -3.5t0.5 -3.5v-454h-111v710h70l324 -451l8 -14v3v452h111v-710h-70zM360 691h-67l-129 104v48h101l64 -54l1 -4l2 4l65 54h99v-49z" />
    <glyph glyph-name="ncaron" unicode="&#x148;" horiz-adv-x="547" 
d="M360 0v282q0 64 -16.5 95.5t-61.5 31.5q-42 0 -69 -21t-39 -55v-333h-111v500h101l1 -33q24 20 58 32t77 12q42 0 74 -9.5t53.5 -34t32.5 -65.5t11 -104v-298h-111zM291 509h-55l-130 206h116l43 -72l4 -8l2 9l49 71h110z" />
    <glyph glyph-name="Omacron" unicode="&#x14c;" horiz-adv-x="684" 
d="M43 350q0 176 74.5 268.5t214.5 92.5q75 0 129.5 -26t90 -73t53 -113.5t17.5 -148.5q0 -176 -75 -268.5t-215 -92.5q-74 0 -128.5 25.5t-90 73t-53 114t-17.5 148.5zM164 350q0 -51 10 -97t30.5 -81t52 -55.5t75.5 -20.5q80 0 124.5 62t44.5 192q0 50 -10 96t-30.5 81
t-52.5 56t-76 21q-79 0 -123.5 -62t-44.5 -192zM175 818h330v-95h-330v95z" />
    <glyph glyph-name="omacron" unicode="&#x14d;" horiz-adv-x="536" 
d="M37 250q0 128 56.5 194.5t164.5 66.5q57 0 98.5 -18.5t69 -53t40.5 -82.5t13 -107q0 -128 -56.5 -194.5t-164.5 -66.5q-57 0 -98.5 18.5t-69 53t-40.5 82.5t-13 107zM151 250q0 -32 5.5 -60.5t18.5 -50.5t33.5 -35t49.5 -13q107 -1 107 159q0 32 -6 61t-18.5 50.5
t-33 34.5t-49.5 13q-107 1 -107 -159zM105 632h311v-94h-311v94z" />
    <glyph glyph-name="Ohungarumlaut" unicode="&#x150;" horiz-adv-x="684" 
d="M43 350q0 176 74.5 268.5t214.5 92.5q75 0 129.5 -26t90 -73t53 -113.5t17.5 -148.5q0 -176 -75 -268.5t-215 -92.5q-74 0 -128.5 25.5t-90 73t-53 114t-17.5 148.5zM164 350q0 -51 10 -97t30.5 -81t52 -55.5t75.5 -20.5q80 0 124.5 62t44.5 192q0 50 -10 96t-30.5 81
t-52.5 56t-76 21q-79 0 -123.5 -62t-44.5 -192zM295 824h114v-42l-102 -96h-94zM446 824h119v-43l-145 -95h-103z" />
    <glyph glyph-name="ohungarumlaut" unicode="&#x151;" horiz-adv-x="536" 
d="M37 250q0 128 56.5 194.5t164.5 66.5q57 0 98.5 -18.5t69 -53t40.5 -82.5t13 -107q0 -128 -56.5 -194.5t-164.5 -66.5q-57 0 -98.5 18.5t-69 53t-40.5 82.5t-13 107zM151 250q0 -32 5.5 -60.5t18.5 -50.5t33.5 -35t49.5 -13q107 -1 107 159q0 32 -6 61t-18.5 50.5
t-33 34.5t-49.5 13q-107 1 -107 -159zM197 685h105v-39l-74 -117h-73zM336 685h108v-41l-116 -115h-81z" />
    <glyph glyph-name="OE" unicode="&#x152;" horiz-adv-x="932" 
d="M449 589q-25 9 -53.5 12t-60.5 3q-79 0 -123 -62t-44 -192q0 -51 10 -97t31 -81t54 -55.5t80 -20.5q25 0 48 1t58 11v481zM471 0q-49 -11 -136 -11q-74 0 -128.5 25.5t-90 73t-52.5 114t-17 148.5q0 176 74 268.5t214 92.5q46 0 76 -3t59 -8h377v-108h-282v-179h258v-107
h-258v-198h287v-108h-381z" />
    <glyph glyph-name="oe" unicode="&#x153;" horiz-adv-x="858" 
d="M157 250q0 -32 5.5 -60.5t18.5 -50.5t33.5 -35t49.5 -13q107 -2 107 159q0 32 -5.5 61t-18.5 50.5t-33 34.5t-50 13q-107 1 -107 -159zM590 -11q-55 0 -96 19.5t-69 53.5q-28 -35 -68 -54t-93 -19q-57 0 -98.5 18.5t-69 53t-40.5 82.5t-13 107q0 128 56.5 194.5
t164.5 66.5q55 0 95 -20t67 -52q27 34 68 53t95 19q35 0 70 -7.5t62.5 -29t44.5 -61t17 -103.5q0 -16 -1 -36t-6 -50h-296q3 -64 33.5 -99t97.5 -35q30 0 62.5 15t53.5 34l45 -88q-36 -29 -83.5 -45.5t-98.5 -16.5zM674 319h19l-19 -18v8v10zM590 410q-42 0 -69.5 -20
t-37.5 -71h191q-2 49 -24.5 70t-59.5 21z" />
    <glyph glyph-name="Racute" unicode="&#x154;" horiz-adv-x="595" 
d="M70 691q44 8 95.5 12.5t92.5 4.5q47 0 89.5 -10.5t75 -34.5t52 -62.5t19.5 -94.5q0 -37 -10.5 -68.5t-29.5 -56.5t-44 -43t-54 -27l52.5 -76l55.5 -80.5l55 -80l51 -74.5h-136l-208 298q-9 1 -18 1.5t-21 0.5v-300h-117v691zM260 602h-39.5t-33.5 -2v-210h55
q57 0 94 27.5t37 85.5q0 43 -29.5 71t-83.5 28zM305 843h132v-49l-165 -98h-113z" />
    <glyph glyph-name="racute" unicode="&#x155;" horiz-adv-x="340" 
d="M311 385q-45 16 -66 16q-31 0 -50 -16.5t-24 -41.5v-343h-111v500h104l-1 -24q17 16 39 24.5t51 8.5q14 0 34.5 -3.5t47.5 -11.5zM178 704h114v-45l-103 -130h-80z" />
    <glyph glyph-name="Rcommaaccent" unicode="&#x156;" horiz-adv-x="595" 
d="M70 691q44 8 95.5 12.5t92.5 4.5q47 0 89.5 -10.5t75 -34.5t52 -62.5t19.5 -94.5q0 -37 -10.5 -68.5t-29.5 -56.5t-44 -43t-54 -27l52.5 -76l55.5 -80.5l55 -80l51 -74.5h-136l-208 298q-9 1 -18 1.5t-21 0.5v-300h-117v691zM260 602h-39.5t-33.5 -2v-210h55
q57 0 94 27.5t37 85.5q0 43 -29.5 71t-83.5 28zM220 -76q0 28 20 45t46 17q30 0 54 -20.5t24 -67.5q0 -28 -11 -50t-26 -38t-31.5 -26.5t-28.5 -14.5l-50 57q34 20 46 42q-20 4 -31.5 19t-11.5 37z" />
    <glyph glyph-name="rcommaaccent" unicode="&#x157;" horiz-adv-x="340" 
d="M311 385q-45 16 -66 16q-31 0 -50 -16.5t-24 -41.5v-343h-111v500h104l-1 -24q17 16 39 24.5t51 8.5q14 0 34.5 -3.5t47.5 -11.5zM66 -76q0 28 20 45t46 17q30 0 54 -20.5t24 -67.5q0 -28 -11 -50t-26 -38t-31.5 -26.5t-28.5 -14.5l-50 57q34 20 46 42q-20 4 -31.5 19
t-11.5 37z" />
    <glyph glyph-name="Rcaron" unicode="&#x158;" horiz-adv-x="595" 
d="M70 691q44 8 95.5 12.5t92.5 4.5q47 0 89.5 -10.5t75 -34.5t52 -62.5t19.5 -94.5q0 -37 -10.5 -68.5t-29.5 -56.5t-44 -43t-54 -27l52.5 -76l55.5 -80.5l55 -80l51 -74.5h-136l-208 298q-9 1 -18 1.5t-21 0.5v-300h-117v691zM260 602h-39.5t-33.5 -2v-210h55
q57 0 94 27.5t37 85.5q0 43 -29.5 71t-83.5 28zM273 691h-67l-129 104v48h101l64 -54l1 -4l2 4l65 54h99v-49z" />
    <glyph glyph-name="rcaron" unicode="&#x159;" horiz-adv-x="340" 
d="M311 385q-45 16 -66 16q-31 0 -50 -16.5t-24 -41.5v-343h-111v500h104l-1 -24q17 16 39 24.5t51 8.5q14 0 34.5 -3.5t47.5 -11.5zM209 509h-55l-130 206h116l43 -72l4 -8l2 9l49 71h110z" />
    <glyph glyph-name="Sacute" unicode="&#x15a;" horiz-adv-x="531" 
d="M367 187q0 22 -10.5 39.5t-28.5 31.5t-41 25.5t-48 22.5l-68 33.5t-61.5 42.5t-44.5 59t-17 83q0 87 58.5 137t167.5 50q60 0 113 -11t88 -28l-35 -105q-28 14 -73.5 25.5t-96.5 11.5q-54 0 -80 -22.5t-26 -52.5q0 -21 11 -37t29 -30t41 -26l48 -24q33 -16 67 -35
t61.5 -44.5t45 -59t17.5 -79.5q0 -47 -16.5 -84.5t-48 -64.5t-77 -41.5t-102.5 -14.5q-75 0 -128 13.5t-85 30.5l40 108q28 -15 73.5 -30t96.5 -15q55 0 92.5 22t37.5 69zM331 843h132v-49l-165 -98h-113z" />
    <glyph glyph-name="sacute" unicode="&#x15b;" horiz-adv-x="421" 
d="M264 144q0 14 -7 24t-18.5 17.5t-26.5 13.5l-31 12q-24 9 -49 20t-45.5 28.5t-33 42.5t-12.5 62q0 77 42.5 112t119.5 35q52 0 92 -11t72 -27l-27 -97q-28 14 -61.5 23.5t-66.5 9.5q-31 0 -45.5 -10t-14.5 -33q0 -20 22.5 -32.5t53.5 -24.5q25 -9 51.5 -20.5t47.5 -29.5
t34.5 -45t13.5 -67q0 -34 -11 -63t-33.5 -50t-56 -33t-78.5 -12q-57 0 -100 13t-75 31l35 98q27 -14 64.5 -27t70.5 -13q32 0 52.5 11.5t20.5 41.5zM219 704h114v-45l-103 -130h-80z" />
    <glyph glyph-name="Scircumflex" unicode="&#x15c;" horiz-adv-x="531" 
d="M367 187q0 22 -10.5 39.5t-28.5 31.5t-41 25.5t-48 22.5l-68 33.5t-61.5 42.5t-44.5 59t-17 83q0 87 58.5 137t167.5 50q60 0 113 -11t88 -28l-35 -105q-28 14 -73.5 25.5t-96.5 11.5q-54 0 -80 -22.5t-26 -52.5q0 -21 11 -37t29 -30t41 -26l48 -24q33 -16 67 -35
t61.5 -44.5t45 -59t17.5 -79.5q0 -47 -16.5 -84.5t-48 -64.5t-77 -41.5t-102.5 -14.5q-75 0 -128 13.5t-85 30.5l40 108q28 -15 73.5 -30t96.5 -15q55 0 92.5 22t37.5 69zM239 843h70l129 -104v-47h-100l-64 52l-2 3l-1 -2l-69 -53h-98v48z" />
    <glyph glyph-name="scircumflex" unicode="&#x15d;" horiz-adv-x="421" 
d="M264 144q0 14 -7 24t-18.5 17.5t-26.5 13.5l-31 12q-24 9 -49 20t-45.5 28.5t-33 42.5t-12.5 62q0 77 42.5 112t119.5 35q52 0 92 -11t72 -27l-27 -97q-28 14 -61.5 23.5t-66.5 9.5q-31 0 -45.5 -10t-14.5 -33q0 -20 22.5 -32.5t53.5 -24.5q25 -9 51.5 -20.5t47.5 -29.5
t34.5 -45t13.5 -67q0 -34 -11 -63t-33.5 -50t-56 -33t-78.5 -12q-57 0 -100 13t-75 31l35 98q27 -14 64.5 -27t70.5 -13q32 0 52.5 11.5t20.5 41.5zM184 715h50l125 -206h-109l-43 72l-3 8l-3 -8l-48 -72h-108z" />
    <glyph glyph-name="Scedilla" unicode="&#x15e;" horiz-adv-x="531" 
d="M367 187q0 22 -10.5 39.5t-28.5 31.5t-41 25.5t-48 22.5l-68 33.5t-61.5 42.5t-44.5 59t-17 83q0 87 58.5 137t167.5 50q60 0 113 -11t88 -28l-35 -105q-28 14 -73.5 25.5t-96.5 11.5q-54 0 -80 -22.5t-26 -52.5q0 -21 11 -37t29 -30t41 -26l48 -24q33 -16 67 -35
t61.5 -44.5t45 -59t17.5 -79.5q0 -82 -46.5 -134.5t-136.5 -66.5l-2 -2q35 -11 50.5 -31.5t15.5 -52.5q0 -45 -35.5 -74.5t-99.5 -29.5q-11 0 -26.5 1.5t-38.5 6.5l17 73q17 -2 23 -2.5t11 -0.5q28 0 34.5 6t6.5 12q0 9 -91 19l37 72q-60 3 -104 15.5t-72 27.5l40 108
q28 -15 73.5 -30t96.5 -15q55 0 92.5 22t37.5 69z" />
    <glyph glyph-name="scedilla" unicode="&#x15f;" horiz-adv-x="421" 
d="M264 144q0 14 -7 24t-18.5 17.5t-26.5 13.5l-31 12q-24 9 -49 20t-45.5 28.5t-33 42.5t-12.5 62q0 77 42.5 112t119.5 35q53 0 93 -11t72 -27l-29 -96q-28 13 -61.5 22.5t-65.5 9.5q-31 0 -45.5 -10t-14.5 -33q0 -20 22.5 -32.5t53.5 -24.5q25 -9 51.5 -20.5t47.5 -29.5
t34.5 -45t13.5 -67q0 -60 -33.5 -102t-104.5 -53l-1 -1q34 -11 49 -30.5t15 -51.5q0 -45 -34 -73.5t-97 -28.5q-11 0 -26 1.5t-38 6.5l16 71q17 -2 23 -2.5t11 -0.5q28 0 34 6.5t6 11.5q0 9 -91 18l38 73q-36 5 -65.5 16t-55.5 26l35 96q13 -7 29.5 -14t34.5 -12t36 -8.5
t35 -3.5q32 0 52.5 11t20.5 41z" />
    <glyph glyph-name="Scaron" unicode="&#x160;" horiz-adv-x="531" 
d="M367 187q0 22 -10.5 39.5t-28.5 31.5t-41 25.5t-48 22.5l-68 33.5t-61.5 42.5t-44.5 59t-17 83q0 87 58.5 137t167.5 50q60 0 113 -11t88 -28l-35 -105q-28 14 -73.5 25.5t-96.5 11.5q-54 0 -80 -22.5t-26 -52.5q0 -21 11 -37t29 -30t41 -26l48 -24q33 -16 67 -35
t61.5 -44.5t45 -59t17.5 -79.5q0 -47 -16.5 -84.5t-48 -64.5t-77 -41.5t-102.5 -14.5q-75 0 -128 13.5t-85 30.5l40 108q28 -15 73.5 -30t96.5 -15q55 0 92.5 22t37.5 69zM318 691h-67l-129 104v48h101l64 -54l1 -4l2 4l65 54h99v-49z" />
    <glyph glyph-name="scaron" unicode="&#x161;" horiz-adv-x="421" 
d="M264 144q0 14 -7 24t-18.5 17.5t-26.5 13.5l-31 12q-24 9 -49 20t-45.5 28.5t-33 42.5t-12.5 62q0 77 42.5 112t119.5 35q52 0 92 -11t72 -27l-27 -97q-28 14 -61.5 23.5t-66.5 9.5q-31 0 -45.5 -10t-14.5 -33q0 -20 22.5 -32.5t53.5 -24.5q25 -9 51.5 -20.5t47.5 -29.5
t34.5 -45t13.5 -67q0 -34 -11 -63t-33.5 -50t-56 -33t-78.5 -12q-57 0 -100 13t-75 31l35 98q27 -14 64.5 -27t70.5 -13q32 0 52.5 11.5t20.5 41.5zM227 509h-55l-130 206h116l43 -72l4 -8l2 9l49 71h110z" />
    <glyph glyph-name="uni021A" unicode="&#x162;" horiz-adv-x="555" 
d="M534 592h-206v-592h-116v592h-206v108h528v-108zM199 -76q0 28 20 45t46 17q30 0 54 -20.5t24 -67.5q0 -28 -11 -50t-26 -38t-31.5 -26.5t-28.5 -14.5l-50 57q34 20 46 42q-20 4 -31.5 19t-11.5 37z" />
    <glyph glyph-name="uni021A" unicode="&#x21a;" horiz-adv-x="555" 
d="M534 592h-206v-592h-116v592h-206v108h528v-108zM199 -76q0 28 20 45t46 17q30 0 54 -20.5t24 -67.5q0 -28 -11 -50t-26 -38t-31.5 -26.5t-28.5 -14.5l-50 57q34 20 46 42q-20 4 -31.5 19t-11.5 37z" />
    <glyph glyph-name="uni021B" unicode="&#x163;" horiz-adv-x="339" 
d="M-2 500h60q8 26 16 56t16 55l91 2v-113h126v-102h-126v-238q0 -38 8 -53.5t27 -15.5q21 0 41.5 7t47.5 18l27 -92q-32 -15 -67.5 -25t-72.5 -10q-67 0 -94.5 36t-27.5 121v252h-72v102zM111 -76q0 28 20 45t46 17q30 0 54 -20.5t24 -67.5q0 -28 -11 -50t-26 -38
t-31.5 -26.5t-28.5 -14.5l-50 57q34 20 46 42q-20 4 -31.5 19t-11.5 37z" />
    <glyph glyph-name="uni021B" unicode="&#x21b;" horiz-adv-x="339" 
d="M-2 500h60q8 26 16 56t16 55l91 2v-113h126v-102h-126v-238q0 -38 8 -53.5t27 -15.5q21 0 41.5 7t47.5 18l27 -92q-32 -15 -67.5 -25t-72.5 -10q-67 0 -94.5 36t-27.5 121v252h-72v102zM111 -76q0 28 20 45t46 17q30 0 54 -20.5t24 -67.5q0 -28 -11 -50t-26 -38
t-31.5 -26.5t-28.5 -14.5l-50 57q34 20 46 42q-20 4 -31.5 19t-11.5 37z" />
    <glyph glyph-name="Tcaron" unicode="&#x164;" horiz-adv-x="555" 
d="M534 592h-206v-592h-116v592h-206v108h528v-108zM300 691h-67l-129 104v48h101l64 -54l1 -4l2 4l65 54h99v-49z" />
    <glyph glyph-name="tcaron" unicode="&#x165;" horiz-adv-x="339" 
d="M-2 500h60q8 26 16 56t16 55l91 2v-113h126v-102h-126v-238q0 -38 8 -53.5t27 -15.5q21 0 41.5 7t47.5 18l27 -92q-32 -15 -67.5 -25t-72.5 -10q-67 0 -94.5 36t-27.5 121v252h-72v102zM318 699q-2 -34 -13 -68.5t-25 -64.5t-29 -52.5t-25 -32.5l-59 31q20 41 29.5 89.5
t9.5 97.5h112z" />
    <glyph glyph-name="Umacron" unicode="&#x16a;" horiz-adv-x="652" 
d="M451 700h113v-461q0 -65 -17 -112t-48.5 -77t-75 -44.5t-97.5 -14.5q-256 0 -256 233v476h117v-439q0 -89 34.5 -125.5t105.5 -36.5q67 0 95.5 37.5t28.5 124.5v439zM155 818h330v-95h-330v95z" />
    <glyph glyph-name="umacron" unicode="&#x16b;" horiz-adv-x="539" 
d="M168 500v-282q0 -64 14.5 -95.5t57.5 -31.5q41 0 67 24.5t39 59.5v325h111v-350q0 -17 0.5 -33.5t1.5 -35.5q2 -14 17.5 -34.5t47.5 -46.5h-158l-3 45q-23 -25 -57 -40.5t-80 -15.5q-42 0 -73.5 9.5t-52.5 34t-32 65.5t-11 104v298h111zM107 632h311v-94h-311v94z" />
    <glyph glyph-name="Ubreve" unicode="&#x16c;" horiz-adv-x="652" 
d="M451 700h113v-461q0 -65 -17 -112t-48.5 -77t-75 -44.5t-97.5 -14.5q-256 0 -256 233v476h117v-439q0 -89 34.5 -125.5t105.5 -36.5q67 0 95.5 37.5t28.5 124.5v439zM206 851q17 -35 47.5 -54t68.5 -19t66.5 21t42.5 50l69 -31q-21 -68 -70 -105t-109 -37
q-55 0 -106.5 32.5t-79.5 102.5z" />
    <glyph glyph-name="ubreve" unicode="&#x16d;" horiz-adv-x="539" 
d="M168 500v-282q0 -64 14.5 -95.5t57.5 -31.5q41 0 67 24.5t39 59.5v325h111v-350q0 -17 0.5 -33.5t1.5 -35.5q2 -14 17.5 -34.5t47.5 -46.5h-158l-3 45q-23 -25 -57 -40.5t-80 -15.5q-42 0 -73.5 9.5t-52.5 34t-32 65.5t-11 104v298h111zM170 709q18 -36 44 -56.5
t52 -20.5t49 20t40 57l68 -29q-3 -28 -16.5 -55t-34.5 -48t-48.5 -33.5t-58.5 -12.5q-29 0 -55.5 10t-48.5 28.5t-38 45t-24 59.5z" />
    <glyph glyph-name="Uring" unicode="&#x16e;" horiz-adv-x="652" 
d="M451 700h113v-461q0 -65 -17 -112t-48.5 -77t-75 -44.5t-97.5 -14.5q-256 0 -256 233v476h117v-439q0 -89 34.5 -125.5t105.5 -36.5q67 0 95.5 37.5t28.5 124.5v439zM208 730q0 42 27.5 69.5t88.5 27.5q56 0 86.5 -24.5t30.5 -72.5q0 -42 -29 -69t-88 -27
q-57 0 -86.5 25.5t-29.5 70.5zM302 730q0 -19 22 -19q23 0 23 19q0 20 -23 20q-22 0 -22 -20z" />
    <glyph glyph-name="uring" unicode="&#x16f;" horiz-adv-x="539" 
d="M168 500v-282q0 -64 14.5 -95.5t57.5 -31.5q41 0 67 24.5t39 59.5v325h111v-350q0 -17 0.5 -33.5t1.5 -35.5q2 -14 17.5 -34.5t47.5 -46.5h-158l-3 45q-23 -25 -57 -40.5t-80 -15.5q-42 0 -73.5 9.5t-52.5 34t-32 65.5t-11 104v298h111zM155 614q0 48 29 75.5t79 27.5
q47 0 78 -24.5t31 -78.5q0 -45 -31 -73.5t-78 -28.5q-48 0 -78 26.5t-30 75.5zM242 614q0 -10 6.5 -15t14.5 -5q22 0 22 20q0 11 -6.5 16t-15.5 5q-8 0 -14.5 -4.5t-6.5 -16.5z" />
    <glyph glyph-name="Uhungarumlaut" unicode="&#x170;" horiz-adv-x="652" 
d="M451 700h113v-461q0 -65 -17 -112t-48.5 -77t-75 -44.5t-97.5 -14.5q-256 0 -256 233v476h117v-439q0 -89 34.5 -125.5t105.5 -36.5q67 0 95.5 37.5t28.5 124.5v439zM266 824h114v-42l-102 -96h-94zM417 824h119v-43l-145 -95h-103z" />
    <glyph glyph-name="uhungarumlaut" unicode="&#x171;" horiz-adv-x="539" 
d="M168 500v-282q0 -64 14.5 -95.5t57.5 -31.5q41 0 67 24.5t39 59.5v325h111v-350q0 -17 0.5 -33.5t1.5 -35.5q2 -14 17.5 -34.5t47.5 -46.5h-158l-3 45q-23 -25 -57 -40.5t-80 -15.5q-42 0 -73.5 9.5t-52.5 34t-32 65.5t-11 104v298h111zM196 685h105v-39l-74 -117h-73z
M335 685h108v-41l-116 -115h-81z" />
    <glyph glyph-name="Uogonek" unicode="&#x172;" horiz-adv-x="652" 
d="M451 700h113v-461q-2 -98 -39.5 -154t-103.5 -79q-47 -25 -47 -69q1 -12 8.5 -20.5t21.5 -9.5q10 1 22.5 5t29.5 11l18 -74q-20 -17 -48.5 -25t-53.5 -8q-51 0 -82 27.5t-31 75.5q0 43 26 74q-107 10 -161 66t-54 165v476h117v-439q0 -89 34.5 -125.5t105.5 -36.5
q66 0 94.5 38t29.5 124v439z" />
    <glyph glyph-name="uogonek" unicode="&#x173;" horiz-adv-x="539" 
d="M167 500v-282q0 -64 15 -95.5t57 -31.5q41 0 67 24.5t40 59.5v325h111v-350q0 -32 3.5 -71.5t11.5 -78.5h-36q-19 -8 -30 -26.5t-12 -38.5q2 -11 9.5 -18.5t20.5 -7.5q9 0 21 4t29 12l17 -73q-21 -17 -49 -25t-50 -8q-50 0 -78.5 24.5t-32.5 72.5q0 85 91 124l-2 6l-2 6
q-24 -28 -60 -45.5t-83 -17.5q-42 0 -73.5 9.5t-52.5 34t-32 65.5t-11 104v298h111z" />
    <glyph glyph-name="Ydieresis" unicode="&#x178;" horiz-adv-x="558" 
d="M215 275l-57 103.5l-60 109.5l-59.5 109l-56.5 103h137l159 -323l78 162l76 161h129l-230 -423v-277h-116v275zM118 754q0 28 19 45t49 17t48.5 -17t18.5 -45q0 -27 -18.5 -44t-48.5 -17t-49 17t-19 44zM296 754q0 28 18 45t48 17q31 0 50 -17t19 -45q0 -27 -19 -44
t-50 -17q-30 0 -48 17t-18 44z" />
    <glyph glyph-name="Zacute" unicode="&#x179;" 
d="M24 96l338 496h-338v108h483v-96l-340 -496h340v-108h-483v96zM314 843h132v-49l-165 -98h-113z" />
    <glyph glyph-name="zacute" unicode="&#x17a;" horiz-adv-x="447" 
d="M29 89l217 300l9 9h-226v102h366v-89l-219 -303l-7 -6h226v-102h-366v89zM219 704h114v-45l-103 -130h-80z" />
    <glyph glyph-name="Zdotaccent" unicode="&#x17b;" 
d="M24 96l338 496h-338v108h483v-96l-340 -496h340v-108h-483v96zM193 756q0 28 19.5 47.5t56.5 19.5q35 0 56 -19.5t21 -47.5q0 -29 -21 -48t-56 -19q-37 0 -56.5 19t-19.5 48z" />
    <glyph glyph-name="zdotaccent" unicode="&#x17c;" horiz-adv-x="447" 
d="M29 89l217 300l9 9h-226v102h366v-89l-219 -303l-7 -6h226v-102h-366v89zM154 622q0 29 19.5 50t50.5 21q30 0 51 -21t21 -50q0 -30 -21 -48.5t-51 -18.5q-31 0 -50.5 18.5t-19.5 48.5z" />
    <glyph glyph-name="Zcaron" unicode="&#x17d;" 
d="M24 96l338 496h-338v108h483v-96l-340 -496h340v-108h-483v96zM282 691h-67l-129 104v48h101l64 -54l1 -4l2 4l65 54h99v-49z" />
    <glyph glyph-name="zcaron" unicode="&#x17e;" horiz-adv-x="447" 
d="M29 89l217 300l9 9h-226v102h366v-89l-219 -303l-7 -6h226v-102h-366v89zM237 509h-55l-130 206h116l43 -72l4 -8l2 9l49 71h110z" />
    <glyph glyph-name="longs" unicode="&#x17f;" horiz-adv-x="249" 
d="M9 500h72v7q0 96 33.5 140t118.5 44q32 0 59 -5.5t62 -19.5l-27 -98q-31 13 -51.5 17t-36.5 4q-32 0 -39.5 -20t-7.5 -61v-508h-111v399h-72v101z" />
    <glyph glyph-name="florin" unicode="&#x192;" 
d="M317 398l-35 -207l-35 -207q-6 -37 -18 -69t-31 -56t-47 -38t-67 -14q-29 0 -64.5 9t-65.5 21l32 97q29 -11 50.5 -18t41.5 -7q27 0 40.5 27.5t24.5 92.5l30.5 184.5l29.5 184.5h-75v102h90q2 11 4.5 23t4.5 23q6 39 16.5 67t28.5 46.5t44.5 27.5t64.5 9q32 0 67.5 -9
t67.5 -23l-33 -95q-59 25 -96 25q-25 0 -34.5 -17t-15.5 -60l-3 -17h107v-102h-124z" />
    <glyph glyph-name="uni01F4" unicode="&#x1f4;" horiz-adv-x="612" 
d="M293 368h260v-366q-14 -3 -22 -4t-13 -0.5t-8.5 1.5t-7.5 2q-11 2 -23 3.5t-22 -1.5q-26 -8 -52.5 -11t-52.5 -3q-68 0 -124.5 21.5t-98 65.5t-64.5 112.5t-23 161.5q0 97 28.5 165.5t73.5 112t101.5 63.5t112.5 20q59 0 101.5 -8t77.5 -23l-30 -106q-31 14 -66.5 22
t-75.5 8q-36 0 -72 -13t-65 -43t-47 -78.5t-18 -119.5q0 -65 15 -112.5t41.5 -79t63.5 -47t81 -15.5q47 0 84 17v153q-37 -1 -79 -1t-76 -1v104zM413 843h132v-49l-165 -98h-113z" />
    <glyph glyph-name="uni01F5" unicode="&#x1f5;" horiz-adv-x="537" 
d="M454 -3q0 -100 -52.5 -146.5t-155.5 -46.5q-57 0 -96.5 9.5t-72.5 23.5l31 98q28 -11 57.5 -20t67.5 -9q33 0 54.5 6t34 19.5t17.5 35t5 52.5v2q-40 -31 -108 -31q-104 0 -152 62.5t-48 195.5q0 129 61 194.5t181 65.5q55 0 97.5 -9.5t78.5 -23.5v-478zM249 92
q75 0 94 82v221q-16 7 -34.5 9t-41.5 2q-55 0 -86 -38t-31 -119q0 -70 22.5 -113.5t76.5 -43.5zM287 704h114v-45l-103 -130h-80z" />
    <glyph glyph-name="Scommaaccent" unicode="&#x218;" horiz-adv-x="531" 
d="M367 187q0 22 -10.5 39.5t-28.5 31.5t-41 25.5t-48 22.5l-68 33.5t-61.5 42.5t-44.5 59t-17 83q0 87 58.5 137t167.5 50q60 0 113 -11t88 -28l-35 -105q-28 14 -73.5 25.5t-96.5 11.5q-54 0 -80 -22.5t-26 -52.5q0 -21 11 -37t29 -30t41 -26l48 -24q33 -16 67 -35
t61.5 -44.5t45 -59t17.5 -79.5q0 -47 -16.5 -84.5t-48 -64.5t-77 -41.5t-102.5 -14.5q-75 0 -128 13.5t-85 30.5l40 108q28 -15 73.5 -30t96.5 -15q55 0 92.5 22t37.5 69zM184 -76q0 28 20 45t46 17q30 0 54 -20.5t24 -67.5q0 -28 -11 -50t-26 -38t-31.5 -26.5t-28.5 -14.5
l-50 57q34 20 46 42q-20 4 -31.5 19t-11.5 37z" />
    <glyph glyph-name="scommaaccent" unicode="&#x219;" horiz-adv-x="421" 
d="M264 144q0 14 -7 24t-18.5 17.5t-26.5 13.5l-31 12q-24 9 -49 20t-45.5 28.5t-33 42.5t-12.5 62q0 77 42.5 112t119.5 35q52 0 92 -11t72 -27l-27 -97q-28 14 -61.5 23.5t-66.5 9.5q-31 0 -45.5 -10t-14.5 -33q0 -20 22.5 -32.5t53.5 -24.5q25 -9 51.5 -20.5t47.5 -29.5
t34.5 -45t13.5 -67q0 -34 -11 -63t-33.5 -50t-56 -33t-78.5 -12q-57 0 -100 13t-75 31l35 98q27 -14 64.5 -27t70.5 -13q32 0 52.5 11.5t20.5 41.5zM135 -76q0 28 20 45t46 17q30 0 54 -20.5t24 -67.5q0 -28 -11 -50t-26 -38t-31.5 -26.5t-28.5 -14.5l-50 57q34 20 46 42
q-20 4 -31.5 19t-11.5 37z" />
    <glyph glyph-name="uni0237" unicode="&#x237;" horiz-adv-x="267" 
d="M71 500h111v-506q0 -96 -34 -143t-109 -47h-12.5t-11.5 1q-2 0 -11 0.5t-11 0.5v100q26 0 41.5 7t23.5 21t10.5 35.5t2.5 51.5v479z" />
    <glyph glyph-name="afii57929" unicode="&#x2bc;" horiz-adv-x="194" 
d="M22 629q0 30 18.5 47t48.5 17q34 0 55.5 -21t21.5 -63q0 -34 -11.5 -60t-28 -44.5t-35 -29.5t-31.5 -16l-44 60q19 10 32 21.5t18 25.5q-20 4 -32 20.5t-12 42.5z" />
    <glyph glyph-name="circumflex" unicode="&#x2c6;" horiz-adv-x="386" 
d="M166 715h50l125 -206h-109l-43 72l-3 8l-3 -8l-48 -72h-108z" />
    <glyph glyph-name="caron" unicode="&#x2c7;" horiz-adv-x="395" 
d="M214 509h-55l-130 206h116l43 -72l4 -8l2 9l49 71h110z" />
    <glyph glyph-name="breve" unicode="&#x2d8;" horiz-adv-x="425" 
d="M113 709q18 -36 44 -56.5t52 -20.5t49 20t40 57l68 -29q-3 -28 -16.5 -55t-34.5 -48t-48.5 -33.5t-58.5 -12.5q-29 0 -55.5 10t-48.5 28.5t-38 45t-24 59.5z" />
    <glyph glyph-name="dotaccent" unicode="&#x2d9;" horiz-adv-x="233" 
d="M41 622q0 29 19.5 50t50.5 21q30 0 51 -21t21 -50q0 -30 -21 -48.5t-51 -18.5q-31 0 -50.5 18.5t-19.5 48.5z" />
    <glyph glyph-name="ring" unicode="&#x2da;" horiz-adv-x="315" 
d="M43 614q0 48 29 75.5t79 27.5q47 0 78 -24.5t31 -78.5q0 -45 -31 -73.5t-78 -28.5q-48 0 -78 26.5t-30 75.5zM130 614q0 -10 6.5 -15t14.5 -5q22 0 22 20q0 11 -6.5 16t-15.5 5q-8 0 -14.5 -4.5t-6.5 -16.5z" />
    <glyph glyph-name="ogonek" unicode="&#x2db;" horiz-adv-x="305" 
d="M215 46l6 -32q-30 -14 -47 -33t-17 -43q0 -11 7 -20t21 -9q12 0 50 19l18 -75q-21 -17 -49.5 -25.5t-50.5 -8.5q-51 0 -80.5 27t-29.5 74q0 46 29 76.5t81 49.5h62z" />
    <glyph glyph-name="tilde" unicode="&#x2dc;" horiz-adv-x="399" 
d="M41 629q35 39 62 54t50 15q20 0 35.5 -7.5l30.5 -15.5l-1 1q11 -5 20.5 -10t17.5 -5q14 0 47 33l40 -72q-32 -36 -57 -49t-45 -13q-19 0 -34.5 7t-29.5 15q-11 6 -20.5 10.5t-19.5 4.5q-8 0 -21 -9t-36 -32z" />
    <glyph glyph-name="hungarumlaut" unicode="&#x2dd;" horiz-adv-x="387" 
d="M81 685h105v-39l-74 -117h-73zM220 685h108v-41l-116 -115h-81z" />
    <glyph glyph-name="acutecomb" unicode="&#x301;" horiz-adv-x="2" 
d="M-247 704h114v-45l-103 -130h-80z" />
    <glyph glyph-name="uni2206" unicode="&#x394;" horiz-adv-x="568" 
d="M-10 0v78l239 631h82l239 -631v-78h-560zM265 418q-3 8 -6 15t-6 15l-6 33l37 -1q-2 -5 -2.5 -8t-1.5 -6q-2 -5 -4 -13.5t-4 -13.5zM334 239l-34.5 88.5l-34.5 90.5l-103 -280h212l-20.5 50.5z" />
    <glyph glyph-name="uni2206" unicode="&#x2206;" horiz-adv-x="568" 
d="M-10 0v78l239 631h82l239 -631v-78h-560zM265 418q-3 8 -6 15t-6 15l-6 33l37 -1q-2 -5 -2.5 -8t-1.5 -6q-2 -5 -4 -13.5t-4 -13.5zM334 239l-34.5 88.5l-34.5 90.5l-103 -280h212l-20.5 50.5z" />
    <glyph glyph-name="uni2126" unicode="&#x3a9;" horiz-adv-x="802" 
d="M204 372q0 -47 16.5 -81t42 -57t56.5 -36t60 -18q26 6 56.5 19t57 36t44 57.5t17.5 82.5q0 35 -10 70t-31 63t-54.5 45.5t-80.5 17.5q-84 0 -129 -49.5t-45 -149.5zM52 136h94q-42 41 -68 101t-26 137q0 78 23 140t66 105.5t103.5 67t134.5 23.5q79 0 140 -25t103 -70
t64 -107.5t22 -137.5q0 -40 -8 -74t-21.5 -63.5t-32 -53.5t-38.5 -43h100v-136h-656v136z" />
    <glyph glyph-name="uni2126" unicode="&#x2126;" horiz-adv-x="802" 
d="M204 372q0 -47 16.5 -81t42 -57t56.5 -36t60 -18q26 6 56.5 19t57 36t44 57.5t17.5 82.5q0 35 -10 70t-31 63t-54.5 45.5t-80.5 17.5q-84 0 -129 -49.5t-45 -149.5zM52 136h94q-42 41 -68 101t-26 137q0 78 23 140t66 105.5t103.5 67t134.5 23.5q79 0 140 -25t103 -70
t64 -107.5t22 -137.5q0 -40 -8 -74t-21.5 -63.5t-32 -53.5t-38.5 -43h100v-136h-656v136z" />
    <glyph glyph-name="pi" unicode="&#x3c0;" horiz-adv-x="664" 
d="M506 126q0 -28 11 -28q8 0 23.5 3t29.5 6l29 -82q-21 -9 -50 -19t-59 -10q-29 0 -47.5 8t-29 24t-14.5 38t-4 51v281h-139v-398h-111v397q-11 -2 -21 -14t-23 -33l-80 47q23 48 54.5 75.5t88.5 27.5h419v-102h-77v-272z" />
    <glyph glyph-name="afii10023" unicode="&#x401;" horiz-adv-x="536" 
d="M69 700h398v-108h-282v-179h254v-107h-254v-198h287v-108h-403v700zM105 754q0 28 19 45t49 17t48.5 -17t18.5 -45q0 -27 -18.5 -44t-48.5 -17t-49 17t-19 44zM283 754q0 28 18 45t48 17q31 0 50 -17t19 -45q0 -27 -19 -44t-50 -17q-30 0 -48 17t-18 44z" />
    <glyph glyph-name="afii10051" unicode="&#x402;" horiz-adv-x="728" 
d="M418 344q-26 0 -49.5 -5.5t-38.5 -10.5v-328h-116v592h-207v108h529v-108h-206v-155q18 5 45.5 9t67.5 4q41 0 81 -10t71 -34.5t50 -66.5t19 -106q0 -124 -62.5 -182.5t-176.5 -58.5q-32 0 -48.5 1t-37.5 7v105q28 -5 45 -6t43 -1q116 0 116 129q0 34 -10 57t-27 36
t-39.5 18.5t-48.5 5.5z" />
    <glyph glyph-name="afii10052" unicode="&#x403;" horiz-adv-x="442" 
d="M461 592h-276v-592h-116v700h392v-108zM300 843h132v-49l-165 -98h-113z" />
    <glyph glyph-name="afii10053" unicode="&#x404;" horiz-adv-x="583" 
d="M544 40q-38 -29 -88.5 -40t-102.5 -11q-63 0 -119.5 21t-99 65.5t-67.5 112.5t-25 162q0 97 27.5 165.5t72 112t100 63.5t111.5 20q60 0 104 -8t78 -22l-28 -109q-30 14 -68 23t-79 9q-32 0 -63 -10t-57 -32.5t-45 -59t-28 -88.5h287v-108h-289q5 -52 23.5 -91.5
t46 -65.5t62.5 -39.5t74 -13.5q40 0 77 12t65 29z" />
    <glyph glyph-name="afii10054" unicode="&#x405;" horiz-adv-x="531" 
d="M367 187q0 22 -10.5 39.5t-28.5 31.5t-41 25.5t-48 22.5l-68 33.5t-61.5 42.5t-44.5 59t-17 83q0 87 58.5 137t167.5 50q60 0 113 -11t88 -28l-35 -105q-28 14 -73.5 25.5t-96.5 11.5q-54 0 -80 -22.5t-26 -52.5q0 -21 11 -37t29 -30t41 -26l48 -24q33 -16 67 -35
t61.5 -44.5t45 -59t17.5 -79.5q0 -47 -16.5 -84.5t-48 -64.5t-77 -41.5t-102.5 -14.5q-75 0 -128 13.5t-85 30.5l40 108q28 -15 73.5 -30t96.5 -15q55 0 92.5 22t37.5 69z" />
    <glyph glyph-name="afii10055" unicode="&#x406;" horiz-adv-x="291" 
d="M83 700h117v-700h-117v700z" />
    <glyph glyph-name="afii10056" unicode="&#x407;" horiz-adv-x="293" 
d="M15 769q0 29 19.5 46.5t47.5 17.5t47.5 -17.5t19.5 -46.5t-19.5 -46t-47.5 -17t-47.5 17t-19.5 46zM137 769q0 29 19.5 46.5t47.5 17.5t47.5 -17.5t19.5 -46.5t-19.5 -46t-47.5 -17t-47.5 17t-19.5 46zM84 700h117v-700h-117v700z" />
    <glyph glyph-name="afii10057" unicode="&#x408;" horiz-adv-x="291" 
d="M-61 700h264v-535q0 -86 -38 -130t-116 -44q-9 0 -22 0.5t-27 2.5q-18 1 -48 19q-31 20 -61 133l116 9q15 -57 33 -57q29 0 37.5 23t8.5 63v408q-35 0 -74.5 1t-72.5 1v106z" />
    <glyph glyph-name="afii10058" unicode="&#x409;" horiz-adv-x="926" 
d="M424 592h-160q-5 -93 -11 -169.5t-14.5 -137.5t-20 -108t-27.5 -83q-23 -51 -56 -75t-72 -24q-19 0 -36 4t-38 13l15 103q27 -7 36 -7q11 0 23 8.5t23 30.5q13 25 24 68t19.5 109.5t14.5 159t9 216.5h388v-254q17 2 37.5 3t37.5 1q48 0 94.5 -10t83 -34.5t59 -66.5
t22.5 -106q0 -62 -21.5 -107.5t-58.5 -75t-88 -44t-109 -14.5q-13 0 -33 0.5t-43.5 3t-48.5 6t-49 9.5v581zM608 98q30 0 56.5 8t46.5 24t31.5 40t11.5 57q0 34 -12.5 57t-33 36t-47.5 18.5t-56 5.5q-13 0 -31.5 -1.5t-32.5 -3.5v-238q14 -2 32 -2.5t35 -0.5z" />
    <glyph glyph-name="afii10059" unicode="&#x40a;" horiz-adv-x="974" 
d="M472 318h-280v-318h-117v700h117v-274h280v274h116v-271q17 1 38 2t38 1q48 0 94 -8.5t82.5 -31.5t59 -63.5t22.5 -104.5q0 -62 -21.5 -106t-58.5 -72t-88 -41t-109 -13q-14 0 -34.5 1t-44 3t-48 5t-46.5 8v309zM655 98q31 0 57.5 6.5t46 21t31 37.5t11.5 55
q0 34 -12.5 55t-33 33t-47.5 16t-56 4q-13 0 -31.5 -1.5t-32.5 -3.5v-220q14 -2 32 -2.5t35 -0.5z" />
    <glyph glyph-name="afii10060" unicode="&#x40b;" horiz-adv-x="750" 
d="M330 0h-116v592h-206v108h528v-108h-206v-169q27 11 64.5 21t79.5 10q44 0 81 -10t63.5 -33.5t41 -63t14.5 -97.5v-250h-117v236q0 110 -98 110q-40 0 -73 -8.5t-56 -25.5v-312z" />
    <glyph glyph-name="afii10061" unicode="&#x40c;" horiz-adv-x="610" 
d="M203 306h-16v-306h-116v700h116v-295h14l111.5 147.5l111.5 147.5h140l-268 -336q3 -3 5.5 -6.5t5.5 -6.5l287 -351h-150zM326 843h132v-49l-165 -98h-113z" />
    <glyph glyph-name="afii10062" unicode="&#x40e;" horiz-adv-x="553" 
d="M291 341l7 -25l6 24l132 360h122l-178 -456q-26 -66 -46.5 -113.5t-43 -77.5t-48.5 -44t-62 -14q-35 0 -58.5 8t-48.5 24l36 101q29 -17 46 -21t28 -4q18 0 31.5 21.5t24.5 63.5l-62.5 125.5l-65.5 130.5l-65.5 130.5l-62.5 125.5h134zM216 846q3 -36 21 -55.5t47 -19.5
t46.5 20t23.5 55l103 -24q-14 -66 -55.5 -103.5t-118.5 -37.5q-73 0 -119.5 33t-57.5 105z" />
    <glyph glyph-name="afii10145" unicode="&#x40f;" horiz-adv-x="659" 
d="M70 0v700h117v-592h267v592h117v-700h-192l-8.5 -85.5t-6.5 -83.5h-84l-19 169h-191z" />
    <glyph glyph-name="afii10017" unicode="&#x410;" horiz-adv-x="585" 
d="M390 184h-217q-15 -45 -33 -93l-34 -91h-118l267 715l61 -6l265 -709h-123zM211 289h141l-32 88.5l-32 87.5l-6 17l-3.5 -9t-2.5 -9z" />
    <glyph glyph-name="afii10018" unicode="&#x411;" horiz-adv-x="550" 
d="M70 700h397v-108h-281v-157q15 2 32 3.5t34 1.5q52 0 99 -10t82.5 -34t56.5 -65t21 -103t-21 -106.5t-57 -73.5t-83.5 -42.5t-99.5 -13.5q-16 0 -37.5 0.5t-45.5 3t-49 6t-48 9.5v689zM260 98q27 0 50.5 7t41 21.5t28 36.5t10.5 52q0 37 -12 60.5t-32 36.5t-46.5 17.5
t-54.5 4.5q-14 0 -30 -1t-29 -3v-230q14 -2 34.5 -2h39.5z" />
    <glyph glyph-name="afii10019" unicode="&#x412;" horiz-adv-x="584" 
d="M507 530q0 -44 -20.5 -85.5t-64.5 -67.5q49 -17 84 -58.5t35 -111.5q0 -56 -22.5 -97t-60 -67t-85.5 -38.5t-98 -12.5q-14 0 -39 0.5t-54.5 2t-59.5 5t-52 9.5v682q42 8 94 12.5t107 4.5q40 0 81.5 -7t76 -26.5t56.5 -54.5t22 -90zM283 98q27 0 52 6t43.5 19t30 32.5
t11.5 45.5q0 33 -14 53t-36.5 31.5t-50 15.5t-55.5 4h-78v-203q7 -1 15.5 -0.5t16.5 -0.5q2 0 4.5 -0.5t4.5 -0.5q14 -1 29.5 -1.5t26.5 -0.5zM288 411l1 1h1zM217 409q15 0 36.5 0.5t35.5 2.5q39 14 68 39t29 63q0 25 -10.5 42t-27.5 27.5t-39 14.5t-45 4q-24 0 -43.5 -0.5
t-34.5 -2.5v-190h31z" />
    <glyph glyph-name="afii10020" unicode="&#x413;" horiz-adv-x="442" 
d="M461 592h-276v-592h-116v700h392v-108z" />
    <glyph glyph-name="afii10021" unicode="&#x414;" horiz-adv-x="669" 
d="M634 -122h-90l-14 122h-430q-4 -29 -8 -62l-7 -60h-90v230h75q9 17 24 59.5t28.5 114.5t23.5 175.5t10 242.5h392v-592h86v-230zM432 108v484h-164q-3 -92 -10 -166.5t-17 -133.5t-22.5 -104.5t-25.5 -79.5h239z" />
    <glyph glyph-name="afii10022" unicode="&#x415;" horiz-adv-x="536" 
d="M69 700h398v-108h-282v-179h254v-107h-254v-198h287v-108h-403v700z" />
    <glyph glyph-name="afii10024" unicode="&#x416;" horiz-adv-x="806" 
d="M331 700h113v-302q2 1 5 2t5 2l97 149l96 149h134l-212 -319l-22 -18q8 -5 14 -11t14 -11l234 -341h-142l-209 306h-14v-306h-113v311q-2 -1 -4 -1.5t-4 -1.5l-106 -154l-106 -154h-137l233 329l26 22q-7 6 -13.5 10.5t-12.5 9.5l-220 329h138l192 -297h14v297z" />
    <glyph glyph-name="afii10025" unicode="&#x417;" horiz-adv-x="541" 
d="M120 313v104h34h20.5t25 0.5t23.5 1t17 2.5q43 7 73.5 31t30.5 62q0 26 -9 43t-25 27.5t-36.5 15t-44.5 4.5q-49 0 -88 -9.5t-68 -23.5l-32 98q13 7 34 14.5t47.5 13.5t57.5 10t63 4q41 0 81 -8.5t71.5 -29.5t50.5 -56t19 -87q0 -44 -22.5 -84t-67.5 -66q52 -19 81 -60.5
t29 -104.5q0 -59 -23 -102t-60.5 -70.5t-85.5 -40.5t-98 -13q-66 0 -112.5 8.5t-79.5 22.5l31 110q29 -14 71.5 -24t96.5 -10q26 0 51 7t44.5 21t31.5 35.5t12 50.5q0 51 -36.5 74t-96.5 27h-6q-10 1 -17.5 1.5t-16.5 0.5h-71z" />
    <glyph glyph-name="afii10026" unicode="&#x418;" horiz-adv-x="681" 
d="M476 461q-1 -2 -1.5 -2.5t-1.5 -2.5l-328 -456h-74v700h116v-466l3 5l327 461h75v-700h-116v461z" />
    <glyph glyph-name="afii10027" unicode="&#x419;" horiz-adv-x="681" 
d="M476 461q-1 -2 -1.5 -2.5t-1.5 -2.5l-328 -456h-74v700h116v-466l3 5l327 461h75v-700h-116v461zM273 846q3 -36 21 -55.5t47 -19.5t46.5 20t23.5 55l103 -24q-14 -66 -55.5 -103.5t-118.5 -37.5q-73 0 -119.5 33t-57.5 105z" />
    <glyph glyph-name="afii10028" unicode="&#x41a;" horiz-adv-x="610" 
d="M203 306h-16v-306h-116v700h116v-295h14l111.5 147.5l111.5 147.5h140l-268 -336q3 -3 5.5 -6.5t5.5 -6.5l287 -351h-150z" />
    <glyph glyph-name="afii10029" unicode="&#x41b;" horiz-adv-x="624" 
d="M420 592h-161q-5 -93 -10.5 -169.5t-14 -137.5t-20.5 -108t-28 -83q-23 -51 -56 -75t-72 -24q-35 0 -73 17l15 103q27 -7 36 -7q11 0 22.5 8.5t22.5 30.5q13 25 24 68t19.5 109.5t14.5 159t9 216.5h388v-700h-116v592z" />
    <glyph glyph-name="afii10030" unicode="&#x41c;" horiz-adv-x="791" 
d="M581 455l-174 -301h-44l-179 294v-448h-112v700h88l214 -349l15 -34q4 9 6.5 17t5.5 16l206 350h90v-700h-116v455z" />
    <glyph glyph-name="afii10031" unicode="&#x41d;" horiz-adv-x="672" 
d="M467 304h-280v-304h-116v700h116v-289h280v289h116v-700h-116v304z" />
    <glyph glyph-name="afii10032" unicode="&#x41e;" horiz-adv-x="684" 
d="M43 350q0 176 74.5 268.5t214.5 92.5q75 0 129.5 -26t90 -73t53 -113.5t17.5 -148.5q0 -176 -75 -268.5t-215 -92.5q-74 0 -128.5 25.5t-90 73t-53 114t-17.5 148.5zM164 350q0 -51 10 -97t30.5 -81t52 -55.5t75.5 -20.5q80 0 124.5 62t44.5 192q0 50 -10 96t-30.5 81
t-52.5 56t-76 21q-79 0 -123.5 -62t-44.5 -192z" />
    <glyph glyph-name="afii10033" unicode="&#x41f;" horiz-adv-x="659" 
d="M454 592h-267v-592h-117v700h501v-700h-117v592z" />
    <glyph glyph-name="afii10034" unicode="&#x420;" horiz-adv-x="559" 
d="M70 689q48 11 93 15t85 4q47 0 95.5 -9.5t88 -34.5t64.5 -68.5t25 -110.5q0 -66 -23.5 -111.5t-62 -73t-88 -40t-102.5 -12.5q-11 0 -29.5 -0.5t-29.5 1.5v-249h-116v689zM250 602h-35t-29 -2v-243q11 -1 25.5 -1h23.5h6q29 0 57.5 5t51 19.5t36.5 39.5t14 65
q0 33 -13.5 55.5t-34.5 36t-48 19.5t-54 6z" />
    <glyph glyph-name="afii10035" unicode="&#x421;" horiz-adv-x="571" 
d="M563 61q-36 -26 -65.5 -42.5t-53.5 -21.5q-22 -5 -45.5 -6.5t-50.5 -1.5q-63 0 -118.5 21t-97.5 65.5t-66 112.5t-24 162q0 97 27 165.5t70.5 112t98.5 63.5t111 20q61 0 96 -6q19 -3 46.5 -10.5t62.5 -21.5l-62 -96q-28 13 -62 20t-75 7q-36 0 -70 -13.5t-61 -43.5
t-43.5 -78.5t-16.5 -118.5q0 -63 15.5 -111t42.5 -79.5t64 -47.5t80 -16q40 0 72.5 10t58.5 26z" />
    <glyph glyph-name="afii10036" unicode="&#x422;" horiz-adv-x="555" 
d="M534 592h-206v-592h-116v592h-206v108h528v-108z" />
    <glyph glyph-name="afii10037" unicode="&#x423;" horiz-adv-x="553" 
d="M291 341l7 -25l6 24l132 360h122l-178 -456q-26 -66 -46.5 -113.5t-43 -77.5t-48.5 -44t-62 -14q-35 0 -58.5 8t-48.5 24l36 101q29 -17 46 -21t28 -4q18 0 31.5 21.5t24.5 63.5l-62.5 125.5l-65.5 130.5l-65.5 130.5l-62.5 125.5h134z" />
    <glyph glyph-name="afii10038" unicode="&#x424;" horiz-adv-x="780" 
d="M322 71q-14 -2 -29 -2h-30q-48 0 -90.5 16.5t-74 50.5t-50 87t-18.5 127q0 69 18 123t51 91.5t79.5 57t102.5 19.5q12 0 21 0.5t20 -1.5v79h115v-80q16 2 32.5 2h27.5q49 0 91.5 -17.5t73.5 -53t49 -88.5t18 -123q0 -72 -20 -126.5t-54 -90.5t-79 -54.5t-96 -18.5h-20
t-23 2v-90h-115v90zM485 537h-24t-25 -2v-362q9 -1 17.5 -0.5t19.5 0.5q28 0 53 11.5t43.5 34.5t29 58t10.5 82q0 80 -33 129t-91 49zM277 173h21t25 2v361q-10 1 -20.5 1h-18.5q-57 0 -95.5 -46.5t-38.5 -140.5q0 -84 35 -130.5t92 -46.5z" />
    <glyph glyph-name="afii10039" unicode="&#x425;" horiz-adv-x="618" 
d="M231 356l-52.5 84l-55 89l-54.5 88.5l-51 82.5h139l140 -234q4 -8 4 -7.5t6 -9.5l76 126l76 125h132l-220 -338l56 -88l59 -93l59 -93l55 -88h-137l-157 271l-7.5 -12l-8.5 -13l-159 -246h-133z" />
    <glyph glyph-name="afii10040" unicode="&#x426;" horiz-adv-x="687" 
d="M652 -122h-90l-14 122h-476v700h116v-592h260v592h116v-592h88v-230z" />
    <glyph glyph-name="afii10041" unicode="&#x427;" horiz-adv-x="605" 
d="M176 700v-238q0 -111 99 -111q38 0 71 9.5t56 24.5v315h117v-700h-117v274q-26 -11 -63.5 -21t-79.5 -10q-44 0 -81 10t-63 33.5t-40.5 62.5t-14.5 98v253h116z" />
    <glyph glyph-name="afii10042" unicode="&#x428;" horiz-adv-x="877" 
d="M73 0v700h117v-592h178v592h117v-592h179v592h116v-700h-707z" />
    <glyph glyph-name="afii10043" unicode="&#x429;" horiz-adv-x="913" 
d="M75 0v700h116v-592h179v592h116v-592h179v592h116v-592h88v-230h-91l-14 122h-689z" />
    <glyph glyph-name="afii10044" unicode="&#x42a;" horiz-adv-x="630" 
d="M140 592h-152v108h268v-254q17 2 38 3t38 1q48 0 94 -10t83 -34.5t59.5 -66.5t22.5 -106q0 -62 -21.5 -107.5t-58.5 -75t-88 -44t-109 -14.5q-13 0 -33 0.5t-43.5 3t-48.5 6t-49 9.5v581zM324 98q30 0 56.5 8t46.5 24t31.5 40t11.5 57q0 34 -12.5 57t-33.5 36t-48 18.5
t-56 5.5q-13 0 -31.5 -1.5t-32.5 -3.5v-238q14 -2 32 -2.5t36 -0.5z" />
    <glyph glyph-name="afii10045" unicode="&#x42b;" horiz-adv-x="769" 
d="M560 700h116v-700h-116v700zM72 700h116v-254q13 2 31 3t32 1q48 0 93 -10t80 -34.5t56 -66.5t21 -106q0 -62 -19.5 -107.5t-54.5 -75t-83.5 -44t-107.5 -14.5q-26 0 -71.5 3.5t-92.5 15.5v689zM242 98q60 0 99 32t39 97q0 34 -11.5 57t-31 36t-45.5 18.5t-54 5.5
q-11 0 -25 -0.5t-25 -2.5v-240q11 -2 25 -2.5t29 -0.5z" />
    <glyph glyph-name="afii10046" unicode="&#x42c;" horiz-adv-x="555" 
d="M70 700h116v-254q17 2 37.5 3t37.5 1q48 0 94.5 -10t83 -34.5t59 -66.5t22.5 -106q0 -62 -21.5 -107.5t-58.5 -75t-88 -44t-109 -14.5q-13 0 -33 0.5t-43.5 3t-48.5 6t-48 9.5v689zM253 98q30 0 57 8t46.5 24t31 40t11.5 57q0 34 -12.5 57t-33 36t-47.5 18.5t-56 5.5
q-13 0 -31.5 -1.5t-32.5 -3.5v-238q14 -2 32 -2.5t35 -0.5z" />
    <glyph glyph-name="afii10047" unicode="&#x42d;" horiz-adv-x="577" 
d="M131 411h270q-16 94 -68 143.5t-127 49.5q-43 0 -79.5 -10.5t-65.5 -27.5l-34 98q38 22 87.5 34.5t101.5 12.5q64 0 119.5 -20t96.5 -63.5t64 -112t23 -165.5q0 -98 -26 -166.5t-70.5 -112t-103 -63t-123.5 -19.5q-48 0 -91 9t-78 23l33 106q29 -14 66.5 -22.5t74.5 -8.5
q33 0 66.5 10.5t61 35t47.5 64.5t26 98h-271v107z" />
    <glyph glyph-name="afii10048" unicode="&#x42e;" horiz-adv-x="893" 
d="M190 411h81q11 146 80 223t197 77q75 0 127 -26t85 -73t48 -113.5t15 -148.5q0 -176 -67.5 -268.5t-207.5 -92.5q-69 0 -119 22t-84 63t-52.5 99t-22.5 131h-80v-304h-116v700h116v-289zM390 350q0 -51 8.5 -97t27 -81t48.5 -55.5t74 -20.5q78 0 116 61.5t38 192.5
q0 50 -7.5 96t-25.5 81t-47.5 56t-73.5 21q-79 0 -118.5 -62t-39.5 -192z" />
    <glyph glyph-name="afii10049" unicode="&#x42f;" horiz-adv-x="569" 
d="M483 0h-116v284l-33 -7.5t-34 -6.5l-83 -135.5l-83 -134.5h-137l167 267l31 21q-59 23 -97 72.5t-38 127.5q0 63 21 105t57 67.5t84.5 36.5t102.5 11q31 0 71 -4t87 -15v-689zM321 602q-27 0 -52.5 -5.5t-45 -18.5t-31 -35t-11.5 -55q0 -31 11 -53t30.5 -36t45 -20.5
t54.5 -6.5h45v227q-9 2 -19.5 2.5t-26.5 0.5z" />
    <glyph glyph-name="afii10065" unicode="&#x430;" horiz-adv-x="496" 
d="M50 455q45 27 97 39.5t106 12.5t86.5 -15t50 -38t23 -51.5t5.5 -56.5q0 -29 -0.5 -57.5t-1.5 -56.5l-2 -47.5t-1 -46.5q0 -32 3 -69q0 -23 42 -37l-5 -34h-114l-15 48q-16 -16 -38 -29q-19 -10 -51 -17t-64 -7q-33 0 -62 10.5t-50 30t-33 47t-12 62.5q0 48 35 95
q39 50 102 57q29 4 59.5 6t63.5 2h10q5 0 7.5 0.5t4.5 0.5h4.5t7.5 -1q1 8 1 15v14q0 41 -16 57.5t-60 16.5q-15 0 -33.5 -3t-38.5 -8t-39 -12.5t-35 -16.5zM191 94q23 0 47 6t37 15q11 8 18.5 18.5t12.5 18.5v56q-9 1 -17 1h-17q-41 0 -83 -3q-17 -1 -29 -6.5t-19 -13.5
q-13 -19 -13 -36q0 -24 17.5 -40t45.5 -16z" />
    <glyph glyph-name="afii10066" unicode="&#x431;" horiz-adv-x="536" 
d="M295 570q-29 -2 -53 -7.5t-43 -18t-32 -34t-20 -56.5q27 24 59.5 34t77.5 10q95 0 145 -60t50 -178q0 -135 -57.5 -203t-162.5 -68q-112 0 -167 74.5t-55 235.5q0 83 9 142t25 99.5t39.5 65t53 39t63.5 21t73 10.5q43 4 73.5 14t61.5 39l14 -113q-13 -11 -27.5 -19
t-32.5 -13.5t-41 -8.5t-53 -5zM151 249q0 -32 6.5 -60.5t19.5 -50.5t33 -34.5t48 -12.5q107 0 107 163q0 62 -22.5 102t-71.5 40q-63 1 -91.5 -37t-28.5 -110z" />
    <glyph glyph-name="afii10067" unicode="&#x432;" horiz-adv-x="499" 
d="M63 497q7 1 22.5 2t23.5 2q26 2 56 3.5t73 1.5q102 0 145.5 -32.5t43.5 -99.5q0 -29 -12 -57.5t-41 -48.5q38 -17 54.5 -46t16.5 -73q0 -82 -56.5 -118.5t-169.5 -36.5q-37 0 -76.5 2.5t-79.5 6.5v494zM174 97q13 -2 26 -2h30q53 0 78.5 14t25.5 46q0 25 -21.5 40.5
t-75.5 15.5h-63v-114zM174 403h-2q-5 0 -8.5 -0.5t-8.5 -0.5l19 18v-17zM246 305q26 0 48 15t22 37q0 27 -18 37.5t-63 10.5q-22 0 -36 -0.5t-25 -1.5v-98h72z" />
    <glyph glyph-name="afii10068" unicode="&#x433;" horiz-adv-x="369" 
d="M368 398h-196v-398h-111v500h307v-102z" />
    <glyph glyph-name="afii10069" unicode="&#x434;" horiz-adv-x="541" 
d="M509 -118h-85l-13 118h-316q-4 -29 -7.5 -60.5l-6.5 -57.5h-85v220h63q8 13 18.5 41t20.5 75.5t17.5 116.5t9.5 165h316v-398h68v-220zM330 102v296h-103q-2 -34 -6.5 -73.5t-12 -79t-16.5 -76.5t-20 -67h158z" />
    <glyph glyph-name="afii10070" unicode="&#x435;" horiz-adv-x="508" 
d="M442 44q-36 -29 -84 -45.5t-99 -16.5q-57 0 -99.5 19.5t-70.5 54.5q-26 35 -41 98q-12 58 -12 88q0 128 57.5 194.5t164.5 66.5q35 0 70 -7.5t62.5 -29.5t45 -61t17.5 -103q0 -15 -2 -36t-6 -50h-293q1 -7 2.5 -16t3.5 -19q7 -39 23 -59q30 -38 100 -38q14 0 30 4
t31.5 10.5t29.5 15.5t24 18zM259 401q-42 0 -69 -20.5t-36 -69.5h189q-4 50 -25.5 70t-58.5 20z" />
    <glyph glyph-name="afii10072" unicode="&#x436;" horiz-adv-x="659" 
d="M246 207l-69.5 -103.5l-68.5 -103.5h-130l167 243l16 14q-8 7 -16 13l-15 11l-141 219h123l128 -200h19v200h110v-203q3 2 5.5 2t7.5 2l65 100l65 99h123l-146 -219l-21 -17l15.5 -13.5t15.5 -11.5l158 -239h-133l-136 208h-19v-208h-110v211z" />
    <glyph glyph-name="afii10073" unicode="&#x437;" horiz-adv-x="441" 
d="M105 206v98h83q27 0 50 15t23 38q0 26 -20 37t-62 11q-32 0 -66 -14.5t-57 -28.5l-33 94q35 20 78 35t99 15q172 0 172 -132q0 -29 -14 -57t-40 -48q39 -16 55 -46t16 -75q0 -33 -13 -61.5t-39.5 -49.5t-66.5 -33t-93 -12q-50 0 -87 10.5t-69 26.5l33 99q60 -34 127 -34
q97 0 97 60q0 25 -23 38.5t-78 13.5h-72z" />
    <glyph glyph-name="afii10074" unicode="&#x438;" horiz-adv-x="546" 
d="M352 287q-2 -4 -3 -5l-216 -282h-70v500h111v-293q1 2 1.5 2.5t1.5 2.5l215 288h71v-500h-111v287z" />
    <glyph glyph-name="afii10075" unicode="&#x439;" horiz-adv-x="546" 
d="M352 287q-2 -4 -3 -5l-216 -282h-70v500h111v-293q1 2 1.5 2.5t1.5 2.5l215 288h71v-500h-111v287zM204 694q10 -47 29 -65t42 -18t42 18.5t28 61.5l91 -28q-11 -69 -55.5 -106t-107.5 -37q-29 0 -56.5 8t-50 25t-38.5 43t-22 62z" />
    <glyph glyph-name="afii10076" unicode="&#x43a;" horiz-adv-x="478" 
d="M188 208h-14v-208h-111v500h111v-202q3 1 11 3l75 100l75 99h126l-166 -218l-23 -17q8 -7 16 -13l15 -11l178 -241h-137z" />
    <glyph glyph-name="afii10077" unicode="&#x43b;" horiz-adv-x="503" 
d="M310 398h-99v-12v1q-3 -41 -7 -85.5t-10.5 -88t-17 -83t-26.5 -69.5t-39 -47.5t-54 -17.5q-19 0 -36 3.5t-39 13.5l17 98q17 -6 26 -8.5t13 -2.5q14 0 25.5 16t20.5 59.5t15 121.5t9 203h313v-500h-111v398z" />
    <glyph glyph-name="afii10078" unicode="&#x43c;" horiz-adv-x="645" 
d="M447 294v5l-116 -189h-46l-115 178v-288h-105v500h102l135 -216l12 -24l5.5 12.5t6.5 11.5l128 216h102v-500h-109v294z" />
    <glyph glyph-name="afii10079" unicode="&#x43d;" horiz-adv-x="540" 
d="M346 205h-172v-205h-111v500h111v-194h172v194h111v-500h-111v205z" />
    <glyph glyph-name="afii10080" unicode="&#x43e;" horiz-adv-x="536" 
d="M37 250q0 128 56.5 194.5t164.5 66.5q57 0 98.5 -18.5t69 -53t40.5 -82.5t13 -107q0 -128 -56.5 -194.5t-164.5 -66.5q-57 0 -98.5 18.5t-69 53t-40.5 82.5t-13 107zM151 250q0 -32 5.5 -60.5t18.5 -50.5t33.5 -35t49.5 -13q107 -1 107 159q0 32 -6 61t-18.5 50.5
t-33 34.5t-49.5 13q-107 1 -107 -159z" />
    <glyph glyph-name="afii10081" unicode="&#x43f;" horiz-adv-x="535" 
d="M341 398h-167v-398h-111v500h389v-500h-111v398z" />
    <glyph glyph-name="afii10082" unicode="&#x440;" horiz-adv-x="541" 
d="M63 500h102v-30q47 41 118 41q101 0 151.5 -59t50.5 -193q0 -62 -16.5 -112t-47 -85t-73.5 -54t-95 -19q-26 0 -44 2t-35 7v-183h-111v685zM269 409q-77 0 -95 -84v-217q14 -9 30.5 -13t45.5 -4q56 0 88.5 42.5t32.5 126.5q0 68 -23 108.5t-79 40.5z" />
    <glyph glyph-name="afii10083" unicode="&#x441;" horiz-adv-x="451" 
d="M451 76q-73 -64 -116 -75h1q-41 -12 -85 -12q-59 0 -99.5 18.5t-66.5 53t-37.5 82.5t-11.5 107q0 128 56.5 194.5t163.5 66.5q23 0 43 -2t35 -5q17 -4 44 -15.5t66 -31.5l-74 -79q-27 14 -54 22.5t-53 8.5q-113 0 -113 -159q0 -31 6 -60t20 -51t37 -35t57 -13q29 0 55 11
t46 27z" />
    <glyph glyph-name="afii10084" unicode="&#x442;" horiz-adv-x="397" 
d="M392 398h-145v-398h-111v398h-144v102h400v-102z" />
    <glyph glyph-name="afii10085" unicode="&#x443;" horiz-adv-x="466" 
d="M243 146l50 178l50 176h115l-146 -441l-32 -92.5t-36 -79.5t-46.5 -56t-62.5 -21q-41 0 -103 46l54 67q10 -3 17.5 -5t12.5 -2q19 0 37.5 23t32.5 78l-97 241.5l-97 241.5h126z" />
    <glyph glyph-name="afii10086" unicode="&#x444;" horiz-adv-x="680" 
d="M274 -9q-13 -2 -24 -2h-22q-94 0 -143.5 63t-49.5 198q0 128 54.5 192.5t158.5 64.5h13t13 -1v179h107v-179q9 1 18.5 1h17.5q100 0 151.5 -57.5t51.5 -190.5q0 -62 -13.5 -112t-40 -85t-65 -54t-87.5 -19h-14.5t-18.5 2v-176h-107v176zM403 409h-12t-11 -1v-321h28
q51 0 76 44t25 128q0 70 -23.5 110t-82.5 40zM247 87h13.5t14.5 2v319q-5 1 -13 1h-13q-49 0 -76 -38.5t-27 -120.5q0 -35 6 -65t18.5 -52t31.5 -34t45 -12z" />
    <glyph glyph-name="afii10087" unicode="&#x445;" horiz-adv-x="515" 
d="M180 256l-41.5 59l-43 63l-43 63.5l-40.5 58.5h135l104 -164l53.5 83l53.5 81h128l-170 -241l43 -62.5l46.5 -67.5l46.5 -67l43 -62h-133l-115 181l-60 -92l-59 -89h-129z" />
    <glyph glyph-name="afii10088" unicode="&#x446;" horiz-adv-x="548" 
d="M517 -118h-85l-13 118h-355v500h111v-398h164v398h111v-398h67v-220z" />
    <glyph glyph-name="afii10089" unicode="&#x447;" horiz-adv-x="490" 
d="M147 500v-144q0 -21 2 -37.5t8.5 -28.5t18.5 -18.5t32 -6.5q31 0 54 6t36 14v215h111v-500h-111v181q-18 -8 -42.5 -13t-62.5 -5q-39 0 -68.5 8.5t-49.5 29t-30 55t-10 85.5v159h112z" />
    <glyph glyph-name="afii10090" unicode="&#x448;" horiz-adv-x="736" 
d="M66 0v500h112v-398h121v398h111v-398h121v398h111v-500h-576z" />
    <glyph glyph-name="afii10091" unicode="&#x449;" horiz-adv-x="753" 
d="M710 -120h-85l-14 120h-543v500h111v-398h121v398h111v-398h122v398h111v-398h66v-222z" />
    <glyph glyph-name="afii10092" unicode="&#x44a;" horiz-adv-x="497" 
d="M204 99q14 -2 24.5 -2.5t21.5 -0.5q49 0 72.5 18t23.5 51q0 29 -22.5 47.5t-70.5 18.5h-24.5t-24.5 -2v-130zM204 327q16 2 32 2.5t30 0.5q54 0 91 -12t60 -33.5t33 -50t10 -61.5q0 -94 -55 -136.5t-171 -42.5q-29 0 -63.5 2t-77.5 6v396h-102v102h213v-173z" />
    <glyph glyph-name="afii10093" unicode="&#x44b;" horiz-adv-x="660" 
d="M176 99q25 -3 47 -3q48 0 67 18t19 51q0 29 -18.5 47.5t-64.5 18.5q-12 0 -25 0.5t-25 -1.5v-131zM176 326q17 2 32.5 3t30.5 1q53 0 88.5 -12t56.5 -33.5t30 -50t9 -61.5q0 -94 -51 -136.5t-165 -42.5q-29 0 -64.5 2t-77.5 6v498h111v-174zM459 500h112v-500h-112v500z
" />
    <glyph glyph-name="afii10094" unicode="&#x44c;" horiz-adv-x="464" 
d="M173 99q25 -3 48 -3q48 0 71.5 18t23.5 51q0 29 -22.5 47.5t-70.5 18.5q-11 0 -24.5 0.5t-25.5 -1.5v-131zM173 326q17 2 32.5 3t30.5 1q54 0 91 -12t60 -33.5t33 -50t10 -61.5q0 -94 -54.5 -136.5t-171.5 -42.5q-29 0 -64 2t-78 6v498h111v-174z" />
    <glyph glyph-name="afii10095" unicode="&#x44d;" horiz-adv-x="465" 
d="M102 301h193q-8 48 -36.5 78t-76.5 30q-35 0 -65.5 -13t-53.5 -28l-42 90q37 26 80 39.5t95 13.5q112 0 164 -68.5t52 -192.5q0 -128 -59 -194.5t-166 -66.5q-94 0 -164 38l33 99q29 -16 63 -25.5t61 -9.5q53 -1 82.5 25.5t34.5 86.5h-195v98z" />
    <glyph glyph-name="afii10096" unicode="&#x44e;" horiz-adv-x="719" 
d="M444 -11q-53 0 -90.5 15t-62.5 43t-38.5 68t-17.5 90h-57v-205h-111v500h111v-194h58q11 100 62 152.5t148 52.5q56 0 95.5 -18.5t64 -53t36 -82.5t11.5 -107q0 -128 -51 -194.5t-158 -66.5zM343 250q0 -33 5 -61.5t17 -50.5t31.5 -34.5t49.5 -12.5q50 0 71.5 38.5
t21.5 120.5q0 33 -4.5 61.5t-15 50.5t-29 34.5t-45.5 12.5q-54 0 -78 -38.5t-24 -120.5z" />
    <glyph glyph-name="afii10097" unicode="&#x44f;" horiz-adv-x="475" 
d="M291 188q-10 -2 -20.5 -3t-21.5 -3l-61.5 -91l-61.5 -91h-135l135 192l10 10q-44 14 -70 47t-26 86q0 46 16 79.5t45 55t69.5 31.5t90.5 10q38 0 72.5 -5.5t68.5 -11.5v-494h-111v188zM291 406q-17 3 -34 3q-51 0 -77 -16.5t-26 -53.5q0 -33 28 -51t74 -18q1 0 1 -0.5
t2 -0.5h9t23 1v136z" />
    <glyph glyph-name="afii10071" unicode="&#x451;" horiz-adv-x="508" 
d="M442 44q-36 -29 -84 -45.5t-99 -16.5q-57 0 -99.5 19.5t-70.5 54.5q-26 35 -41 98q-12 58 -12 88q0 128 57.5 194.5t164.5 66.5q35 0 70 -7.5t62.5 -29.5t45 -61t17.5 -103q0 -15 -2 -36t-6 -50h-293q1 -7 2.5 -16t3.5 -19q7 -39 23 -59q30 -38 100 -38q14 0 30 4
t31.5 10.5t29.5 15.5t24 18zM259 401q-42 0 -69 -20.5t-36 -69.5h189q-4 50 -25.5 70t-58.5 20zM104 605q0 30 17.5 48t46.5 18q28 0 45.5 -18t17.5 -48q0 -27 -17.5 -45.5t-45.5 -18.5q-29 0 -46.5 18.5t-17.5 45.5zM281 605q0 30 17.5 48t46.5 18q30 0 47.5 -18t17.5 -48
q0 -27 -17.5 -45.5t-47.5 -18.5q-29 0 -46.5 18.5t-17.5 45.5z" />
    <glyph glyph-name="afii10099" unicode="&#x452;" horiz-adv-x="548" 
d="M-12 500h75v185h111v-185h148v-93h-148v-78q23 20 53.5 30.5t72.5 10.5q44 0 76.5 -9.5t53.5 -34t31 -65.5t10 -104v-163q0 -96 -34 -143t-109 -47h-12.5t-11.5 1q-3 0 -11.5 0.5t-10.5 0.5v100q26 0 41.5 7t23.5 21t10.5 35t2.5 50v122q0 64 -16 96t-65 32
q-36 0 -65 -24t-40 -60v-185h-111v407h-75v93z" />
    <glyph glyph-name="afii10100" unicode="&#x453;" horiz-adv-x="369" 
d="M368 398h-196v-398h-111v500h307v-102zM223 704h114v-45l-103 -130h-80z" />
    <glyph glyph-name="afii10101" unicode="&#x454;" horiz-adv-x="472" 
d="M438 43q-36 -26 -81.5 -40t-90.5 -14q-59 0 -102 18.5t-71.5 53t-42.5 82.5t-14 107q0 63 17 111.5t47.5 82t73.5 50.5t96 17q91 0 159 -36l-33 -101q-29 16 -60 25.5t-58 9.5q-106 2 -127 -107h216v-98h-217q9 -49 41 -81t94 -32q29 0 59.5 13.5t53.5 30.5z" />
    <glyph glyph-name="afii10102" unicode="&#x455;" horiz-adv-x="421" 
d="M264 144q0 14 -7 24t-18.5 17.5t-26.5 13.5l-31 12q-24 9 -49 20t-45.5 28.5t-33 42.5t-12.5 62q0 77 42.5 112t119.5 35q52 0 92 -11t72 -27l-27 -97q-28 14 -61.5 23.5t-66.5 9.5q-31 0 -45.5 -10t-14.5 -33q0 -20 22.5 -32.5t53.5 -24.5q25 -9 51.5 -20.5t47.5 -29.5
t34.5 -45t13.5 -67q0 -34 -11 -63t-33.5 -50t-56 -33t-78.5 -12q-57 0 -100 13t-75 31l35 98q27 -14 64.5 -27t70.5 -13q32 0 52.5 11.5t20.5 41.5z" />
    <glyph glyph-name="afii10103" unicode="&#x456;" horiz-adv-x="268" 
d="M74 500h111v-500h-111v500zM58 622q0 33 65 71q20 0 39 -18t41 -53q-44 -67 -81 -67q-64 34 -64 67z" />
    <glyph glyph-name="afii10104" unicode="&#x457;" horiz-adv-x="278" 
d="M13 605q0 29 16.5 46.5t46.5 17.5q29 0 46 -17.5t17 -46.5q0 -27 -17 -45.5t-46 -18.5q-30 0 -46.5 18.5t-16.5 45.5zM129 605q0 29 16.5 46.5t45.5 17.5q31 0 47.5 -17.5t16.5 -46.5q0 -27 -16.5 -45.5t-47.5 -18.5q-29 0 -45.5 18.5t-16.5 45.5zM77 500h111v-500h-111
v500z" />
    <glyph glyph-name="afii10105" unicode="&#x458;" horiz-adv-x="267" 
d="M71 500h111v-506q0 -96 -34 -143t-109 -47h-9t-8 1q-7 0 -23.5 0.5t-31.5 0.5v100q67 0 77 6q10 4 16 16q7 14 9 37.5t2 55.5v479zM55 622q0 33 65 71q37 0 81 -71q-23 -33 -41 -50t-35 -17q-33 0 -67 58z" />
    <glyph glyph-name="afii10106" unicode="&#x459;" horiz-adv-x="733" 
d="M426 326q17 2 32 3t31 1q53 0 90 -12t60 -33.5t33 -50t10 -61.5q0 -94 -54.5 -136.5t-171.5 -42.5q-29 0 -64 2t-77 6v396h-98q0 -3 -0.5 -5.5t-0.5 -6.5v1l-6.5 -85.5t-10 -88t-17 -83t-27 -69.5t-39.5 -47.5t-54 -17.5q-19 0 -36 3.5t-39 13.5l18 98q29 -11 38 -11
q14 0 25.5 16t20.5 59.5t15 121.5t9 203h313v-174zM426 98q24 -3 47 -3q49 0 72 18.5t23 51.5q0 29 -22 47.5t-70 18.5q-12 0 -25 0.5t-25 -1.5v-132z" />
    <glyph glyph-name="afii10107" unicode="&#x45a;" horiz-adv-x="770" 
d="M462 99q25 -3 48 -3q48 0 71.5 18t23.5 51q0 29 -22.5 47.5t-70.5 18.5q-11 0 -23.5 -0.5t-26.5 -2.5v-129zM462 326q17 2 32.5 3t30.5 1q54 0 91 -12t60 -33.5t33 -50t10 -61.5q0 -94 -54.5 -136.5t-171.5 -42.5q-29 0 -64 2t-78 6v204h-172v-206h-111v500h111v-192h172
v192h111v-174z" />
    <glyph glyph-name="afii10108" unicode="&#x45b;" horiz-adv-x="548" 
d="M-12 500h75v185h111v-185h148v-93h-148v-78q23 20 53.5 30.5t72.5 10.5q44 0 76.5 -9.5t53.5 -34t31 -65.5t10 -104v-157h-111v141q0 64 -16 96t-65 32q-36 0 -65 -24t-40 -60v-185h-111v407h-75v93z" />
    <glyph glyph-name="afii10109" unicode="&#x45c;" horiz-adv-x="478" 
d="M188 208h-14v-208h-111v500h111v-202q3 1 11 3l75 100l75 99h126l-166 -218l-23 -17q8 -7 16 -13l15 -11l178 -241h-137zM239 704h114v-45l-103 -130h-80z" />
    <glyph glyph-name="afii10110" unicode="&#x45e;" horiz-adv-x="466" 
d="M243 146l50 178l50 176h115l-146 -441l-32 -92.5t-36 -79.5t-46.5 -56t-62.5 -21q-41 0 -103 46l54 67q10 -3 17.5 -5t12.5 -2q19 0 37.5 23t32.5 78l-97 241.5l-97 241.5h126zM169 694q10 -47 29 -65t42 -18t42 18.5t28 61.5l91 -28q-11 -69 -55.5 -106t-107.5 -37
q-29 0 -56.5 8t-50 25t-38.5 43t-22 62z" />
    <glyph glyph-name="afii10193" unicode="&#x45f;" horiz-adv-x="535" 
d="M63 0v500h111v-398h167v398h111v-500h-136q-3 -39 -7.5 -84t-6.5 -82h-82l-18 166h-139z" />
    <glyph glyph-name="afii10146" unicode="&#x462;" horiz-adv-x="619" 
d="M-11 624h141v96h116v-96h196v-104h-196v-74q17 1 37.5 2t37.5 1q49 0 95.5 -9.5t83 -34t58.5 -66.5t22 -106q0 -62 -21.5 -107.5t-58.5 -75t-88 -44t-109 -14.5q-13 0 -33 0.5t-43.5 3t-48.5 6t-48 9.5v509h-141v104zM313 98q30 0 57 8t46.5 24t31 40t11.5 57
q0 34 -12.5 56.5t-33 36t-47.5 18.5t-55 5q-13 0 -32 -1.5t-33 -3.5v-237q14 -2 32.5 -2.5t34.5 -0.5z" />
    <glyph glyph-name="afii10194" unicode="&#x463;" horiz-adv-x="497" 
d="M-9 500h101v185h111v-185h148v-98h-148v-76q17 2 32.5 3t30.5 1q54 0 91 -12t60 -33.5t33 -50t10 -61.5q0 -94 -55 -136.5t-171 -42.5q-29 0 -64.5 2t-77.5 6v400h-101v98zM203 99q27 -3 47 -3q49 0 72.5 18t23.5 51q0 29 -22.5 47.5t-70.5 18.5h-25t-25 -2v-130z" />
    <glyph glyph-name="afii10147" unicode="&#x472;" horiz-adv-x="684" 
d="M43 350q0 176 74.5 268.5t214.5 92.5q75 0 129.5 -26t90 -73t53 -113.5t17.5 -148.5q0 -176 -75 -268.5t-215 -92.5q-74 0 -128.5 25.5t-90 73t-53 114t-17.5 148.5zM499 409q-9 100 -53.5 147.5t-113.5 47.5q-30 0 -57.5 -10t-50 -33t-38 -60.5t-20.5 -91.5h333z
M166 301q11 -103 55.5 -154t110.5 -51q30 0 58 10t50.5 34t38 63t20.5 98h-333z" />
    <glyph glyph-name="afii10195" unicode="&#x473;" horiz-adv-x="536" 
d="M37 250q0 128 56.5 194.5t164.5 66.5q57 0 98.5 -18.5t69 -53t40.5 -82.5t13 -107q0 -128 -56.5 -194.5t-164.5 -66.5q-57 0 -98.5 18.5t-69 53t-40.5 82.5t-13 107zM363 297q-11 56 -37.5 84t-67.5 28q-37 0 -67 -25t-38 -87h210zM153 201q9 -51 38 -80.5t67 -29.5
q19 0 36 5.5t31.5 18.5t24.5 34t14 52h-211z" />
    <glyph glyph-name="afii10148" unicode="&#x474;" horiz-adv-x="598" 
d="M310 -10h-62l-269 710h126l173 -469l2 -11q1 3 0.5 5t0.5 5l20.5 70l21.5 71l17.5 58.5l18.5 60.5q22 70 43.5 112.5t44 66t46 31t50.5 7.5q37 0 61 -8t49 -25l-35 -101q-29 17 -47 21.5t-29 4.5q-17 0 -31.5 -23.5t-31.5 -70.5z" />
    <glyph glyph-name="afii10196" unicode="&#x475;" horiz-adv-x="507" 
d="M264 -10h-56l-217 510h125l116 -283l8 -27q2 8 4.5 16t4.5 16q11 30 18 47.5l11 28t6.5 16.5t5.5 12q15 41 29.5 74.5t32 57t40 36t55.5 12.5q19 0 36 -3t38 -12l-17 -106q-15 7 -28 11.5t-18 4.5q-11 0 -22.5 -12.5t-26.5 -47.5z" />
    <glyph glyph-name="uni048A" unicode="&#x48a;" horiz-adv-x="690" 
d="M471 451q-1 -2 -1.5 -2.5t-1.5 -2.5l-320 -446h-73v685h114v-456l2 5l321 451h73v-583h96v-44l-91 -178h-88l42 120h-73v451zM268 846q4 -36 22 -55.5t47 -19.5t46.5 20t22.5 55l104 -24q-14 -66 -55.5 -103.5t-118.5 -37.5q-73 0 -120 33t-58 105z" />
    <glyph glyph-name="uni048B" unicode="&#x48b;" horiz-adv-x="561" 
d="M354 287q-2 -4 -3 -5l-216 -282h-70v500h111v-293q1 2 1.5 2.5t1.5 2.5l214 288h72v-398h92v-44l-91 -178h-88l42 120h-66v287zM204 694q10 -47 28.5 -65t41.5 -18t42 18.5t28 61.5l91 -28q-11 -69 -55.5 -106t-107.5 -37q-29 0 -56.5 8t-50 25t-38.5 43t-22 62z" />
    <glyph glyph-name="uni048C" unicode="&#x48c;" horiz-adv-x="561" 
d="M-12 700h86v76h117v-76h138v-96h-138v-158q16 2 37 3t37 1q49 0 95.5 -10t83 -34.5t59 -66.5t22.5 -106q0 -62 -21.5 -107.5t-59 -75t-88.5 -44t-109 -14.5q-13 0 -33 0.5t-43 3t-48 6t-49 9.5v593h-86v96zM258 98q30 0 56.5 8t46 24t31 40t11.5 57q0 34 -12.5 57t-33 36
t-47 18.5t-55.5 5.5q-13 0 -31.5 -1.5t-32.5 -3.5v-238q14 -2 32 -2.5t35 -0.5z" />
    <glyph glyph-name="uni048D" unicode="&#x48d;" horiz-adv-x="497" 
d="M-9 500h101v185h111v-185h148v-98h-148v-76q17 2 32.5 3t30.5 1q54 0 91 -12t60 -33.5t33 -50t10 -61.5q0 -94 -55 -136.5t-171 -42.5q-29 0 -64.5 2t-77.5 6v400h-101v98zM203 99q27 -3 47 -3q49 0 72.5 18t23.5 51q0 29 -22.5 47.5t-70.5 18.5h-25t-25 -2v-130z" />
    <glyph glyph-name="uni048E" unicode="&#x48e;" horiz-adv-x="559" 
d="M70 689q48 11 93 15t85 4q47 0 95.5 -9.5t88 -34.5t64.5 -68.5t25 -110.5q0 -71 -27 -117.5t-72 -75.5l32 -46.5l31 -44.5l-73 -52l-77 108q-22 -5 -44.5 -7t-45.5 -2q-11 0 -29.5 -0.5t-29.5 1.5v-249h-116v689zM289 482l67 -97q20 15 32 38.5t12 61.5q0 33 -13.5 55.5
t-34.5 36t-48 19.5t-54 6h-35t-29 -2v-243q11 -1 25.5 -1h23.5h6h14.5t14.5 1l-29 41t-26 38z" />
    <glyph glyph-name="uni048F" unicode="&#x48f;" horiz-adv-x="541" 
d="M63 500h84l9 -38q47 49 127 49q101 0 151.5 -59t50.5 -193q0 -137 -73 -207l26 -30.5l24 -27.5l-66 -58l-59 68q-39 -15 -84 -15q-26 0 -44 2t-35 7v-183h-111v685zM288 195l51 -61q32 44 32 126q0 69 -23 109t-79 40q-77 0 -95 -84v-218q14 -8 31 -12t45 -4q7 0 9 -1
t2 -2t0.5 -0.5t5.5 3.5l-23.5 28l-20.5 25z" />
    <glyph glyph-name="afii10050" unicode="&#x490;" horiz-adv-x="442" 
d="M461 592h-276v-592h-116v700h288l8.5 64.5t6.5 62.5h89v-235z" />
    <glyph glyph-name="afii10098" unicode="&#x491;" horiz-adv-x="369" 
d="M172 398v-398h-111v500h206q3 29 7.5 63t6.5 61h87v-226h-196z" />
    <glyph glyph-name="uni0492" unicode="&#x492;" horiz-adv-x="482" 
d="M481 592h-277v-190h204v-100h-204v-302h-116v302h-91v100h91v298h393v-108z" />
    <glyph glyph-name="uni0493" unicode="&#x493;" horiz-adv-x="385" 
d="M379 398h-196v-103h156v-92h-156v-203h-111v203h-83v92h83v205h307v-102z" />
    <glyph glyph-name="uni0494" unicode="&#x494;" horiz-adv-x="577" 
d="M274 288q-26 0 -49.5 -6t-38.5 -11v-271h-116v700h392v-108h-276v-212q19 5 46.5 9.5t65.5 4.5q41 0 81 -11.5t71.5 -39.5t50.5 -75.5t19 -119.5q0 -140 -62 -204.5t-177 -64.5q-32 0 -48.5 1t-37.5 6v107q28 -5 45 -5.5t43 -0.5q116 0 116 154q0 42 -10 70.5t-27 45.5
t-39.5 24t-48.5 7z" />
    <glyph glyph-name="uni0495" unicode="&#x495;" horiz-adv-x="535" 
d="M174 0h-111v500h307v-102h-196v-119q16 4 40 7.5t57 3.5q41 0 78 -11.5t64.5 -38.5t43.5 -71t16 -109q0 -132 -52.5 -193t-166.5 -61h-27t-20.5 1t-18 2.5t-18.5 4.5v101q28 -5 44.5 -6t42.5 -1q55 0 80 37t25 106q0 73 -30.5 105t-80.5 32q-24 0 -44 -4t-33 -9v-175z
" />
    <glyph glyph-name="uni0496" unicode="&#x496;" horiz-adv-x="819" 
d="M330 700h114v-302q2 1 4.5 2t4.5 2l97.5 149l96.5 149h134l-212 -319l-22 -18q8 -5 14 -11t14 -11l160 -233h65v-230h-91l-14 122h-28l-209 306h-14v-306h-114v311q-1 -1 -3 -1.5t-4 -1.5l-106 -154l-106 -154h-137l233 329l26 22q-7 6 -13.5 10.5t-12.5 9.5l-220 329
h138l192 -297h13v297z" />
    <glyph glyph-name="uni0497" unicode="&#x497;" horiz-adv-x="693" 
d="M246 207l-69 -103.5l-68 -103.5h-131l167 243l16 14q-8 7 -16 13l-15 11l-141 219h123l128 -200h20v200h109v-203q4 2 6 2t7 2l66 100l64 99h124l-147 -219l-21 -17l15.5 -13.5t15.5 -11.5l91 -137h78v-220h-85l-13 118h-46l-136 208h-19v-208h-109v211z" />
    <glyph glyph-name="uni0498" unicode="&#x498;" horiz-adv-x="541" 
d="M120 313v104h34h20.5t25 0.5t23.5 1t17 2.5q43 7 73.5 31t30.5 62q0 26 -9 43t-25 27.5t-36.5 15t-44.5 4.5q-49 0 -88 -9.5t-68 -23.5l-32 98q13 7 34 14.5t47.5 13.5t57.5 10t63 4q41 0 81 -8.5t71.5 -29.5t50.5 -56t19 -87q0 -44 -22.5 -84t-67.5 -66q52 -19 81 -60.5
t29 -104.5q0 -51 -17 -90t-46.5 -66.5t-68 -44t-80.5 -22.5q-3 -37 -7 -82t-6 -79h-85l-18 160q-39 2 -71.5 10.5t-59.5 19.5l31 109q29 -14 71.5 -23.5t96.5 -9.5q26 0 51 7t44.5 21t31.5 35t12 50q0 51 -36.5 74t-96.5 27h-6q-10 1 -17.5 1.5t-16.5 0.5h-71z" />
    <glyph glyph-name="uni0499" unicode="&#x499;" horiz-adv-x="441" 
d="M105 206v98h83q27 0 50 15t23 38q0 26 -20 37t-62 11q-32 0 -66 -14.5t-57 -28.5l-33 94q35 20 78 35t99 15q172 0 172 -132q0 -29 -14 -57t-40 -48q39 -16 55 -46t16 -75q0 -54 -35 -94.5t-105 -55.5q-3 -39 -7 -83t-6 -81h-83l-18 160q-33 3 -61 12.5t-53 22.5l33 99
q60 -34 127 -34q97 0 97 60q0 25 -23 38.5t-78 13.5h-72z" />
    <glyph glyph-name="uni049A" unicode="&#x49a;" horiz-adv-x="615" 
d="M203 306h-16v-306h-116v700h116v-302l6 2l6 2l112.5 149.5l112.5 148.5h139l-246 -317l-24 -18l16 -12.5t15 -11.5l184 -233h93v-230h-90l-15 122h-52z" />
    <glyph glyph-name="uni049B" unicode="&#x49b;" horiz-adv-x="506" 
d="M188 208h-14v-208h-111v500h111v-202q3 1 11 3l75 100l75 99h127l-167 -218l-22 -17l15.5 -13t14.5 -11l103 -139h82v-220h-85l-13 118h-46z" />
    <glyph glyph-name="uni049C" unicode="&#x49c;" horiz-adv-x="685" 
d="M201 306h-13v-306h-116v700h116v-306q2 0 6 0.5t7 0.5v121h101v-100l97 142l97 142h138l-227 -316l-23 -19l15 -11.5l14 -11.5l249 -342h-145l-215 301v-117h-101v122z" />
    <glyph glyph-name="uni049D" unicode="&#x49d;" horiz-adv-x="541" 
d="M183 208h-8v-208h-111v500h111v-206h8v115h95v-98l59 94.5l58 94.5h121l-135 -217l-25 -18l15.5 -13t14.5 -11l148 -241h-130l-126 206v-115h-95v117z" />
    <glyph glyph-name="uni049E" unicode="&#x49e;" horiz-adv-x="664" 
d="M-10 639h131v61h117v-61h115v-100h-115v-141q4 2 7.5 2t8.5 2l110.5 149l110.5 149h138l-244 -317l-23 -18q8 -6 15.5 -12.5t15.5 -11.5l266 -341h-149l-238 306h-18v-306h-117v537h-131v102z" />
    <glyph glyph-name="uni049F" unicode="&#x49f;" horiz-adv-x="481" 
d="M-11 605h75v80h111v-80h147v-93h-147v-215l4 2l4 2l72.5 99.5l72.5 99.5h133l-165 -217l-22 -18q8 -7 14.5 -12t14.5 -10l178 -243h-137l-155 208h-14v-208h-111v512h-75v93z" />
    <glyph glyph-name="uni04A0" unicode="&#x4a0;" horiz-adv-x="685" 
d="M142 592h-152v108h269v-302l11 4l112.5 149.5l111.5 148.5h140l-247 -316l-22 -19l15 -11.5l14 -11.5l270 -342h-149l-241 306h-15v-306h-117v592z" />
    <glyph glyph-name="uni04A1" unicode="&#x4a1;" horiz-adv-x="512" 
d="M205 297q2 1 4.5 2t4.5 2l76 99.5l75 99.5h126l-167 -217l-22 -17l16 -13.5t16 -11.5l178 -241h-138l-155 208h-14v-208h-111v398h-102v102h213v-203z" />
    <glyph glyph-name="uni04A2" unicode="&#x4a2;" horiz-adv-x="707" 
d="M462 297h-274v-297h-114v685h114v-282h274v282h114v-579h85v-225h-89l-13 119h-97v297z" />
    <glyph glyph-name="uni04A3" unicode="&#x4a3;" horiz-adv-x="546" 
d="M347 205h-172v-205h-111v500h111v-194h172v194h112v-398h67v-220h-85l-13 118h-81v205z" />
    <glyph glyph-name="uni04A4" unicode="&#x4a4;" horiz-adv-x="861" 
d="M863 592h-276v-592h-116v304h-280v-304h-116v700h116v-289h280v289h392v-108z" />
    <glyph glyph-name="uni04A5" unicode="&#x4a5;" horiz-adv-x="675" 
d="M657 398h-196v-398h-111v205h-172v-205h-111v500h111v-194h172v194h307v-102z" />
    <glyph glyph-name="uni04A6" unicode="&#x4a6;" horiz-adv-x="983" 
d="M576 0h-117v592h-267v-592h-117v700h501v-320q17 5 45 9.5t66 4.5q42 0 82 -11.5t71.5 -39.5t50.5 -75.5t19 -119.5q0 -140 -62.5 -204.5t-177.5 -64.5h-27.5t-21 1t-18 2t-18.5 4v107q28 -5 45 -5.5t43 -0.5q116 0 116 154q0 42 -9.5 70.5t-26.5 45.5t-40 24t-49 7
q-25 0 -49.5 -5.5t-38.5 -10.5v-272z" />
    <glyph glyph-name="uni04A7" unicode="&#x4a7;" horiz-adv-x="836" 
d="M458 0h-111v398h-167v-398h-111v500h389v-221q17 4 40.5 7.5t57.5 3.5q40 0 76 -11.5t64 -38.5t44.5 -71t16.5 -109q0 -132 -52.5 -193t-166.5 -61h-27t-20 1t-17.5 2.5t-18.5 4.5v101q14 -3 24.5 -4t20 -2t19 -1h22.5q55 0 79.5 37t24.5 106q0 73 -30 105t-80 32
q-24 0 -44 -4t-33 -9v-175z" />
    <glyph glyph-name="uni04A8" unicode="&#x4a8;" horiz-adv-x="811" 
d="M263 361q0 79 18.5 139.5t51.5 101.5q-76 -11 -121.5 -72.5t-45.5 -178.5q0 -51 14.5 -97.5t40.5 -82t62 -57t80 -21.5q-24 23 -42.5 53.5t-31.5 65.5t-19.5 73t-6.5 76zM364 633q59 48 136 48q115 0 173.5 -75t58.5 -211q0 -98 -31.5 -174t-78.5 -124q45 9 79 36l38 -97
q-24 -20 -56.5 -33.5t-87.5 -13.5q-29 0 -59 6.5t-53 18.5q-26 -13 -56 -19t-62 -6q-74 0 -133.5 25.5t-101 73t-63.5 114t-22 148.5q0 87 22 154.5t63 113t100 69.5t134 24v-78zM384 354q0 -30 6 -63.5t19 -65t33 -58t48 -43.5q22 14 44 39t39 59t27.5 76t10.5 92
q0 39 -6 72t-18.5 58t-33 39t-49.5 14q-24 0 -45.5 -12.5t-38 -39t-26.5 -68t-10 -99.5z" />
    <glyph glyph-name="uni04A9" unicode="&#x4a9;" horiz-adv-x="660" 
d="M230 253q0 40 7.5 80.5t24.5 74.5q-109 -12 -109 -157q0 -33 8 -62t24 -50.5t40 -34.5t57 -13q1 0 2 -0.5t2 -0.5h1q1 0 2 1q-27 28 -43 69.5t-16 92.5zM280 436q22 29 55 46.5t81 17.5t81.5 -17t54.5 -46.5t31 -69.5t10 -85q0 -60 -22.5 -110.5t-55.5 -82.5
q14 4 30.5 14t34.5 29l39 -93q-23 -23 -57 -36.5t-72 -13.5q-24 0 -50.5 7t-46.5 22q-29 -18 -61 -23.5t-61 -5.5q-56 0 -99 18.5t-72 53t-44.5 82.5t-15.5 107q0 126 60.5 193t179.5 68v-75zM344 256q0 -42 18 -81t41 -63q32 19 54 64.5t22 105.5q0 22 -4 42.5t-11.5 37
t-20 26.5t-28.5 10q-22 0 -36 -12.5t-21.5 -32.5t-10.5 -45.5t-3 -51.5z" />
    <glyph glyph-name="uni04AA" unicode="&#x4aa;" horiz-adv-x="571" 
d="M534 39q-32 -24 -65 -35t-74 -13q-3 -38 -7 -82t-6 -78h-85l-18 165q-51 10 -94.5 36t-75 69.5t-49.5 105t-18 143.5q0 97 27 165.5t70.5 112t98.5 63.5t111 20q59 0 100 -8t75 -22l-28 -107q-31 14 -66.5 22t-75.5 8q-35 0 -69.5 -13.5t-61.5 -43.5t-43.5 -78.5
t-16.5 -118.5q0 -64 15.5 -111.5t43 -79t64.5 -47t80 -15.5q40 0 75 11t64 28z" />
    <glyph glyph-name="uni04AB" unicode="&#x4ab;" horiz-adv-x="451" 
d="M419 43q-53 -37 -107 -49q-2 -38 -6 -80.5t-7 -79.5h-82l-18 159q-45 8 -76 29.5t-50.5 54.5t-28 77t-8.5 96q0 128 56 194.5t163 66.5q48 0 84 -9t70 -27l-33 -101q-29 16 -57.5 25.5t-56.5 9.5q-113 0 -113 -159q0 -31 6 -60t20 -51t37 -35t57 -13q29 0 58 13.5
t52 30.5z" />
    <glyph glyph-name="uni04AC" unicode="&#x4ac;" horiz-adv-x="555" 
d="M212 592h-206v108h528v-108h-206v-484h87v-230h-91l-14 122h-98v592z" />
    <glyph glyph-name="uni04AD" unicode="&#x4ad;" horiz-adv-x="397" 
d="M136 398h-145v102h401v-102h-145v-296h69v-220h-86l-12 118h-82v398z" />
    <glyph glyph-name="uni04AE" unicode="&#x4ae;" horiz-adv-x="558" 
d="M215 275l-57 103.5l-60 109.5l-59.5 109l-56.5 103h137l159 -323l78 162l76 161h129l-230 -423v-277h-116v275z" />
    <glyph glyph-name="uni04AF" unicode="&#x4af;" horiz-adv-x="484" 
d="M-10 500h126l116 -306l9 -36q2 8 3 13.5t3 12.5l108 316h120l-182 -485v-200h-111v200z" />
    <glyph glyph-name="uni04B0" unicode="&#x4b0;" horiz-adv-x="558" 
d="M73 307h125l-53.5 97l-55 100.5l-54.5 100l-52 95.5h135l160 -299q1 1 1 2l154 297h128l-212 -393h124v-96h-142v-211h-116v211h-142v96z" />
    <glyph glyph-name="uni04B1" unicode="&#x4b1;" horiz-adv-x="484" 
d="M68 37h106l-93 232.5l-91 230.5h126l116 -306l9 -36q2 8 3 13.5t3 12.5l108 316h120l-173 -463h100v-93h-109v-129h-111v129h-114v93z" />
    <glyph glyph-name="uni04B2" unicode="&#x4b2;" horiz-adv-x="648" 
d="M231 356l-52 84l-55 89l-55 88.5l-51 82.5h139l141 -235l7 -16q3 7 4 10.5t3 8.5l147 232h132l-220 -338l80.5 -126.5l80.5 -127.5h100v-230h-91l-14 122h-63l-154 245l-11 22q-2 -5 -4 -9.5t-3 -9.5l-160 -248h-134z" />
    <glyph glyph-name="uni04B3" unicode="&#x4b3;" horiz-adv-x="525" 
d="M180 256l-41.5 59l-43 63l-43 63.5l-40.5 58.5h136l93 -136l11 -22q2 4 4.5 8.5t4.5 8.5l98 141h128l-170 -240l54.5 -78.5l54.5 -79.5h79v-220h-85l-13 118h-44l-106 154l-10 20q-8 -12 -12 -24l-108 -150h-127z" />
    <glyph glyph-name="uni04B4" unicode="&#x4b4;" horiz-adv-x="838" 
d="M795 -122h-90l-14 122h-476v592h-206v108h495v-108h-172v-484h260v592h116v-592h87v-230z" />
    <glyph glyph-name="uni04B5" unicode="&#x4b5;" horiz-adv-x="630" 
d="M592 -118h-85l-13 118h-355v398h-144v102h394v-102h-139v-296h164v398h111v-398h67v-220z" />
    <glyph glyph-name="uni04B6" unicode="&#x4b6;" horiz-adv-x="639" 
d="M404 274q-27 -11 -64.5 -21t-79.5 -10q-44 0 -80.5 10t-63 33.5t-41 62.5t-14.5 98v253h117v-238q0 -111 98 -111q38 0 71.5 9.5t56.5 24.5v315h116v-592h87v-230h-91l-14 122h-98v274z" />
    <glyph glyph-name="uni04B7" unicode="&#x4b7;" horiz-adv-x="509" 
d="M300 181q-18 -8 -43 -13t-63 -5q-39 0 -68.5 8.5t-49 29t-29.5 55t-10 85.5v159h111v-144q0 -21 2 -38t8.5 -28.5t18.5 -18t32 -6.5q32 0 54.5 6t36.5 14v215h111v-398h68v-220h-85l-13 118h-81v181z" />
    <glyph glyph-name="uni04B8" unicode="&#x4b8;" horiz-adv-x="613" 
d="M246 243q-39 4 -72.5 17t-59 37.5t-40 61t-14.5 88.5v253h117v-238q0 -95 69 -108v114h100v-109q19 4 35 11t29 15v315h117v-700h-117v273q-27 -12 -64 -20v-116h-100v106z" />
    <glyph glyph-name="uni04B9" unicode="&#x4b9;" horiz-adv-x="497" 
d="M180 163q-36 2 -63 11.5t-45 30.5t-27 54t-9 82v159h111v-144q0 -33 6 -55.5t27 -31.5v113h95v-109l16.5 6t13.5 6v215h111v-500h-111v182q-6 -2 -14 -5.5t-16 -5.5v-108h-95v100z" />
    <glyph glyph-name="uni04BA" unicode="&#x4ba;" horiz-adv-x="605" 
d="M413 0v238q0 111 -98 111q-40 0 -73 -8.5t-56 -25.5v-315h-116v700h116v-274q27 11 64.5 21t79.5 10q44 0 81 -10t63.5 -33.5t41 -63t14.5 -97.5v-253h-117z" />
    <glyph glyph-name="uni04BB" unicode="&#x4bb;" horiz-adv-x="547" 
d="M360 0v282q0 64 -15.5 95.5t-64.5 31.5q-36 0 -65.5 -23.5t-40.5 -59.5v-326h-111v685h111v-216q24 20 54.5 31t72.5 11q44 0 76 -9.5t53 -34t31 -65.5t10 -104v-298h-111z" />
    <glyph glyph-name="uni04BC" unicode="&#x4bc;" horiz-adv-x="774" 
d="M290 301q11 -105 59 -155t138 -50q39 0 80 16t70 34l33 -101q-38 -23 -86.5 -39.5t-111.5 -16.5q-64 0 -116.5 19t-91.5 57.5t-63 97t-30 138.5h-17q-45 0 -76 10t-50 28t-27.5 42.5t-8.5 54.5q0 32 10.5 53.5t27.5 38.5h135q-35 -29 -48.5 -50.5t-13.5 -32.5
q0 -16 11 -29t52 -13q2 0 2.5 -0.5t-0.5 -0.5q1 0 3 1q11 149 81 228.5t198 79.5t193 -75t65 -215q0 -48 -12 -120h-406zM591 405v31q0 34 -8 65t-25.5 54.5t-44 37.5t-62.5 14q-152 0 -163 -202h303z" />
    <glyph glyph-name="uni04BD" unicode="&#x4bd;" horiz-adv-x="617" 
d="M544 51q-36 -29 -84 -45.5t-98 -16.5q-55 0 -95.5 16.5t-68 47t-42 73.5t-17.5 97q-73 2 -106 39t-33 91q0 32 11.5 55.5t37.5 48.5h138q-37 -25 -60.5 -50t-23.5 -50q0 -12 8.5 -23.5t31.5 -13.5q15 94 70 142.5t148 48.5q35 0 69.5 -7.5t62.5 -29t45 -61t17 -103.5
q0 -14 -2 -35.5t-6 -50.5h-295q4 -63 34.5 -98t96.5 -35q29 0 62 14.5t54 33.5zM362 409q-43 0 -70 -20.5t-36 -69.5h189q-4 50 -25 70t-58 20z" />
    <glyph glyph-name="uni04BE" unicode="&#x4be;" horiz-adv-x="774" 
d="M290 301q11 -105 59 -155t138 -49q40 0 80.5 15.5t69.5 33.5l33 -100q-32 -20 -71.5 -35.5t-87.5 -19.5q-3 -38 -7 -82t-6 -78h-84l-19 165q-99 18 -156.5 91t-67.5 214h-17q-45 0 -76 10t-50 28t-27.5 42.5t-8.5 54.5q0 32 10.5 53.5t27.5 38.5h135q-35 -29 -48.5 -50.5
t-13.5 -32.5q0 -16 11 -29t52 -13q2 0 2.5 -0.5t-0.5 -0.5q1 0 3 1q11 149 81 228.5t198 79.5t193 -75t65 -215q0 -48 -12 -120h-406zM591 405v31q0 34 -8 65t-25.5 54.5t-44 37.5t-62.5 14q-152 0 -163 -202h303z" />
    <glyph glyph-name="uni04BF" unicode="&#x4bf;" horiz-adv-x="617" 
d="M544 51q-57 -46 -129 -57q-2 -38 -6.5 -82t-6.5 -78h-82l-19 161q-80 18 -118.5 76.5t-43.5 151.5q-73 2 -106 39t-33 91q0 35 11.5 57t37.5 47h138q-37 -25 -60.5 -50t-23.5 -50q0 -12 8.5 -23.5t31.5 -13.5q15 94 70 142.5t148 48.5q35 0 69.5 -7.5t62.5 -29t45 -61
t17 -103.5q0 -14 -2 -35.5t-6 -50.5h-295q4 -63 34.5 -98.5t96.5 -35.5q29 0 62 14.5t54 33.5zM362 409q-43 0 -70 -20.5t-36 -69.5h189q-4 50 -25 70t-58 20z" />
    <glyph glyph-name="uni04C0" unicode="&#x4c0;" horiz-adv-x="291" 
d="M83 700h117v-700h-117v700z" />
    <glyph glyph-name="uni04C3" unicode="&#x4c3;" horiz-adv-x="600" 
d="M407 86q0 118 -47.5 169t-147.5 51h-25v-306h-117v700h117v-302q2 1 5 2t7 2l112 149.5l112 148.5h139l-238 -304l-4 -2h1q54 -13 92.5 -35t62.5 -58t35.5 -88t11.5 -124v-17q0 -74 -14 -125.5t-40.5 -84t-64 -47.5t-84.5 -15q-6 0 -14 0.5t-31 2.5v105q37 0 62.5 9.5
t41 30.5t22 55t6.5 83z" />
    <glyph glyph-name="uni04C4" unicode="&#x4c4;" horiz-adv-x="481" 
d="M326 33q0 88 -34 127.5t-94 39.5h-24v-200h-111v500h111v-210q6 2 10 3l75 103.5l75 103.5h127l-168 -225q45 -11 73 -35t44 -57t21.5 -71.5t5.5 -78.5q0 -62 -14 -105.5t-38.5 -71.5t-57.5 -41t-72 -13h-7q-8 0 -17 0.5t-26 3.5v101q19 -2 24.5 -2.5t10.5 -0.5
q41 0 63.5 33t22.5 96z" />
    <glyph glyph-name="uni04C5" unicode="&#x4c5;" horiz-adv-x="622" 
d="M415 580h-157q-5 -92 -10.5 -166.5t-14 -134.5t-20 -106t-26.5 -81q-23 -51 -55 -74t-70 -23q-35 0 -73 17l15 101q14 -5 22.5 -6t12.5 -1q11 0 22.5 8.5t22.5 29.5q12 24 23 66t19.5 107t14.5 155.5t9 212.5h379v-583h86v-44l-91 -178h-88l42 120h-63v580z" />
    <glyph glyph-name="uni04C6" unicode="&#x4c6;" horiz-adv-x="516" 
d="M311 398h-98q0 -3 -0.5 -5.5t-0.5 -5.5l-6.5 -85.5t-10 -88t-17 -83t-26.5 -69.5t-39 -47.5t-54 -17.5q-38 0 -75 15l17 100q17 -6 26 -8.5t13 -2.5q14 0 25.5 16t20.5 59.5t15 121.5t9 203h313v-398h92v-44l-92 -178h-87l42 120h-67v398z" />
    <glyph glyph-name="uni04C7" unicode="&#x4c7;" horiz-adv-x="672" 
d="M583 -7q0 -97 -34 -145.5t-110 -48.5h-7q-7 0 -14.5 0.5t-27.5 5.5v100q27 0 42.5 6.5t23 20.5t9.5 35.5t2 51.5v285h-280v-304h-116v700h116v-289h280v289h116v-707z" />
    <glyph glyph-name="uni04C8" unicode="&#x4c8;" horiz-adv-x="540" 
d="M346 205h-172v-205h-111v500h111v-194h172v194h111v-506q0 -96 -33.5 -143t-108.5 -47h-13t-11 1q-3 0 -12 0.5t-11 0.5v100q26 0 41.5 7t23.5 21t10.5 35t2.5 50v186z" />
    <glyph glyph-name="uni04C9" unicode="&#x4c9;" horiz-adv-x="681" 
d="M463 297h-275v-297h-113v685h113v-282h275v282h113v-583h97v-44l-92 -178h-88l43 120h-73v297z" />
    <glyph glyph-name="uni04CA" unicode="&#x4ca;" horiz-adv-x="556" 
d="M348 205h-172v-205h-111v500h111v-194h172v194h111v-398h93v-44l-92 -178h-88l43 120h-67v205z" />
    <glyph glyph-name="uni04CB" unicode="&#x4cb;" horiz-adv-x="605" 
d="M176 700v-238q0 -111 99 -111q38 0 71 9.5t56 24.5v315h117v-700h-99q-3 -29 -7 -62l-7 -60h-91v230h87v166q-26 -11 -63.5 -21t-79.5 -10q-44 0 -81 10t-63 33.5t-40.5 62.5t-14.5 98v253h116z" />
    <glyph glyph-name="uni04CC" unicode="&#x4cc;" horiz-adv-x="490" 
d="M298 184q-18 -8 -43.5 -13t-61.5 -5q-39 0 -68.5 8.5t-49.5 29t-30 54.5t-10 85v157h112v-143q0 -20 2 -36.5t8.5 -28t18.5 -18t32 -6.5q31 0 54 6t36 14v212h111v-500h-83q-3 -29 -7 -60.5t-7 -57.5h-85v217h71v85z" />
    <glyph glyph-name="uni04CD" unicode="&#x4cd;" horiz-adv-x="801" 
d="M575 445l-170 -294h-44l-175 288v-439h-109v685h86l209 -341l15 -34q4 9 6 16.5t6 16.5l201 342h89v-583h96v-44l-92 -178h-88l43 120h-73v445z" />
    <glyph glyph-name="uni04CE" unicode="&#x4ce;" horiz-adv-x="661" 
d="M449 294v5l-116 -189h-46l-115 178v-288h-105v500h101l136 -216l12 -24l5.5 12.5t6.5 11.5l127 216h103v-398h93v-44l-92 -178h-88l43 120h-65v294z" />
    <glyph glyph-name="uni04CF" unicode="&#x4cf;" horiz-adv-x="254" 
d="M67 685h111v-685h-111v685z" />
    <glyph glyph-name="uni04D0" unicode="&#x4d0;" horiz-adv-x="585" 
d="M390 184h-217q-15 -45 -33 -93l-34 -91h-118l267 715l61 -6l265 -709h-123zM211 289h141l-32 88.5l-32 87.5l-6 17l-3.5 -9t-2.5 -9zM216 846q3 -36 21 -55.5t47 -19.5t46.5 20t23.5 55l103 -24q-14 -66 -55.5 -103.5t-118.5 -37.5q-73 0 -119.5 33t-57.5 105z" />
    <glyph glyph-name="uni04D1" unicode="&#x4d1;" horiz-adv-x="496" 
d="M50 455q45 27 97 39.5t106 12.5t86.5 -15t50 -38t23 -51.5t5.5 -56.5q0 -29 -0.5 -57.5t-1.5 -56.5l-2 -47.5t-1 -46.5q0 -32 3 -69q0 -23 42 -37l-5 -34h-114l-15 48q-16 -16 -38 -29q-19 -10 -51 -17t-64 -7q-33 0 -62 10.5t-50 30t-33 47t-12 62.5q0 48 35 95
q39 50 102 57q29 4 59.5 6t63.5 2h10q5 0 7.5 0.5t4.5 0.5h4.5t7.5 -1q1 8 1 15v14q0 41 -16 57.5t-60 16.5q-15 0 -33.5 -3t-38.5 -8t-39 -12.5t-35 -16.5zM191 94q23 0 47 6t37 15q11 8 18.5 18.5t12.5 18.5v56q-9 1 -17 1h-17q-41 0 -83 -3q-17 -1 -29 -6.5t-19 -13.5
q-13 -19 -13 -36q0 -24 17.5 -40t45.5 -16zM168 694q10 -47 29 -65t42 -18t42 18.5t28 61.5l91 -28q-11 -69 -55.5 -106t-107.5 -37q-29 0 -56.5 8t-50 25t-38.5 43t-22 62z" />
    <glyph glyph-name="uni04D2" unicode="&#x4d2;" horiz-adv-x="585" 
d="M390 184h-217q-15 -45 -33 -93l-34 -91h-118l267 715l61 -6l265 -709h-123zM211 289h141l-32 88.5l-32 87.5l-6 17l-3.5 -9t-2.5 -9zM127 754q0 28 19 45t49 17t48.5 -17t18.5 -45q0 -27 -18.5 -44t-48.5 -17t-49 17t-19 44zM305 754q0 28 18 45t48 17q31 0 50 -17
t19 -45q0 -27 -19 -44t-50 -17q-30 0 -48 17t-18 44z" />
    <glyph glyph-name="uni04D3" unicode="&#x4d3;" horiz-adv-x="496" 
d="M50 455q45 27 97 39.5t106 12.5t86.5 -15t50 -38t23 -51.5t5.5 -56.5q0 -29 -0.5 -57.5t-1.5 -56.5l-2 -47.5t-1 -46.5q0 -32 3 -69q0 -23 42 -37l-5 -34h-114l-15 48q-16 -16 -38 -29q-19 -10 -51 -17t-64 -7q-33 0 -62 10.5t-50 30t-33 47t-12 62.5q0 48 35 95
q39 50 102 57q29 4 59.5 6t63.5 2h10q5 0 7.5 0.5t4.5 0.5h4.5t7.5 -1q1 8 1 15v14q0 41 -16 57.5t-60 16.5q-15 0 -33.5 -3t-38.5 -8t-39 -12.5t-35 -16.5zM191 94q23 0 47 6t37 15q11 8 18.5 18.5t12.5 18.5v56q-9 1 -17 1h-17q-41 0 -83 -3q-17 -1 -29 -6.5t-19 -13.5
q-13 -19 -13 -36q0 -24 17.5 -40t45.5 -16zM83 605q0 30 17.5 48t46.5 18q28 0 45.5 -18t17.5 -48q0 -27 -17.5 -45.5t-45.5 -18.5q-29 0 -46.5 18.5t-17.5 45.5zM260 605q0 30 17.5 48t46.5 18q30 0 47.5 -18t17.5 -48q0 -27 -17.5 -45.5t-47.5 -18.5q-29 0 -46.5 18.5
t-17.5 45.5z" />
    <glyph glyph-name="uni04D4" unicode="&#x4d4;" horiz-adv-x="846" 
d="M365 586l17 -17l16 12q-17 -49 -32 -99l-1 -1v105zM365 291v190l-111 -190h111zM365 187h-172l-54 -93.5l-53 -93.5h-130l415 700h392v-108h-282v-179h258v-107h-258v-198h287v-108h-403v187z" />
    <glyph glyph-name="uni04D5" unicode="&#x4d5;" horiz-adv-x="796" 
d="M210 94q43 0 68.5 20t33.5 40v54q-9 1 -17 1h-17q-26 0 -50 -2.5t-42 -9t-29 -18t-11 -29.5q0 -24 18 -40t46 -16zM531 -11q-55 0 -101 21t-74 59q-26 -31 -66 -53.5t-100 -22.5q-33 0 -62 10.5t-50.5 30t-33.5 47t-12 62.5q0 46 18 76.5t50.5 49t78 26.5t100.5 8h11
q5 0 7 0.5t3.5 0.5h4t7.5 -1q0 2 1 2q1 8 1.5 15t0.5 12q0 41 -16.5 57.5t-59.5 16.5q-14 0 -32.5 -3t-38.5 -8.5t-40 -13t-36 -16.5l-37 90q45 27 97.5 39.5t105.5 12.5q44 0 76.5 -12t52.5 -35q29 27 67 39t76 12q35 0 70 -7.5t62.5 -29.5t45 -62t17.5 -104q0 -16 -2 -37
t-5 -47h-297q4 -63 34.5 -98t96.5 -35q29 0 62 14.5t54 32.5l46 -87q-37 -29 -84.5 -45.5t-98.5 -16.5zM615 319h19l-19 -18v11v7zM531 409q-42 0 -69.5 -20.5t-35.5 -69.5h189q-2 49 -24.5 69.5t-59.5 20.5z" />
    <glyph glyph-name="uni04D6" unicode="&#x4d6;" horiz-adv-x="536" 
d="M69 700h398v-108h-282v-179h254v-107h-254v-198h287v-108h-403v700zM200 846q3 -36 21 -55.5t47 -19.5t46.5 20t23.5 55l103 -24q-14 -66 -55.5 -103.5t-118.5 -37.5q-73 0 -119.5 33t-57.5 105z" />
    <glyph glyph-name="uni04D7" unicode="&#x4d7;" horiz-adv-x="508" 
d="M442 44q-36 -29 -84 -45.5t-99 -16.5q-57 0 -99.5 19.5t-70.5 54.5q-26 35 -41 98q-12 58 -12 88q0 128 57.5 194.5t164.5 66.5q35 0 70 -7.5t62.5 -29.5t45 -61t17.5 -103q0 -15 -2 -36t-6 -50h-293q1 -7 2.5 -16t3.5 -19q7 -39 23 -59q30 -38 100 -38q14 0 30 4
t31.5 10.5t29.5 15.5t24 18zM259 401q-42 0 -69 -20.5t-36 -69.5h189q-4 50 -25.5 70t-58.5 20zM188 694q10 -47 29 -65t42 -18t42 18.5t28 61.5l91 -28q-11 -69 -55.5 -106t-107.5 -37q-29 0 -56.5 8t-50 25t-38.5 43t-22 62z" />
    <glyph glyph-name="uni04D8" unicode="&#x4d8;" horiz-adv-x="639" 
d="M162 305q-1 -8 -1 -16v-16q0 -35 8 -67t24.5 -57.5t43 -40.5t62.5 -15q76 0 117.5 53t46.5 159h-301zM461 409q-11 102 -54.5 148.5t-128.5 46.5q-20 0 -42 -4.5t-43 -12t-40 -16.5t-32 -17l-32 102q35 20 88.5 37.5t115.5 17.5q68 0 121.5 -20.5t90 -64t55.5 -112
t19 -164.5q0 -174 -70 -267.5t-211 -93.5q-63 0 -111.5 20.5t-81 58.5t-49 92.5t-16.5 122.5q0 51 12 126h409z" />
    <glyph glyph-name="afii10846" unicode="&#x4d9;" horiz-adv-x="507" 
d="M46 449q37 29 84.5 45.5t98.5 16.5q58 0 100 -18.5t69.5 -53t40.5 -82.5t13 -107q0 -128 -56.5 -194.5t-158.5 -66.5q-34 0 -69.5 10t-65 35.5t-48 68t-18.5 108.5q0 17 2 37t5 45h298q-6 61 -36 88.5t-97 27.5q-29 0 -62 -14.5t-54 -33.5zM145 197h-18l18 19v-14v-5z
M239 91q40 0 68 27t33 79h-195q1 -54 27.5 -80t66.5 -26z" />
    <glyph glyph-name="uni04DA" unicode="&#x4da;" horiz-adv-x="639" 
d="M162 305q-1 -8 -1 -16v-16q0 -35 8 -67t24.5 -57.5t43 -40.5t62.5 -15q76 0 117.5 53t46.5 159h-301zM461 409q-11 102 -54.5 148.5t-128.5 46.5q-20 0 -42 -4.5t-43 -12t-40 -16.5t-32 -17l-32 102q35 20 88.5 37.5t115.5 17.5q68 0 121.5 -20.5t90 -64t55.5 -112
t19 -164.5q0 -174 -70 -267.5t-211 -93.5q-63 0 -111.5 20.5t-81 58.5t-49 92.5t-16.5 122.5q0 51 12 126h409zM146 754q0 28 19 45t49 17t48.5 -17t18.5 -45q0 -27 -18.5 -44t-48.5 -17t-49 17t-19 44zM324 754q0 28 18 45t48 17q31 0 50 -17t19 -45q0 -27 -19 -44t-50 -17
q-30 0 -48 17t-18 44z" />
    <glyph glyph-name="uni04DB" unicode="&#x4db;" horiz-adv-x="507" 
d="M46 449q37 29 84.5 45.5t98.5 16.5q58 0 100 -18.5t69.5 -53t40.5 -82.5t13 -107q0 -128 -56.5 -194.5t-158.5 -66.5q-34 0 -69.5 10t-65 35.5t-48 68t-18.5 108.5q0 17 2 37t5 45h298q-6 61 -36 88.5t-97 27.5q-29 0 -62 -14.5t-54 -33.5zM145 197h-18l18 19v-14v-5z
M239 91q40 0 68 27t33 79h-195q1 -54 27.5 -80t66.5 -26zM86 605q0 30 17.5 48t46.5 18q28 0 45.5 -18t17.5 -48q0 -27 -17.5 -45.5t-45.5 -18.5q-29 0 -46.5 18.5t-17.5 45.5zM263 605q0 30 17.5 48t46.5 18q30 0 47.5 -18t17.5 -48q0 -27 -17.5 -45.5t-47.5 -18.5
q-29 0 -46.5 18.5t-17.5 45.5z" />
    <glyph glyph-name="uni04DC" unicode="&#x4dc;" horiz-adv-x="806" 
d="M331 700h113v-302q2 1 5 2t5 2l97 149l96 149h134l-212 -319l-22 -18q8 -5 14 -11t14 -11l234 -341h-142l-209 306h-14v-306h-113v311q-2 -1 -4 -1.5t-4 -1.5l-106 -154l-106 -154h-137l233 329l26 22q-7 6 -13.5 10.5t-12.5 9.5l-220 329h138l192 -297h14v297zM235 754
q0 28 19 45t49 17t48.5 -17t18.5 -45q0 -27 -18.5 -44t-48.5 -17t-49 17t-19 44zM413 754q0 28 18 45t48 17q31 0 50 -17t19 -45q0 -27 -19 -44t-50 -17q-30 0 -48 17t-18 44z" />
    <glyph glyph-name="uni04DD" unicode="&#x4dd;" horiz-adv-x="659" 
d="M246 207l-69.5 -103.5l-68.5 -103.5h-130l167 243l16 14q-8 7 -16 13l-15 11l-141 219h123l128 -200h19v200h110v-203q3 2 5.5 2t7.5 2l65 100l65 99h123l-146 -219l-21 -17l15.5 -13.5t15.5 -11.5l158 -239h-133l-136 208h-19v-208h-110v211zM168 605q0 30 17.5 48
t46.5 18q28 0 45.5 -18t17.5 -48q0 -27 -17.5 -45.5t-45.5 -18.5q-29 0 -46.5 18.5t-17.5 45.5zM345 605q0 30 17.5 48t46.5 18q30 0 47.5 -18t17.5 -48q0 -27 -17.5 -45.5t-47.5 -18.5q-29 0 -46.5 18.5t-17.5 45.5z" />
    <glyph glyph-name="uni04DE" unicode="&#x4de;" horiz-adv-x="541" 
d="M120 313v104h34h20.5t25 0.5t23.5 1t17 2.5q43 7 73.5 31t30.5 62q0 26 -9 43t-25 27.5t-36.5 15t-44.5 4.5q-49 0 -88 -9.5t-68 -23.5l-32 98q13 7 34 14.5t47.5 13.5t57.5 10t63 4q41 0 81 -8.5t71.5 -29.5t50.5 -56t19 -87q0 -44 -22.5 -84t-67.5 -66q52 -19 81 -60.5
t29 -104.5q0 -59 -23 -102t-60.5 -70.5t-85.5 -40.5t-98 -13q-66 0 -112.5 8.5t-79.5 22.5l31 110q29 -14 71.5 -24t96.5 -10q26 0 51 7t44.5 21t31.5 35.5t12 50.5q0 51 -36.5 74t-96.5 27h-6q-10 1 -17.5 1.5t-16.5 0.5h-71zM78 754q0 28 19 45t49 17t48.5 -17t18.5 -45
q0 -27 -18.5 -44t-48.5 -17t-49 17t-19 44zM256 754q0 28 18 45t48 17q31 0 50 -17t19 -45q0 -27 -19 -44t-50 -17q-30 0 -48 17t-18 44z" />
    <glyph glyph-name="uni04DF" unicode="&#x4df;" horiz-adv-x="441" 
d="M105 206v98h83q27 0 50 15t23 38q0 26 -20 37t-62 11q-32 0 -66 -14.5t-57 -28.5l-33 94q35 20 78 35t99 15q172 0 172 -132q0 -29 -14 -57t-40 -48q39 -16 55 -46t16 -75q0 -33 -13 -61.5t-39.5 -49.5t-66.5 -33t-93 -12q-50 0 -87 10.5t-69 26.5l33 99q60 -34 127 -34
q97 0 97 60q0 25 -23 38.5t-78 13.5h-72zM45 605q0 30 17.5 48t46.5 18q28 0 45.5 -18t17.5 -48q0 -27 -17.5 -45.5t-45.5 -18.5q-29 0 -46.5 18.5t-17.5 45.5zM222 605q0 30 17.5 48t46.5 18q30 0 47.5 -18t17.5 -48q0 -27 -17.5 -45.5t-47.5 -18.5q-29 0 -46.5 18.5
t-17.5 45.5z" />
    <glyph glyph-name="uni04E0" unicode="&#x4e0;" horiz-adv-x="563" 
d="M225 96q33 0 62 8t50.5 23.5t34 37t12.5 48.5q0 57 -45 83.5t-126 26.5h-102v51l180 217l1 1h-250v108h431v-54l-187 -224q47 -3 86 -18.5t66.5 -41.5t43 -62t15.5 -80q0 -55 -20.5 -98t-57.5 -72.5t-87 -45t-108 -15.5q-22 0 -48 3t-51.5 9t-48.5 14t-38 17l30 105
q13 -7 33 -14.5t41.5 -13.5t43 -9.5t39.5 -3.5z" />
    <glyph glyph-name="uni04E1" unicode="&#x4e1;" horiz-adv-x="475" 
d="M183 -94q56 0 92.5 31t36.5 84q0 56 -34.5 83t-94.5 27h-87v48l138 215h1h-206v106h369v-52l-147 -220q37 -4 68.5 -19.5t54 -41t35 -60t12.5 -76.5q0 -54 -18.5 -96.5t-51.5 -71.5t-77 -44t-95 -15q-44 0 -82 8.5t-75 24.5l33 103q29 -15 61.5 -24.5t66.5 -9.5z" />
    <glyph glyph-name="uni04E2" unicode="&#x4e2;" horiz-adv-x="681" 
d="M476 461q-1 -2 -1.5 -2.5t-1.5 -2.5l-328 -456h-74v700h116v-466l3 5l327 461h75v-700h-116v461zM174 818h330v-95h-330v95z" />
    <glyph glyph-name="uni04E3" unicode="&#x4e3;" horiz-adv-x="546" 
d="M352 287q-2 -4 -3 -5l-216 -282h-70v500h111v-293q1 2 1.5 2.5t1.5 2.5l215 288h71v-500h-111v287zM115 632h311v-94h-311v94z" />
    <glyph glyph-name="uni04E4" unicode="&#x4e4;" horiz-adv-x="681" 
d="M476 461q-1 -2 -1.5 -2.5t-1.5 -2.5l-328 -456h-74v700h116v-466l3 5l327 461h75v-700h-116v461zM175 754q0 28 19 45t49 17t48.5 -17t18.5 -45q0 -27 -18.5 -44t-48.5 -17t-49 17t-19 44zM353 754q0 28 18 45t48 17q31 0 50 -17t19 -45q0 -27 -19 -44t-50 -17
q-30 0 -48 17t-18 44z" />
    <glyph glyph-name="uni04E5" unicode="&#x4e5;" horiz-adv-x="546" 
d="M352 287q-2 -4 -3 -5l-216 -282h-70v500h111v-293q1 2 1.5 2.5t1.5 2.5l215 288h71v-500h-111v287zM121 605q0 30 17.5 48t46.5 18q28 0 45.5 -18t17.5 -48q0 -27 -17.5 -45.5t-45.5 -18.5q-29 0 -46.5 18.5t-17.5 45.5zM298 605q0 30 17.5 48t46.5 18q30 0 47.5 -18
t17.5 -48q0 -27 -17.5 -45.5t-47.5 -18.5q-29 0 -46.5 18.5t-17.5 45.5z" />
    <glyph glyph-name="uni04E6" unicode="&#x4e6;" horiz-adv-x="684" 
d="M43 350q0 176 74.5 268.5t214.5 92.5q75 0 129.5 -26t90 -73t53 -113.5t17.5 -148.5q0 -176 -75 -268.5t-215 -92.5q-74 0 -128.5 25.5t-90 73t-53 114t-17.5 148.5zM164 350q0 -51 10 -97t30.5 -81t52 -55.5t75.5 -20.5q80 0 124.5 62t44.5 192q0 50 -10 96t-30.5 81
t-52.5 56t-76 21q-79 0 -123.5 -62t-44.5 -192zM178 754q0 28 19 45t49 17t48.5 -17t18.5 -45q0 -27 -18.5 -44t-48.5 -17t-49 17t-19 44zM356 754q0 28 18 45t48 17q31 0 50 -17t19 -45q0 -27 -19 -44t-50 -17q-30 0 -48 17t-18 44z" />
    <glyph glyph-name="uni04E7" unicode="&#x4e7;" horiz-adv-x="536" 
d="M37 250q0 128 56.5 194.5t164.5 66.5q57 0 98.5 -18.5t69 -53t40.5 -82.5t13 -107q0 -128 -56.5 -194.5t-164.5 -66.5q-57 0 -98.5 18.5t-69 53t-40.5 82.5t-13 107zM151 250q0 -32 5.5 -60.5t18.5 -50.5t33.5 -35t49.5 -13q107 -1 107 159q0 32 -6 61t-18.5 50.5
t-33 34.5t-49.5 13q-107 1 -107 -159zM105 605q0 30 17.5 48t46.5 18q28 0 45.5 -18t17.5 -48q0 -27 -17.5 -45.5t-45.5 -18.5q-29 0 -46.5 18.5t-17.5 45.5zM282 605q0 30 17.5 48t46.5 18q30 0 47.5 -18t17.5 -48q0 -27 -17.5 -45.5t-47.5 -18.5q-29 0 -46.5 18.5
t-17.5 45.5z" />
    <glyph glyph-name="uni04E8" unicode="&#x4e8;" horiz-adv-x="684" 
d="M43 350q0 176 74.5 268.5t214.5 92.5q75 0 129.5 -26t90 -73t53 -113.5t17.5 -148.5q0 -176 -75 -268.5t-215 -92.5q-74 0 -128.5 25.5t-90 73t-53 114t-17.5 148.5zM499 409q-9 100 -53.5 147.5t-113.5 47.5q-30 0 -57.5 -10t-50 -33t-38 -60.5t-20.5 -91.5h333z
M166 301q11 -103 55.5 -154t110.5 -51q30 0 58 10t50.5 34t38 63t20.5 98h-333z" />
    <glyph glyph-name="uni04E9" unicode="&#x4e9;" horiz-adv-x="536" 
d="M37 250q0 128 56.5 194.5t164.5 66.5q57 0 98.5 -18.5t69 -53t40.5 -82.5t13 -107q0 -128 -56.5 -194.5t-164.5 -66.5q-57 0 -98.5 18.5t-69 53t-40.5 82.5t-13 107zM363 297q-11 56 -37.5 84t-67.5 28q-37 0 -67 -25t-38 -87h210zM153 201q9 -51 38 -80.5t67 -29.5
q19 0 36 5.5t31.5 18.5t24.5 34t14 52h-211z" />
    <glyph glyph-name="uni04EA" unicode="&#x4ea;" horiz-adv-x="684" 
d="M43 350q0 176 74.5 268.5t214.5 92.5q75 0 129.5 -26t90 -73t53 -113.5t17.5 -148.5q0 -176 -75 -268.5t-215 -92.5q-74 0 -128.5 25.5t-90 73t-53 114t-17.5 148.5zM499 409q-9 100 -53.5 147.5t-113.5 47.5q-30 0 -57.5 -10t-50 -33t-38 -60.5t-20.5 -91.5h333z
M166 301q11 -103 55.5 -154t110.5 -51q30 0 58 10t50.5 34t38 63t20.5 98h-333zM178 754q0 28 19 45t49 17t48.5 -17t18.5 -45q0 -27 -18.5 -44t-48.5 -17t-49 17t-19 44zM356 754q0 28 18 45t48 17q31 0 50 -17t19 -45q0 -27 -19 -44t-50 -17q-30 0 -48 17t-18 44z" />
    <glyph glyph-name="uni04EB" unicode="&#x4eb;" horiz-adv-x="536" 
d="M37 250q0 128 56.5 194.5t164.5 66.5q57 0 98.5 -18.5t69 -53t40.5 -82.5t13 -107q0 -128 -56.5 -194.5t-164.5 -66.5q-57 0 -98.5 18.5t-69 53t-40.5 82.5t-13 107zM363 297q-11 56 -37.5 84t-67.5 28q-37 0 -67 -25t-38 -87h210zM153 201q9 -51 38 -80.5t67 -29.5
q19 0 36 5.5t31.5 18.5t24.5 34t14 52h-211zM105 605q0 30 17.5 48t46.5 18q28 0 45.5 -18t17.5 -48q0 -27 -17.5 -45.5t-45.5 -18.5q-29 0 -46.5 18.5t-17.5 45.5zM282 605q0 30 17.5 48t46.5 18q30 0 47.5 -18t17.5 -48q0 -27 -17.5 -45.5t-47.5 -18.5q-29 0 -46.5 18.5
t-17.5 45.5z" />
    <glyph glyph-name="uni04EC" unicode="&#x4ec;" horiz-adv-x="577" 
d="M131 411h270q-16 94 -68 143.5t-127 49.5q-43 0 -79.5 -10.5t-65.5 -27.5l-34 98q38 22 87.5 34.5t101.5 12.5q64 0 119.5 -20t96.5 -63.5t64 -112t23 -165.5q0 -98 -26 -166.5t-70.5 -112t-103 -63t-123.5 -19.5q-48 0 -91 9t-78 23l33 106q29 -14 66.5 -22.5t74.5 -8.5
q33 0 66.5 10.5t61 35t47.5 64.5t26 98h-271v107zM63 754q0 28 19 45t49 17t48.5 -17t18.5 -45q0 -27 -18.5 -44t-48.5 -17t-49 17t-19 44zM241 754q0 28 18 45t48 17q31 0 50 -17t19 -45q0 -27 -19 -44t-50 -17q-30 0 -48 17t-18 44z" />
    <glyph glyph-name="uni04ED" unicode="&#x4ed;" horiz-adv-x="465" 
d="M102 301h193q-8 48 -36.5 78t-76.5 30q-35 0 -65.5 -13t-53.5 -28l-42 90q37 26 80 39.5t95 13.5q112 0 164 -68.5t52 -192.5q0 -128 -59 -194.5t-166 -66.5q-94 0 -164 38l33 99q29 -16 63 -25.5t61 -9.5q53 -1 82.5 25.5t34.5 86.5h-195v98zM43 605q0 30 17.5 48
t46.5 18q28 0 45.5 -18t17.5 -48q0 -27 -17.5 -45.5t-45.5 -18.5q-29 0 -46.5 18.5t-17.5 45.5zM220 605q0 30 17.5 48t46.5 18q30 0 47.5 -18t17.5 -48q0 -27 -17.5 -45.5t-47.5 -18.5q-29 0 -46.5 18.5t-17.5 45.5z" />
    <glyph glyph-name="uni04EE" unicode="&#x4ee;" horiz-adv-x="553" 
d="M291 341l7 -25l6 24l132 360h122l-178 -456q-26 -66 -46.5 -113.5t-43 -77.5t-48.5 -44t-62 -14q-35 0 -58.5 8t-48.5 24l36 101q29 -17 46 -21t28 -4q18 0 31.5 21.5t24.5 63.5l-62.5 125.5l-65.5 130.5l-65.5 130.5l-62.5 125.5h134zM123 818h330v-95h-330v95z" />
    <glyph glyph-name="uni04EF" unicode="&#x4ef;" horiz-adv-x="466" 
d="M243 146l50 178l50 176h115l-146 -441l-32 -92.5t-36 -79.5t-46.5 -56t-62.5 -21q-41 0 -103 46l54 67q10 -3 17.5 -5t12.5 -2q19 0 37.5 23t32.5 78l-97 241.5l-97 241.5h126zM83 632h311v-94h-311v94z" />
    <glyph glyph-name="uni04F0" unicode="&#x4f0;" horiz-adv-x="553" 
d="M291 341l7 -25l6 24l132 360h122l-178 -456q-26 -66 -46.5 -113.5t-43 -77.5t-48.5 -44t-62 -14q-35 0 -58.5 8t-48.5 24l36 101q29 -17 46 -21t28 -4q18 0 31.5 21.5t24.5 63.5l-62.5 125.5l-65.5 130.5l-65.5 130.5l-62.5 125.5h134zM130 754q0 28 19 45t49 17
t48.5 -17t18.5 -45q0 -27 -18.5 -44t-48.5 -17t-49 17t-19 44zM308 754q0 28 18 45t48 17q31 0 50 -17t19 -45q0 -27 -19 -44t-50 -17q-30 0 -48 17t-18 44z" />
    <glyph glyph-name="uni04F1" unicode="&#x4f1;" horiz-adv-x="466" 
d="M243 146l50 178l50 176h115l-146 -441l-32 -92.5t-36 -79.5t-46.5 -56t-62.5 -21q-41 0 -103 46l54 67q10 -3 17.5 -5t12.5 -2q19 0 37.5 23t32.5 78l-97 241.5l-97 241.5h126zM84 605q0 30 17.5 48t46.5 18q28 0 45.5 -18t17.5 -48q0 -27 -17.5 -45.5t-45.5 -18.5
q-29 0 -46.5 18.5t-17.5 45.5zM261 605q0 30 17.5 48t46.5 18q30 0 47.5 -18t17.5 -48q0 -27 -17.5 -45.5t-47.5 -18.5q-29 0 -46.5 18.5t-17.5 45.5z" />
    <glyph glyph-name="uni04F2" unicode="&#x4f2;" horiz-adv-x="553" 
d="M291 341l7 -25l6 24l132 360h122l-178 -456q-26 -66 -46.5 -113.5t-43 -77.5t-48.5 -44t-62 -14q-35 0 -58.5 8t-48.5 24l36 101q29 -17 46 -21t28 -4q18 0 31.5 21.5t24.5 63.5l-62.5 125.5l-65.5 130.5l-65.5 130.5l-62.5 125.5h134zM230 824h114v-42l-102 -96h-94z
M381 824h119v-43l-145 -95h-103z" />
    <glyph glyph-name="uni04F3" unicode="&#x4f3;" horiz-adv-x="466" 
d="M243 146l50 178l50 176h115l-146 -441l-32 -92.5t-36 -79.5t-46.5 -56t-62.5 -21q-41 0 -103 46l54 67q10 -3 17.5 -5t12.5 -2q19 0 37.5 23t32.5 78l-97 241.5l-97 241.5h126zM181 685h105v-39l-74 -117h-73zM320 685h108v-41l-116 -115h-81z" />
    <glyph glyph-name="uni04F4" unicode="&#x4f4;" horiz-adv-x="605" 
d="M176 700v-238q0 -111 99 -111q38 0 71 9.5t56 24.5v315h117v-700h-117v274q-26 -11 -63.5 -21t-79.5 -10q-44 0 -81 10t-63 33.5t-40.5 62.5t-14.5 98v253h116zM142 754q0 28 19 45t49 17t48.5 -17t18.5 -45q0 -27 -18.5 -44t-48.5 -17t-49 17t-19 44zM320 754
q0 28 18 45t48 17q31 0 50 -17t19 -45q0 -27 -19 -44t-50 -17q-30 0 -48 17t-18 44z" />
    <glyph glyph-name="uni04F5" unicode="&#x4f5;" horiz-adv-x="490" 
d="M147 500v-144q0 -21 2 -37.5t8.5 -28.5t18.5 -18.5t32 -6.5q31 0 54 6t36 14v215h111v-500h-111v181q-18 -8 -42.5 -13t-62.5 -5q-39 0 -68.5 8.5t-49.5 29t-30 55t-10 85.5v159h112zM70 605q0 30 17.5 48t46.5 18q28 0 45.5 -18t17.5 -48q0 -27 -17.5 -45.5t-45.5 -18.5
q-29 0 -46.5 18.5t-17.5 45.5zM247 605q0 30 17.5 48t46.5 18q30 0 47.5 -18t17.5 -48q0 -27 -17.5 -45.5t-47.5 -18.5q-29 0 -46.5 18.5t-17.5 45.5z" />
    <glyph glyph-name="uni04F6" unicode="&#x4f6;" horiz-adv-x="442" 
d="M455 580h-271v-474h85v-225h-89l-13 119h-97v685h385v-105z" />
    <glyph glyph-name="uni04F7" unicode="&#x4f7;" horiz-adv-x="369" 
d="M61 500h307v-102h-196v-296h69v-220h-86l-12 118h-82v500z" />
    <glyph glyph-name="uni04F8" unicode="&#x4f8;" horiz-adv-x="769" 
d="M560 700h116v-700h-116v700zM72 700h116v-254q13 2 31 3t32 1q48 0 93 -10t80 -34.5t56 -66.5t21 -106q0 -62 -19.5 -107.5t-54.5 -75t-83.5 -44t-107.5 -14.5q-26 0 -71.5 3.5t-92.5 15.5v689zM242 98q60 0 99 32t39 97q0 34 -11.5 57t-31 36t-45.5 18.5t-54 5.5
q-11 0 -25 -0.5t-25 -2.5v-240q11 -2 25 -2.5t29 -0.5zM214 754q0 28 19 45t49 17t48.5 -17t18.5 -45q0 -27 -18.5 -44t-48.5 -17t-49 17t-19 44zM392 754q0 28 18 45t48 17q31 0 50 -17t19 -45q0 -27 -19 -44t-50 -17q-30 0 -48 17t-18 44z" />
    <glyph glyph-name="uni04F9" unicode="&#x4f9;" horiz-adv-x="660" 
d="M176 99q25 -3 47 -3q48 0 67 18t19 51q0 29 -18.5 47.5t-64.5 18.5q-12 0 -25 0.5t-25 -1.5v-131zM176 326q17 2 32.5 3t30.5 1q53 0 88.5 -12t56.5 -33.5t30 -50t9 -61.5q0 -94 -51 -136.5t-165 -42.5q-29 0 -64.5 2t-77.5 6v498h111v-174zM459 500h112v-500h-112v500z
M165 605q0 30 17.5 48t46.5 18q28 0 45.5 -18t17.5 -48q0 -27 -17.5 -45.5t-45.5 -18.5q-29 0 -46.5 18.5t-17.5 45.5zM342 605q0 30 17.5 48t46.5 18q30 0 47.5 -18t17.5 -48q0 -27 -17.5 -45.5t-47.5 -18.5q-29 0 -46.5 18.5t-17.5 45.5z" />
    <glyph glyph-name="uni04FC" unicode="&#x4fc;" horiz-adv-x="618" 
d="M436 -20q0 42 -14 74t-31 58l-84 128l-11 23q-4 -13 -8 -20l-156 -243h-131l228 348l-51 82l-54 87l-53.5 87l-50.5 81h137l138 -229l6 -16q3 6 4 9.5t3 8.5l144 227h130l-216 -330l61 -94.5l61 -94.5q59 -90 59 -171q0 -95 -34.5 -142t-110.5 -47h-7q-6 0 -13.5 0.5
t-26.5 4.5v96q26 0 42 6t24.5 16t11.5 23.5t3 27.5z" />
    <glyph glyph-name="uni04FD" unicode="&#x4fd;" horiz-adv-x="514" 
d="M398 145q29 -42 46 -82t17 -78q0 -90 -39.5 -135.5t-114.5 -45.5q-9 0 -22 1l-26 2v99q53 0 72 15.5t19 47.5q0 35 -15 65.5t-32 56.5v-1l-22 29l-22 29l-14 24l-11 -22l-107 -150h-127l180 256l-41.5 59l-43 63l-43 63.5l-40.5 58.5h135l94 -136l11 -22q2 4 4 8.5t4 8.5
l98 141h128l-169 -240z" />
    <glyph glyph-name="uni0510" unicode="&#x510;" horiz-adv-x="540" 
d="M340 306h-18.5t-17.5 -1h-4q-58 -5 -93.5 -28t-35.5 -71q0 -57 39 -84.5t105 -27.5q36 0 75 12t65 29l38 -94q-29 -19 -78 -35.5t-114 -16.5q-56 0 -101.5 12.5t-78.5 39t-51 66.5t-18 94q0 62 27 105t79 63q-45 26 -65.5 67t-20.5 83q0 46 18 79.5t49.5 55.5t73 32
t89.5 10q27 0 54 -4t51.5 -10.5t44.5 -14.5t33 -16l-34 -95q-31 14 -70.5 24.5t-71.5 10.5q-56 0 -87.5 -18t-31.5 -62q0 -21 10 -38.5t26 -30t36 -20t41 -10.5q16 -2 36.5 -3t36.5 -1h34v-102h-70z" />
    <glyph glyph-name="uni0511" unicode="&#x511;" horiz-adv-x="441" 
d="M247 206q-54 0 -77.5 -13.5t-23.5 -38.5q0 -27 25 -43.5t73 -16.5q31 0 64.5 10.5t61.5 27.5l34 -96q-30 -17 -68 -30.5t-89 -13.5q-107 0 -159.5 42t-52.5 114q0 45 17.5 73.5t55.5 45.5q-55 37 -55 106q0 67 46.5 100t125.5 33q56 0 99 -15t78 -35l-33 -94
q-11 7 -26 14.5t-31.5 14t-33.5 10.5t-33 4q-41 0 -61 -11t-20 -37q0 -11 6.5 -21t16.5 -17t23 -11t26 -4h84v-98h-73z" />
    <glyph glyph-name="uni0512" unicode="&#x512;" horiz-adv-x="626" 
d="M529 -6q0 -96 -33.5 -143t-108.5 -47h-13t-11 1q-3 0 -12 0.5t-11 0.5v100q27 0 42 6t22.5 19.5t9 35t1.5 52.5v561h-157q-9 -179 -25.5 -298.5t-46.5 -189.5q-23 -49 -54.5 -73t-69.5 -24q-17 0 -35.5 4t-38.5 14l17 100q14 -5 22 -6t13 -1q11 0 22.5 8.5t22.5 29.5
q12 24 23 66t19 107t14 155.5t9 212.5h379v-691z" />
    <glyph glyph-name="uni0513" unicode="&#x513;" horiz-adv-x="503" 
d="M310 398h-99v-11q-3 -41 -7 -85.5t-10.5 -88t-17 -83t-26.5 -69.5t-39 -47.5t-54 -17.5q-19 0 -36 3.5t-39 13.5l17 98q17 -6 26 -8.5t13 -2.5q14 0 25.5 16t20.5 59.5t15 121.5t9 203h313v-506q0 -96 -34 -143t-109 -47h-12.5t-11.5 1q-3 0 -11.5 0.5t-10.5 0.5v100
q26 0 41.5 7t23.5 21t10.5 35t2.5 50v379z" />
    <glyph glyph-name="uni051C" unicode="&#x51c;" horiz-adv-x="828" 
d="M236 244l136 441h65l136 -443l113 443h113l-191 -695h-70l-137 451v2v-3l-137 -450h-70l-195 695h119z" />
    <glyph glyph-name="uni051D" unicode="&#x51d;" horiz-adv-x="735" 
d="M398 500l110 -281l5 -16q1 2 1 5.5t1 5.5l87 286h111l-169 -510h-62l-126 318l-2 8q-1 -3 -0.5 -4t-0.5 -4l-122 -318h-62l-174 510h120l97 -285l1 -3q2 8 2 12l103 276h80z" />
    <glyph glyph-name="uni0524" unicode="&#x524;" horiz-adv-x="694" 
d="M450 580h-262v-580h-114v685h490v-579h85v-225h-89l-14 119h-96v580z" />
    <glyph glyph-name="uni0525" unicode="&#x525;" horiz-adv-x="554" 
d="M343 398h-168v-398h-111v500h390v-398h68v-220h-85l-13 118h-81v398z" />
    <glyph glyph-name="uni0526" unicode="&#x526;" horiz-adv-x="640" 
d="M409 0v233q0 109 -96 109q-39 0 -71 -8.5t-55 -25.5v-308h-114v685h114v-268q26 11 63 20.5t78 9.5q43 0 79 -9.5t62 -33t40 -62t14 -95.5v-141h85v-225h-88l-14 119h-97z" />
    <glyph glyph-name="uni0527" unicode="&#x527;" horiz-adv-x="574" 
d="M362 0v282q0 64 -16 95.5t-65 31.5q-36 0 -65.5 -23.5t-39.5 -59.5v-326h-112v685h112v-216q23 20 53.5 31t72.5 11q44 0 76.5 -9.5t53.5 -34t31 -65.5t10 -104v-196h68v-220h-85l-13 118h-81z" />
    <glyph glyph-name="uni1E30" unicode="&#x1e30;" horiz-adv-x="610" 
d="M203 306h-16v-306h-116v700h116v-295h14l111.5 147.5l111.5 147.5h140l-268 -336q3 -3 5.5 -6.5t5.5 -6.5l287 -351h-150zM300 843h132v-49l-165 -98h-113z" />
    <glyph glyph-name="uni1E31" unicode="&#x1e31;" horiz-adv-x="479" 
d="M188 208h-14v-208h-111v685h111v-393h11l71 103.5l71 104.5h135l-194 -234l53 -64.5l56 -69l55.5 -68.5l51.5 -64h-140zM274 704h114v-45l-103 -130h-80z" />
    <glyph glyph-name="uni1E3E" unicode="&#x1e3e;" horiz-adv-x="791" 
d="M581 455l-174 -301h-44l-179 294v-448h-112v700h88l214 -349l15 -34q4 9 6.5 17t5.5 16l206 350h90v-700h-116v455zM435 843h132v-49l-165 -98h-113z" />
    <glyph glyph-name="uni1E3F" unicode="&#x1e3f;" horiz-adv-x="812" 
d="M339 0v281q0 64 -12.5 96t-55.5 32q-35 0 -58.5 -20.5t-33.5 -52.5v-336h-111v500h101l1 -34q23 21 54 33t75 12q43 0 72.5 -13.5t48.5 -45.5q51 59 140 59q43 0 74 -9.5t50.5 -34t28.5 -66t9 -105.5v-296h-111v297q0 57 -13.5 84.5t-56.5 27.5q-38 0 -59.5 -20.5
t-31.5 -61.5v-327h-111zM408 704h114v-45l-103 -130h-80z" />
    <glyph glyph-name="uni1E54" unicode="&#x1e54;" horiz-adv-x="559" 
d="M70 689q48 11 93 15t85 4q47 0 95.5 -9.5t88 -34.5t64.5 -68.5t25 -110.5q0 -66 -23.5 -111.5t-62 -73t-88 -40t-102.5 -12.5q-11 0 -29.5 -0.5t-29.5 1.5v-249h-116v689zM250 602h-35t-29 -2v-243q11 -1 25.5 -1h23.5h6q29 0 57.5 5t51 19.5t36.5 39.5t14 65
q0 33 -13.5 55.5t-34.5 36t-48 19.5t-54 6zM305 843h132v-49l-165 -98h-113z" />
    <glyph glyph-name="uni1E55" unicode="&#x1e55;" horiz-adv-x="541" 
d="M63 500h102v-30q47 41 118 41q101 0 151.5 -59t50.5 -193q0 -62 -16.5 -112t-47 -85t-73.5 -54t-95 -19q-26 0 -44 2t-35 7v-183h-111v685zM269 409q-77 0 -95 -84v-217q14 -9 30.5 -13t45.5 -4q56 0 88.5 42.5t32.5 126.5q0 68 -23 108.5t-79 40.5zM277 704h114v-45
l-103 -130h-80z" />
    <glyph glyph-name="uni1E9E" unicode="&#x1e9e;" horiz-adv-x="667" 
d="M382 573q-18 9 -46 15t-58 6q-34 0 -52.5 -13.5t-27.5 -36t-10.5 -52t-1.5 -60.5v-432h-113v461q0 49 8.5 91.5t31.5 74.5t64 50.5t106 18.5q40 0 75.5 -7.5t67 -20t59 -29t51.5 -35.5l-156 -191q90 -7 140 -58.5t50 -138.5q0 -110 -61 -168.5t-170 -58.5q-9 0 -25 1
t-35 4t-39 7.5t-35 12.5l18 112q14 -9 30.5 -15.5t33 -10t30.5 -5t23 -1.5h-1q57 2 83.5 31.5t28.5 82.5v-1q0 56 -36 82.5t-105 26.5h-75v79z" />
    <glyph glyph-name="uni2011" unicode="&#x2011;" horiz-adv-x="360" 
d="M43 338h261v-106h-261v106z" />
    <glyph glyph-name="endash" unicode="&#x2013;" horiz-adv-x="660" 
d="M103 338h430v-106h-430v106z" />
    <glyph glyph-name="emdash" unicode="&#x2014;" horiz-adv-x="820" 
d="M106 338h578v-106h-578v106z" />
    <glyph glyph-name="quoteleft" unicode="&#x2018;" horiz-adv-x="194" 
d="M166 593q0 -30 -19 -47.5t-49 -17.5q-33 0 -54.5 21t-21.5 63q0 34 11.5 60t28 44t34.5 29t31 16l44 -61q-19 -10 -32 -21t-19 -25q23 -5 34.5 -21.5t11.5 -39.5z" />
    <glyph glyph-name="quoteright" unicode="&#x2019;" horiz-adv-x="194" 
d="M22 629q0 30 18.5 47t48.5 17q34 0 55.5 -21t21.5 -63q0 -34 -11.5 -60t-28 -44.5t-35 -29.5t-31.5 -16l-44 60q19 10 32 21.5t18 25.5q-20 4 -32 20.5t-12 42.5z" />
    <glyph glyph-name="quotesinglbase" unicode="&#x201a;" horiz-adv-x="194" 
d="M22 21q0 30 18.5 47t48.5 17q34 0 55.5 -21t21.5 -63q0 -34 -11.5 -60t-28 -44.5t-35 -29.5t-31.5 -16l-44 60q19 10 32 21.5t18 25.5q-20 4 -32 20.5t-12 42.5z" />
    <glyph glyph-name="quotedblleft" unicode="&#x201c;" horiz-adv-x="340" 
d="M312 593q0 -30 -19 -47.5t-49 -17.5q-33 0 -54.5 21t-21.5 63q0 34 11.5 60t28 44t34.5 29t31 16l44 -61q-19 -10 -32 -21t-19 -25q23 -5 34.5 -21.5t11.5 -39.5zM166 593q0 -30 -19 -47.5t-49 -17.5q-33 0 -54.5 21t-21.5 63q0 34 11.5 60t28 44t34.5 29t31 16l44 -61
q-19 -10 -32 -21t-19 -25q23 -5 34.5 -21.5t11.5 -39.5z" />
    <glyph glyph-name="quotedblright" unicode="&#x201d;" horiz-adv-x="340" 
d="M168 629q0 30 18.5 47t48.5 17q34 0 55.5 -21t21.5 -63q0 -34 -11.5 -60t-28 -44.5t-35 -29.5t-31.5 -16l-44 60q19 10 32 21.5t18 25.5q-20 4 -32 20.5t-12 42.5zM22 629q0 30 18.5 47t48.5 17q34 0 55.5 -21t21.5 -63q0 -34 -11.5 -60t-28 -44.5t-35 -29.5t-31.5 -16
l-44 60q19 10 32 21.5t18 25.5q-20 4 -32 20.5t-12 42.5z" />
    <glyph glyph-name="quotedblbase" unicode="&#x201e;" horiz-adv-x="340" 
d="M168 21q0 30 18.5 47t48.5 17q34 0 55.5 -21t21.5 -63q0 -34 -11.5 -60t-28 -44.5t-35 -29.5t-31.5 -16l-44 60q19 10 32 21.5t18 25.5q-20 4 -32 20.5t-12 42.5zM22 21q0 30 18.5 47t48.5 17q34 0 55.5 -21t21.5 -63q0 -34 -11.5 -60t-28 -44.5t-35 -29.5t-31.5 -16
l-44 60q19 10 32 21.5t18 25.5q-20 4 -32 20.5t-12 42.5z" />
    <glyph glyph-name="dagger" unicode="&#x2020;" horiz-adv-x="486" 
d="M28 502h143l10 -3l-3 14v172h112v-172l-3 -14q6 2 10 3h143v-104h-143l-9 3q1 -3 1 -5t1 -4v-374l-15 -203h-82l-15 204v373l2 8q-2 -1 -4 -1t-5 -1h-143v104z" />
    <glyph glyph-name="daggerdbl" unicode="&#x2021;" horiz-adv-x="486" 
d="M178 391l3 9q-2 -1 -5 -1t-5 -1h-143v104h143l10 -2l-3 12v173h112v-173l-3 -12q2 1 5 1t5 1h143v-104h-143l-10 3q1 -4 1.5 -6.5t1.5 -5.5v-117l-3 -10l12 3h141v-104h-143l-10 2l3 -12v-133l-16 -203h-80l-16 204v132l3 12q-2 -1 -5 -1t-5 -1h-143v104h143l10 -2
l-1.5 6t-1.5 5v117z" />
    <glyph glyph-name="bullet" unicode="&#x2022;" horiz-adv-x="452" 
d="M70 306q0 33 11.5 60t31.5 46.5t47 30.5t58 11q30 0 57 -10t47 -29t31.5 -46.5t11.5 -62.5t-11.5 -62t-31.5 -46t-47 -29t-57 -10q-31 0 -58 10t-47 29t-31.5 46t-11.5 62z" />
    <glyph glyph-name="ellipsis" unicode="&#x2026;" horiz-adv-x="759" 
d="M532 61q0 34 19.5 53t51.5 19q34 0 53.5 -19t19.5 -53q0 -32 -19.5 -52t-53.5 -20q-32 0 -51.5 20t-19.5 52zM297 61q0 34 19 53t52 19t53 -19t20 -53q0 -32 -20 -52t-53 -20t-52 20t-19 52zM61 61q0 34 19.5 53t52.5 19t53 -19t20 -53q0 -32 -20 -52t-53 -20t-52.5 20
t-19.5 52z" />
    <glyph glyph-name="perthousand" unicode="&#x2030;" horiz-adv-x="1147" 
d="M56 520q0 46 12.5 79.5t34 55t51 31.5t64.5 10q34 0 63.5 -9t51.5 -30t34.5 -54.5t12.5 -82.5q0 -48 -12.5 -81.5t-34.5 -54.5t-51.5 -30.5t-63.5 -9.5q-35 0 -64.5 9.5t-51 30.5t-34 54.5t-12.5 81.5zM161 520q0 -46 15 -65.5t42 -19.5q26 0 41 18t15 67q0 50 -15 68
t-41 18q-27 0 -42 -18t-15 -68zM412 150q0 46 12.5 79.5t34 55t51 31.5t64.5 10q34 0 63.5 -9t51.5 -30t34.5 -54.5t12.5 -82.5q0 -48 -12.5 -81.5t-34.5 -54.5t-51.5 -30.5t-63.5 -9.5q-35 0 -64.5 9.5t-51 30.5t-34 54.5t-12.5 81.5zM517 150q0 -46 15 -65.5t42 -19.5
q26 0 41 18t15 67q0 50 -15 68t-41 18q-27 0 -42 -18t-15 -68zM769 150q0 46 12.5 79.5t34 55t51 31.5t64.5 10q34 0 63.5 -9t51.5 -30t34.5 -54.5t12.5 -82.5q0 -48 -12.5 -81.5t-34.5 -54.5t-51.5 -30.5t-63.5 -9.5q-35 0 -64.5 9.5t-51 30.5t-34 54.5t-12.5 81.5z
M874 150q0 -46 15 -65.5t42 -19.5q26 0 41 18t15 67q0 50 -15 68t-41 18q-27 0 -42 -18t-15 -68zM613 705l75 -58l-498 -666l-75 59z" />
    <glyph glyph-name="guilsinglleft" unicode="&#x2039;" horiz-adv-x="297" 
d="M19 257l167 241l78 -63l-102 -152l-27 -24l14 -10t13 -10l107 -147l-77 -65z" />
    <glyph glyph-name="guilsinglright" unicode="&#x203a;" horiz-adv-x="297" 
d="M267 268l-167 -241l-78 63l102 152l27 24l-14 10t-13 10l-107 147l77 65z" />
    <glyph glyph-name="fraction" unicode="&#x2044;" horiz-adv-x="184" 
d="M286 704l79 -52l-473 -671l-78 55z" />
    <glyph glyph-name="uni2081" unicode="&#x2081;" horiz-adv-x="394" 
d="M55 1h99v203l-79 -48l-43 77l160 107h63v-339h88v-94h-288v94z" />
    <glyph glyph-name="uni2082" unicode="&#x2082;" horiz-adv-x="394" 
d="M321 213q0 -58 -33 -108.5t-81 -101.5h133v-96h-307v58l53 47t61.5 62.5t50.5 68t21 62.5q0 20 -12.5 29.5t-32.5 9.5q-21 0 -48.5 -12t-50.5 -27l-34 88q33 22 71 34.5t73 12.5q68 0 102 -33.5t34 -93.5z" />
    <glyph glyph-name="uni2083" unicode="&#x2083;" horiz-adv-x="394" 
d="M164 -6q73 0 73 50q0 22 -16.5 35.5t-54.5 13.5h-70v46l85 102h-129v92h274v-55l-91 -108q48 -8 76 -41.5t28 -84.5q0 -65 -46 -104t-124 -39q-35 0 -65.5 8t-56.5 16l24 94q24 -11 47.5 -18t45.5 -7z" />
    <glyph glyph-name="uni2084" unicode="&#x2084;" horiz-adv-x="394" 
d="M377 -4h-77v-89h-99v89h-189v60l219 291h69v-259h77v-92zM99 83q11 1 23 2.5t23 2.5h4l-4 -7l-33 -30zM201 157v31l4 46l35 -8q-5 -11 -11 -23t-11 -23zM201 157l-52 -69h52v69z" />
    <glyph glyph-name="Euro" unicode="&#x20ac;" 
d="M22 457h56q12 64 37.5 109t61.5 74t80.5 42.5t93.5 13.5q48 0 88 -8t75 -22l-32 -102q-29 14 -60.5 21.5t-69.5 7.5q-53 0 -95 -31.5t-62 -104.5h261l-24 -98h-249v-16v-6v-1v-0.5v-4.5h239l-24 -99h-203q34 -139 170 -139q34 0 66.5 10.5t61.5 27.5l29 -93
q-35 -28 -81.5 -38.5t-91.5 -10.5q-110 0 -180.5 58.5t-92.5 184.5h-81l27 99h45v12q0 9 -0.5 8t0.5 8h-72z" />
    <glyph glyph-name="uni20B4" unicode="&#x20b4;" 
d="M444 331v-99h-223q-17 -18 -30.5 -43t-13.5 -48q0 -25 21.5 -38t72.5 -13q42 0 73.5 11t59.5 25l35 -93q-29 -17 -71.5 -30.5t-110.5 -13.5q-98 0 -146 37.5t-48 106.5q0 26 10.5 52.5t23.5 46.5h-68v99h415zM29 359v98h228q40 45 40 94q0 23 -17.5 33t-60.5 10
q-33 0 -62.5 -10t-56.5 -24l-36 97q33 17 71.5 28t97.5 11q177 0 177 -134q0 -30 -8.5 -55.5t-22.5 -49.5h65v-98h-415z" />
    <glyph glyph-name="uni20B6" unicode="&#x20b6;" 
d="M22 348h66v326q48 11 91.5 15t82.5 4q46 0 90.5 -9.5t79 -33.5t55.5 -65.5t21 -106.5q0 -64 -21.5 -107t-57 -68.5t-81 -36.5t-92.5 -12l-54 -1v-29h154v-94h-154v-130h-114v130h-66v94h66v30h-66v94zM264 591q-19 0 -34 -0.5t-28 -2.5v-234h52q24 0 48.5 5t44 18.5
t32 37.5t11.5 62q1 33 -9.5 54.5t-28 35t-40.5 19t-48 5.5z" />
    <glyph glyph-name="uni20B7" unicode="&#x20b7;" 
d="M22 348h66v326q48 11 91.5 15t82.5 4q46 0 90.5 -9.5t79 -33.5t55.5 -65.5t21 -106.5q0 -64 -21.5 -107t-57 -68.5t-81 -36.5t-92.5 -12l-54 -1v-29h154v-94h-154v-130h-114v130h-66v94h66v30h-66v94zM264 591q-19 0 -34 -0.5t-28 -2.5v-234h52q24 0 48.5 5t44 18.5
t32 37.5t11.5 62q1 33 -9.5 54.5t-28 35t-40.5 19t-48 5.5z" />
    <glyph glyph-name="uni20B9" unicode="&#x20b9;" 
d="M22 348h66v326q48 11 91.5 15t82.5 4q46 0 90.5 -9.5t79 -33.5t55.5 -65.5t21 -106.5q0 -64 -21.5 -107t-57 -68.5t-81 -36.5t-92.5 -12l-54 -1v-29h154v-94h-154v-130h-114v130h-66v94h66v30h-66v94zM264 591q-19 0 -34 -0.5t-28 -2.5v-234h52q24 0 48.5 5t44 18.5
t32 37.5t11.5 62q1 33 -9.5 54.5t-28 35t-40.5 19t-48 5.5z" />
    <glyph glyph-name="uni20BA" unicode="&#x20ba;" 
d="M22 348h66v326q48 11 91.5 15t82.5 4q46 0 90.5 -9.5t79 -33.5t55.5 -65.5t21 -106.5q0 -64 -21.5 -107t-57 -68.5t-81 -36.5t-92.5 -12l-54 -1v-29h154v-94h-154v-130h-114v130h-66v94h66v30h-66v94zM264 591q-19 0 -34 -0.5t-28 -2.5v-234h52q24 0 48.5 5t44 18.5
t32 37.5t11.5 62q1 33 -9.5 54.5t-28 35t-40.5 19t-48 5.5z" />
    <glyph glyph-name="uni20BB" unicode="&#x20bb;" 
d="M22 348h66v326q48 11 91.5 15t82.5 4q46 0 90.5 -9.5t79 -33.5t55.5 -65.5t21 -106.5q0 -64 -21.5 -107t-57 -68.5t-81 -36.5t-92.5 -12l-54 -1v-29h154v-94h-154v-130h-114v130h-66v94h66v30h-66v94zM264 591q-19 0 -34 -0.5t-28 -2.5v-234h52q24 0 48.5 5t44 18.5
t32 37.5t11.5 62q1 33 -9.5 54.5t-28 35t-40.5 19t-48 5.5z" />
    <glyph glyph-name="uni20BC" unicode="&#x20bc;" 
d="M22 348h66v326q48 11 91.5 15t82.5 4q46 0 90.5 -9.5t79 -33.5t55.5 -65.5t21 -106.5q0 -64 -21.5 -107t-57 -68.5t-81 -36.5t-92.5 -12l-54 -1v-29h154v-94h-154v-130h-114v130h-66v94h66v30h-66v94zM264 591q-19 0 -34 -0.5t-28 -2.5v-234h52q24 0 48.5 5t44 18.5
t32 37.5t11.5 62q1 33 -9.5 54.5t-28 35t-40.5 19t-48 5.5z" />
    <glyph glyph-name="uni20BD" unicode="&#x20bd;" 
d="M22 348h66v326q48 11 91.5 15t82.5 4q46 0 90.5 -9.5t79 -33.5t55.5 -65.5t21 -106.5q0 -64 -21.5 -107t-57 -68.5t-81 -36.5t-92.5 -12l-54 -1v-29h154v-94h-154v-130h-114v130h-66v94h66v30h-66v94zM264 591q-19 0 -34 -0.5t-28 -2.5v-234h52q24 0 48.5 5t44 18.5
t32 37.5t11.5 62q1 33 -9.5 54.5t-28 35t-40.5 19t-48 5.5z" />
    <glyph glyph-name="uni20BE" unicode="&#x20be;" 
d="M22 348h66v326q48 11 91.5 15t82.5 4q46 0 90.5 -9.5t79 -33.5t55.5 -65.5t21 -106.5q0 -64 -21.5 -107t-57 -68.5t-81 -36.5t-92.5 -12l-54 -1v-29h154v-94h-154v-130h-114v130h-66v94h66v30h-66v94zM264 591q-19 0 -34 -0.5t-28 -2.5v-234h52q24 0 48.5 5t44 18.5
t32 37.5t11.5 62q1 33 -9.5 54.5t-28 35t-40.5 19t-48 5.5z" />
    <glyph glyph-name="uni20BF" unicode="&#x20bf;" 
d="M22 348h66v326q48 11 91.5 15t82.5 4q46 0 90.5 -9.5t79 -33.5t55.5 -65.5t21 -106.5q0 -64 -21.5 -107t-57 -68.5t-81 -36.5t-92.5 -12l-54 -1v-29h154v-94h-154v-130h-114v130h-66v94h66v30h-66v94zM264 591q-19 0 -34 -0.5t-28 -2.5v-234h52q24 0 48.5 5t44 18.5
t32 37.5t11.5 62q1 33 -9.5 54.5t-28 35t-40.5 19t-48 5.5z" />
    <glyph glyph-name="uni20C0" unicode="&#x20c0;" 
d="M22 348h66v326q48 11 91.5 15t82.5 4q46 0 90.5 -9.5t79 -33.5t55.5 -65.5t21 -106.5q0 -64 -21.5 -107t-57 -68.5t-81 -36.5t-92.5 -12l-54 -1v-29h154v-94h-154v-130h-114v130h-66v94h66v30h-66v94zM264 591q-19 0 -34 -0.5t-28 -2.5v-234h52q24 0 48.5 5t44 18.5
t32 37.5t11.5 62q1 33 -9.5 54.5t-28 35t-40.5 19t-48 5.5z" />
    <glyph glyph-name="uni20C1" unicode="&#x20c1;" 
d="M22 348h66v326q48 11 91.5 15t82.5 4q46 0 90.5 -9.5t79 -33.5t55.5 -65.5t21 -106.5q0 -64 -21.5 -107t-57 -68.5t-81 -36.5t-92.5 -12l-54 -1v-29h154v-94h-154v-130h-114v130h-66v94h66v30h-66v94zM264 591q-19 0 -34 -0.5t-28 -2.5v-234h52q24 0 48.5 5t44 18.5
t32 37.5t11.5 62q1 33 -9.5 54.5t-28 35t-40.5 19t-48 5.5z" />
    <glyph glyph-name="uni20C2" unicode="&#x20c2;" 
d="M22 348h66v326q48 11 91.5 15t82.5 4q46 0 90.5 -9.5t79 -33.5t55.5 -65.5t21 -106.5q0 -64 -21.5 -107t-57 -68.5t-81 -36.5t-92.5 -12l-54 -1v-29h154v-94h-154v-130h-114v130h-66v94h66v30h-66v94zM264 591q-19 0 -34 -0.5t-28 -2.5v-234h52q24 0 48.5 5t44 18.5
t32 37.5t11.5 62q1 33 -9.5 54.5t-28 35t-40.5 19t-48 5.5z" />
    <glyph glyph-name="uni20C3" unicode="&#x20c3;" 
d="M22 348h66v326q48 11 91.5 15t82.5 4q46 0 90.5 -9.5t79 -33.5t55.5 -65.5t21 -106.5q0 -64 -21.5 -107t-57 -68.5t-81 -36.5t-92.5 -12l-54 -1v-29h154v-94h-154v-130h-114v130h-66v94h66v30h-66v94zM264 591q-19 0 -34 -0.5t-28 -2.5v-234h52q24 0 48.5 5t44 18.5
t32 37.5t11.5 62q1 33 -9.5 54.5t-28 35t-40.5 19t-48 5.5z" />
    <glyph glyph-name="uni20C4" unicode="&#x20c4;" 
d="M22 348h66v326q48 11 91.5 15t82.5 4q46 0 90.5 -9.5t79 -33.5t55.5 -65.5t21 -106.5q0 -64 -21.5 -107t-57 -68.5t-81 -36.5t-92.5 -12l-54 -1v-29h154v-94h-154v-130h-114v130h-66v94h66v30h-66v94zM264 591q-19 0 -34 -0.5t-28 -2.5v-234h52q24 0 48.5 5t44 18.5
t32 37.5t11.5 62q1 33 -9.5 54.5t-28 35t-40.5 19t-48 5.5z" />
    <glyph glyph-name="uni20C5" unicode="&#x20c5;" 
d="M22 348h66v326q48 11 91.5 15t82.5 4q46 0 90.5 -9.5t79 -33.5t55.5 -65.5t21 -106.5q0 -64 -21.5 -107t-57 -68.5t-81 -36.5t-92.5 -12l-54 -1v-29h154v-94h-154v-130h-114v130h-66v94h66v30h-66v94zM264 591q-19 0 -34 -0.5t-28 -2.5v-234h52q24 0 48.5 5t44 18.5
t32 37.5t11.5 62q1 33 -9.5 54.5t-28 35t-40.5 19t-48 5.5z" />
    <glyph glyph-name="uni20C6" unicode="&#x20c6;" 
d="M22 348h66v326q48 11 91.5 15t82.5 4q46 0 90.5 -9.5t79 -33.5t55.5 -65.5t21 -106.5q0 -64 -21.5 -107t-57 -68.5t-81 -36.5t-92.5 -12l-54 -1v-29h154v-94h-154v-130h-114v130h-66v94h66v30h-66v94zM264 591q-19 0 -34 -0.5t-28 -2.5v-234h52q24 0 48.5 5t44 18.5
t32 37.5t11.5 62q1 33 -9.5 54.5t-28 35t-40.5 19t-48 5.5z" />
    <glyph glyph-name="uni20C7" unicode="&#x20c7;" 
d="M22 348h66v326q48 11 91.5 15t82.5 4q46 0 90.5 -9.5t79 -33.5t55.5 -65.5t21 -106.5q0 -64 -21.5 -107t-57 -68.5t-81 -36.5t-92.5 -12l-54 -1v-29h154v-94h-154v-130h-114v130h-66v94h66v30h-66v94zM264 591q-19 0 -34 -0.5t-28 -2.5v-234h52q24 0 48.5 5t44 18.5
t32 37.5t11.5 62q1 33 -9.5 54.5t-28 35t-40.5 19t-48 5.5z" />
    <glyph glyph-name="uni20C8" unicode="&#x20c8;" 
d="M22 348h66v326q48 11 91.5 15t82.5 4q46 0 90.5 -9.5t79 -33.5t55.5 -65.5t21 -106.5q0 -64 -21.5 -107t-57 -68.5t-81 -36.5t-92.5 -12l-54 -1v-29h154v-94h-154v-130h-114v130h-66v94h66v30h-66v94zM264 591q-19 0 -34 -0.5t-28 -2.5v-234h52q24 0 48.5 5t44 18.5
t32 37.5t11.5 62q1 33 -9.5 54.5t-28 35t-40.5 19t-48 5.5z" />
    <glyph glyph-name="uni20C9" unicode="&#x20c9;" 
d="M22 348h66v326q48 11 91.5 15t82.5 4q46 0 90.5 -9.5t79 -33.5t55.5 -65.5t21 -106.5q0 -64 -21.5 -107t-57 -68.5t-81 -36.5t-92.5 -12l-54 -1v-29h154v-94h-154v-130h-114v130h-66v94h66v30h-66v94zM264 591q-19 0 -34 -0.5t-28 -2.5v-234h52q24 0 48.5 5t44 18.5
t32 37.5t11.5 62q1 33 -9.5 54.5t-28 35t-40.5 19t-48 5.5z" />
    <glyph glyph-name="uni20CA" unicode="&#x20ca;" 
d="M22 348h66v326q48 11 91.5 15t82.5 4q46 0 90.5 -9.5t79 -33.5t55.5 -65.5t21 -106.5q0 -64 -21.5 -107t-57 -68.5t-81 -36.5t-92.5 -12l-54 -1v-29h154v-94h-154v-130h-114v130h-66v94h66v30h-66v94zM264 591q-19 0 -34 -0.5t-28 -2.5v-234h52q24 0 48.5 5t44 18.5
t32 37.5t11.5 62q1 33 -9.5 54.5t-28 35t-40.5 19t-48 5.5z" />
    <glyph glyph-name="uni20CB" unicode="&#x20cb;" 
d="M22 348h66v326q48 11 91.5 15t82.5 4q46 0 90.5 -9.5t79 -33.5t55.5 -65.5t21 -106.5q0 -64 -21.5 -107t-57 -68.5t-81 -36.5t-92.5 -12l-54 -1v-29h154v-94h-154v-130h-114v130h-66v94h66v30h-66v94zM264 591q-19 0 -34 -0.5t-28 -2.5v-234h52q24 0 48.5 5t44 18.5
t32 37.5t11.5 62q1 33 -9.5 54.5t-28 35t-40.5 19t-48 5.5z" />
    <glyph glyph-name="uni20CC" unicode="&#x20cc;" 
d="M22 348h66v326q48 11 91.5 15t82.5 4q46 0 90.5 -9.5t79 -33.5t55.5 -65.5t21 -106.5q0 -64 -21.5 -107t-57 -68.5t-81 -36.5t-92.5 -12l-54 -1v-29h154v-94h-154v-130h-114v130h-66v94h66v30h-66v94zM264 591q-19 0 -34 -0.5t-28 -2.5v-234h52q24 0 48.5 5t44 18.5
t32 37.5t11.5 62q1 33 -9.5 54.5t-28 35t-40.5 19t-48 5.5z" />
    <glyph glyph-name="uni20CD" unicode="&#x20cd;" 
d="M22 348h66v326q48 11 91.5 15t82.5 4q46 0 90.5 -9.5t79 -33.5t55.5 -65.5t21 -106.5q0 -64 -21.5 -107t-57 -68.5t-81 -36.5t-92.5 -12l-54 -1v-29h154v-94h-154v-130h-114v130h-66v94h66v30h-66v94zM264 591q-19 0 -34 -0.5t-28 -2.5v-234h52q24 0 48.5 5t44 18.5
t32 37.5t11.5 62q1 33 -9.5 54.5t-28 35t-40.5 19t-48 5.5z" />
    <glyph glyph-name="uni20CE" unicode="&#x20ce;" 
d="M22 348h66v326q48 11 91.5 15t82.5 4q46 0 90.5 -9.5t79 -33.5t55.5 -65.5t21 -106.5q0 -64 -21.5 -107t-57 -68.5t-81 -36.5t-92.5 -12l-54 -1v-29h154v-94h-154v-130h-114v130h-66v94h66v30h-66v94zM264 591q-19 0 -34 -0.5t-28 -2.5v-234h52q24 0 48.5 5t44 18.5
t32 37.5t11.5 62q1 33 -9.5 54.5t-28 35t-40.5 19t-48 5.5z" />
    <glyph glyph-name="uni20CF" unicode="&#x20cf;" 
d="M22 348h66v326q48 11 91.5 15t82.5 4q46 0 90.5 -9.5t79 -33.5t55.5 -65.5t21 -106.5q0 -64 -21.5 -107t-57 -68.5t-81 -36.5t-92.5 -12l-54 -1v-29h154v-94h-154v-130h-114v130h-66v94h66v30h-66v94zM264 591q-19 0 -34 -0.5t-28 -2.5v-234h52q24 0 48.5 5t44 18.5
t32 37.5t11.5 62q1 33 -9.5 54.5t-28 35t-40.5 19t-48 5.5z" />
    <glyph glyph-name="afii61289" unicode="&#x2113;" horiz-adv-x="500" 
d="M407 38q-13 -8 -30 -17t-35.5 -16t-38 -11.5t-37.5 -4.5q-69 0 -99 32.5t-30 102.5v56q-10 -8 -17.5 -15t-13.5 -12l-55 69l86 75v227q0 45 10.5 77.5t29.5 53.5t44 31t54 10q53 0 86.5 -31.5t33.5 -96.5q0 -72 -36.5 -149.5t-121.5 -162.5v-122q0 -30 10 -41.5t25 -11.5
q10 0 23.5 3.5t28 9t29 12.5l26.5 13zM299 563q0 22 -7 31.5t-17 9.5q-16 0 -27 -13t-11 -57v-143q32 46 47 88t15 84z" />
    <glyph glyph-name="afii61352" unicode="&#x2116;" horiz-adv-x="1023" 
d="M620 327h295v-106h-295v106zM199 429l-8 16v-1v-444h-111v695h69l298 -437l8 -14v441h111v-695h-72zM603 520q0 46 12.5 79.5t34 55t51 31.5t64.5 10q34 0 63.5 -9t51.5 -30t34.5 -54.5t12.5 -82.5q0 -48 -12.5 -81.5t-34.5 -54.5t-51.5 -30.5t-63.5 -9.5
q-35 0 -64.5 9.5t-51 30.5t-34 54.5t-12.5 81.5zM708 520q0 -46 15.5 -65.5t41.5 -19.5t41 18t15 67q0 50 -15 68t-41 18t-41.5 -18t-15.5 -68z" />
    <glyph glyph-name="trademark" unicode="&#x2122;" horiz-adv-x="885" 
d="M394 585h-126v-270h-109v270h-126v100h361v-100zM711 488l-83 -132h-51l-78 124v-165h-105v370h101l103 -165l11 -22q3 6 5.5 12t5.5 11l96 164h102v-370h-107v173z" />
    <glyph glyph-name="estimated" unicode="&#x212e;" horiz-adv-x="600" 
d="M175 240v-142q49 -43 116 -43q105 0 172 118l65 -40q-48 -73 -106 -111t-131 -38q-59 0 -107 21.5t-81.5 58.5t-51.5 87t-18 107q0 58 18.5 108.5t52.5 87t81.5 57.5t105.5 21q62 0 109.5 -23t80 -63t50 -93t19.5 -113h-375zM408 310v108q-53 45 -118 45t-115 -44v-109
h233z" />
    <glyph glyph-name="partialdiff" unicode="&#x2202;" horiz-adv-x="505" 
d="M275 509q49 0 71 -11q-8 27 -25.5 46.5t-40 31.5t-48 17.5t-50.5 5.5q-4 0 -11.5 -0.5t-31.5 -4.5l23 102q71 0 127.5 -14.5t96 -49t60.5 -91.5t21 -143q0 -105 -19.5 -182t-54 -127.5t-83 -75t-105.5 -24.5q-98 0 -147 51t-49 147q0 59 17 116.5t50.5 103.5t83 74
t115.5 28zM269 407q-30 0 -56.5 -16.5t-46.5 -46.5t-31.5 -71.5t-11.5 -90.5q0 -36 20 -63.5t69 -27.5q40 0 67 26t43.5 67t23.5 92t7 101q-14 14 -33 22t-51 8z" />
    <glyph glyph-name="product" unicode="&#x220f;" horiz-adv-x="678" 
d="M467 580h-280v-765h-114v870h508v-870h-114v765z" />
    <glyph glyph-name="summation" unicode="&#x2211;" horiz-adv-x="505" 
d="M139 -78l-2 -2h323v-105h-457v92l211 326l19 17q-11 9 -19 19l-211 324v92h457v-105h-318l4 -4l206 -320z" />
    <glyph glyph-name="minus" unicode="&#x2212;" horiz-adv-x="505" 
d="M28 383h429v-103h-429v103z" />
    <glyph glyph-name="uni2215" unicode="&#x2215;" horiz-adv-x="505" 
d="M446 704l79 -52l-473 -671l-78 55z" />
    <glyph glyph-name="radical" unicode="&#x221a;" horiz-adv-x="505" 
d="M177 450l91 -224l2 -12q1 3 1 5.5t1 5.5l141 460h109l-221 -695h-55l-146 356h-117v104h194z" />
    </font>
</defs>
</svg>
