<?xml version="1.0" encoding="UTF-8" standalone="no"?>
<!-- Created with Inkscape (http://www.inkscape.org/) -->

<svg
   xmlns:dc="http://purl.org/dc/elements/1.1/"
   xmlns:cc="http://creativecommons.org/ns#"
   xmlns:rdf="http://www.w3.org/1999/02/22-rdf-syntax-ns#"
   xmlns:svg="http://www.w3.org/2000/svg"
   xmlns="http://www.w3.org/2000/svg"
   xmlns:sodipodi="http://sodipodi.sourceforge.net/DTD/sodipodi-0.dtd"
   xmlns:inkscape="http://www.inkscape.org/namespaces/inkscape"
   width="220mm"
   height="110mm"
   viewBox="0 0 779.52756 389.76378"
   id="svg4158"
   version="1.1"
   inkscape:version="0.91 r13725"
   sodipodi:docname="Odebrechter.svg">
  <defs
     id="defs4160" />
  <sodipodi:namedview
     id="base"
     pagecolor="#ffffff"
     bordercolor="#666666"
     borderopacity="1.0"
     inkscape:pageopacity="0.0"
     inkscape:pageshadow="2"
     inkscape:zoom="0.49497475"
     inkscape:cx="179.60439"
     inkscape:cy="742.66925"
     inkscape:document-units="px"
     inkscape:current-layer="layer1"
     showgrid="false"
     inkscape:window-width="1920"
     inkscape:window-height="1027"
     inkscape:window-x="1912"
     inkscape:window-y="292"
     inkscape:window-maximized="1"
     units="mm" />
  <metadata
     id="metadata4163">
    <rdf:RDF>
      <cc:Work
         rdf:about="">
        <dc:format>image/svg+xml</dc:format>
        <dc:type
           rdf:resource="http://purl.org/dc/dcmitype/StillImage" />
        <dc:title></dc:title>
      </cc:Work>
    </rdf:RDF>
  </metadata>
  <g
     inkscape:label="Layer 1"
     inkscape:groupmode="layer"
     id="layer1"
     transform="translate(0,-662.59842)">
    <g
       transform="translate(253.10388,621.14487)"
       id="g4139">
      <g
         transform="matrix(1.25,0,0,-1.25,-175.64863,254.16563)"
         id="g3000">
        <path
           inkscape:connector-curvature="0"
           d="m 391.944,40.2384 -1.1376,-13.28712 6.072,0 c 0.6312,5.87424 2.9616,8.29392 6.4536,8.35224 l 4.176,0 -2.28,-27.331968 -4.1736,0 -0.3792,-5.31468 18.6,0 0.3792,5.31468 -3.4176,0 1.8984,27.331968 7.2144,0 c 2.064,0.26616 3.1512,-1.33968 3.7968,-3.79608 l -0.3816,-4.55616 6.0744,0 0.7584,13.28712 -43.6536,0 0,0 z m -52.7664,0 -0.3792,-4.93488 2.2776,0 -1.5192,-27.331968 -3.036,0 -0.3792,-5.31468 17.0832,0 0.3792,5.31468 -2.6592,0 0.7608,11.009064 18.6,0 -0.7584,-11.009064 -2.6568,0 -0.3792,-5.31468 17.0808,0 0.3792,5.31468 -2.6568,0 1.5192,27.331968 2.6568,0 0.3792,4.93488 -16.3224,0 -0.3792,-4.93488 2.2752,0 -0.7584,-11.38884 -18.6,0.3798 0.7584,11.00904 3.0384,0 0.3792,4.93488 -17.0832,0 0,0 z m -23.5344,1.13808 C 301.0176,41.82552 292.2624,35.69904 290.5896,21.637512 290.9184,9.001872 296.9952,1.0659384 311.4672,0 c 13.836,1.2093744 19.5768,6.973128 21.636,14.805 l -6.4512,0 c -1.7976,-5.891256 -6.3528,-8.421552 -13.6656,-7.591872 -7.7208,0.375 -11.136,5.056872 -10.2504,14.04468 0.7944,10.509312 5.5704,14.051232 12.1488,14.425392 10.6584,0.22872 14.2128,-3.47544 12.9048,-9.87 l 6.0744,0 1.14,14.80488 -6.0744,0 -0.3816,-2.65776 c -2.0712,2.5332 -6.3744,3.67128 -12.9048,3.41616 l 0,0 z m -105.15096,-6.07296 -0.76032,-11.00904 12.9084,0 c 2.59128,0.62904 4.4184,2.07552 4.55352,5.31456 0.38064,3.03648 -1.13832,5.3148 -4.93416,5.69448 l -11.76744,0 0,0 z m -14.42544,4.93488 -0.37968,-4.93488 3.79608,0 -1.8984,-27.331968 -3.79512,0 -0.37968,-5.31468 17.46192,0 0.37872,5.31468 -2.6568,0 0.75936,11.009064 9.11064,0 c 1.99032,-0.494064 3.00264,-1.505616 3.03744,-3.037488 l -0.38064,-7.971576 c 0.28968,-3.498744 1.55448,-5.522808 3.79584,-6.0731136 3.96384,-0.9609384 7.21224,-1.139064 9.86904,-0.3806256 l 3.41736,1.1390592 0.38064,5.31468 c -1.9764,-1.001232 -4.128,-1.001232 -5.69448,0 -2.05224,2.854704 -0.51,6.645 -1.13904,10.248768 -0.64872,1.531872 -1.66128,2.67 -3.03648,3.417192 5.9736,0.04968 8.66424,3.437688 9.10968,9.110568 0.37968,5.3148 -2.65704,8.35128 -9.86904,9.49032 l -31.88736,0 0,0 z m -32.64552,-21.257784 -0.75936,-11.009064 12.52584,0 c 3.41736,0.759384 4.17672,2.278128 4.93608,5.694384 0.37968,3.416256 -0.9516,5.085936 -4.93608,5.31468 l -11.76648,0 0,0 z M 164.93904,35.30352 163.8,23.91468 l 11.38776,0 c 3.14352,0.85404 5.16744,2.50044 6.07416,4.935 0.93936,3.83064 -0.95904,5.98224 -5.69352,6.45384 l -10.62936,0 0,0 z m -14.04456,4.93488 -0.38064,-4.93488 3.41712,0 -2.27808,-27.331968 -3.41736,0 -0.37872,-5.6943648 31.50768,0 c 8.20584,1.1953248 12.04872,5.0156208 12.90648,10.6293648 0.43872,4.34532 -1.58616,7.447512 -7.21224,8.73096 5.08776,2.12904 7.17744,5.555688 7.21224,9.869928 0.56352,5.2584 -2.72712,8.16936 -9.87,8.73096 l -31.50648,0 0,0 z m 94.89912,0 -0.3768,-4.93488 3.0336,0 -2.2752,-27.331968 -3.0384,0 -0.3768,-5.31468 43.272,0 1.14,14.42532 -5.6952,0 C 280.512,12.285 278.82,8.351256 275.784,7.971552 l -17.8416,0 0.7608,11.009064 6.072,0 c 2.2776,0 2.9952,-1.775616 2.6568,-4.935936 l 6.0744,0 1.14,15.94404 -5.6952,0 c -0.4416,-2.9916 -1.2696,-5.30424 -2.6568,-5.69424 l -7.2144,0 0.7608,11.00904 17.8416,0 c 3.7944,-0.37968 5.2008,-4.61544 4.5552,-8.35224 l 5.6928,0 1.14,13.28712 -43.2768,0 0,0 z m -143.10912,0.37968 -0.38064,-5.31456 3.03744,0 -2.27808,-27.331968 -3.03672,0 0,-5.31468 42.89544,0 1.13904,14.046576 -5.69448,0 c -0.96456,-4.797192 -2.65776,-8.352192 -5.69328,-8.731896 l -17.84256,0 0.75936,11.009064 6.07416,0 c 2.27808,0 2.99616,-2.535 2.6568,-5.69436 l 6.07416,0 1.13904,16.322784 -5.69448,0 c -0.44256,-2.99064 -1.26936,-4.92456 -2.6568,-5.31456 l -7.2132,0 0.75936,11.00904 17.8416,0 c 3.79584,-0.37968 5.20032,-4.61544 4.5552,-8.35224 l 5.69448,0 1.13904,13.6668 -43.27488,0 0,0 z M 68.13936,35.30352 65.86224,7.971552 l 13.28616,0 c 6.72192,2.37096 9.87,6.454704 10.24872,13.66596 C 89.7768,28.84968 87.12,34.16448 80.28744,35.30352 l -12.14808,0 0,0 z m -14.04552,4.93488 -0.37872,-4.93488 3.41616,0 -2.27808,-27.331968 -3.4164,0 -0.7584,-5.31468 27.71064,0 c 11.44224,0 21.05064,5.546256 22.01712,18.600936 0.37968,9.869952 -3.94584,15.790272 -15.56424,18.980592 l -30.74808,0 0,0 z M 27.14256,36.4416 c -8.351304,0 -14.045688,-3.41544 -16.32288,-14.804088 0.379704,-11.387832 6.402192,-14.95596 15.18384,-14.805 7.92,0.472488 12.07968,5.932488 13.66584,14.805 C 40.42872,30.74808 37.39128,35.6832 27.14256,36.4416 l 0,0 z m 0.37968,5.69424 C 12.337512,42.8952 3.226872,36.06288 0.19031256,23.91468 -1.3143744,10.157808 6.045936,1.9312512 24.10584,0.3787512 41.10384,1.29 49.60224,8.74968 51.05712,21.637512 51.4668,33.87096 44.60448,41.75712 27.52224,42.13584 l 0,0"
           style="fill:#ee1c23;fill-opacity:1;fill-rule:evenodd;stroke:none"
           id="path3012" />
      </g>
      <text
         transform="matrix(0.92059875,0.12703949,-0.14709755,1.0659506,0,0)"
         sodipodi:linespacing="125%"
         id="text4140"
         y="180.0231"
         x="428.43375"
         style="font-style:normal;font-weight:normal;font-size:64.66917419px;line-height:125%;font-family:sans-serif;letter-spacing:0px;word-spacing:0px;fill:#ff0000;fill-opacity:1;stroke:none;stroke-width:1px;stroke-linecap:butt;stroke-linejoin:miter;stroke-opacity:1"
         xml:space="preserve"><tspan
           rotate="9.7000027 9.7000027 0"
           style="font-style:normal;font-variant:normal;font-weight:bold;font-stretch:normal;font-family:sans-serif;-inkscape-font-specification:'sans-serif Bold';fill:#ff0000"
           y="180.0231"
           x="428.43375"
           id="tspan4142"
           sodipodi:role="line">ER</tspan></text>
    </g>
  </g>
</svg>
